<?xml version="1.0" encoding="UTF-8" standalone="no"?>
<svg width="302px" height="40px" viewBox="0 0 302 40" version="1.1" xmlns="http://www.w3.org/2000/svg" xmlns:xlink="http://www.w3.org/1999/xlink">
    <!-- Generator: Sketch 41 (35326) - http://www.bohemiancoding.com/sketch -->
    <title>Page 1 Copy 11</title>
    <desc>Created with Sketch.</desc>
    <defs>
        <polygon id="path-1" points="0 39.5 301.113 39.5 301.113 0.365 0 0.365"></polygon>
    </defs>
    <g id="Page-1" stroke="none" stroke-width="1" fill="none" fill-rule="evenodd">
        <g id="have-a-plan" transform="translate(-158.000000, -54.000000)">
            <g id="Page-1-Copy-11" transform="translate(158.000000, 54.000000)">
                <polygon id="Fill-1" fill="#FFFFFF" points="0 3.80115 0 35.29965 23.984 35.29965 23.984 29.13515 6.8845 29.13515 6.8845 22.52015 21.734 22.52015 21.734 16.35565 6.8845 16.35565 6.8845 9.96615 23.759 9.96615 23.759 3.80115"></polygon>
                <g id="Group-48" transform="translate(0.000000, 0.135100)">
                    <path d="M42.83935,19.55065 C46.30435,19.55065 48.32935,17.48065 48.32935,14.78065 L48.32935,14.69065 C48.32935,11.58565 46.16935,9.92115 42.70435,9.92115 L37.34985,9.92115 L37.34985,19.55065 L42.83935,19.55065 L42.83935,19.55065 Z M30.41985,3.66615 L43.28935,3.66615 C50.80435,3.66615 55.34885,8.12115 55.34885,14.55565 L55.34885,14.64565 C55.34885,21.93565 49.67935,25.71515 42.61435,25.71515 L37.34985,25.71515 L37.34985,35.16515 L30.41985,35.16515 L30.41985,3.66615 L30.41985,3.66615 Z" id="Fill-2" fill="#FFFFFF"></path>
                    <mask id="mask-2" fill="white">
                        <use xlink:href="#path-1"></use>
                    </mask>
                    <g id="Clip-5"></g>
                    <polygon id="Fill-4" fill="#FFFFFF" mask="url(#mask-2)" points="59.985 35.165 66.915 35.165 66.915 3.666 59.985 3.666"></polygon>
                    <path d="M72.58495,19.50545 L72.58495,19.41545 C72.58495,10.46095 79.33445,3.12645 89.00945,3.12645 C94.94895,3.12645 98.50395,5.10595 101.42895,7.98595 L97.01895,13.07095 C94.58895,10.86595 92.11395,9.51595 88.96395,9.51595 C83.65445,9.51595 79.82945,13.92545 79.82945,19.32545 L79.82945,19.41545 C79.82945,24.81545 83.56445,29.31495 88.96395,29.31495 C92.56395,29.31495 94.76895,27.87495 97.24395,25.62545 L101.65345,30.07995 C98.41395,33.54495 94.81395,35.70495 88.73945,35.70495 C79.46945,35.70495 72.58495,28.54995 72.58495,19.50545" id="Fill-6" fill="#FFFFFF" mask="url(#mask-2)"></path>
                    <polygon id="Fill-7" fill="#FFFFFF" mask="url(#mask-2)" points="145.40025 14.7098 139.78425 14.7098 139.78425 11.7748 144.75025 11.7748 144.75025 10.5888 139.78425 10.5888 139.78425 7.7313 145.33525 7.7313 145.33525 6.5453 138.50725 6.5453 138.50725 15.8958 145.40025 15.8958"></polygon>
                    <path d="M156.23935,11.8446 L156.23935,15.8961 L157.49035,15.8961 L157.49035,11.6106 C157.49035,9.8656 156.48635,8.7816 154.86935,8.7816 C153.88335,8.7816 153.11185,9.1821 152.51735,10.0041 C152.06185,9.2141 151.29785,8.7816 150.34485,8.7816 C149.32185,8.7816 148.71285,9.2726 148.29935,9.7941 L148.29935,8.9246 L147.04835,8.9246 L147.04835,15.8961 L148.29935,15.8961 L148.29935,11.9356 C148.29935,10.7806 149.03385,9.9416 150.04635,9.9416 C151.05085,9.9416 151.65035,10.6436 151.65035,11.8186 L151.65035,15.8961 L152.90135,15.8961 L152.90135,11.8966 C152.90135,10.7276 153.59285,9.9416 154.62235,9.9416 C155.64985,9.9416 156.23935,10.6356 156.23935,11.8446" id="Fill-8" fill="#FFFFFF" mask="url(#mask-2)"></path>
                    <path d="M162.31795,9.87655 C163.61295,9.87655 164.19795,10.90505 164.32445,11.91455 L160.27495,11.91455 C160.44645,10.70755 161.27145,9.87655 162.31795,9.87655 M165.33595,14.74955 L165.41945,14.65605 L164.61195,13.93305 L164.52845,14.02055 C163.93595,14.64155 163.29145,14.93055 162.49995,14.93055 C161.32945,14.93055 160.45045,14.12305 160.27495,12.90555 L165.57595,12.90555 L165.58845,12.79405 C165.60195,12.67255 165.60195,12.59155 165.60195,12.45555 C165.60195,10.29255 164.26245,8.78155 162.34395,8.78155 C160.46595,8.78155 158.99495,10.37255 158.99495,12.40355 L158.99495,12.42955 C158.99495,14.49455 160.49045,16.05205 162.47395,16.05205 C163.64545,16.05205 164.52845,15.65005 165.33595,14.74955" id="Fill-9" fill="#FFFFFF" mask="url(#mask-2)"></path>
                    <path d="M168.358,13.09265 C168.358,11.29715 169.355,10.13665 170.898,10.13665 L171.101,10.13665 L171.101,8.81215 L170.981,8.80765 C169.904,8.76765 168.9555,9.31165 168.358,10.29415 L168.358,8.92465 L167.107,8.92465 L167.107,15.89565 L168.358,15.89565 L168.358,13.09265 Z" id="Fill-10" fill="#FFFFFF" mask="url(#mask-2)"></path>
                    <path d="M177.53305,12.09165 C177.53305,13.41965 176.31555,14.24165 175.18805,14.24165 C173.95305,14.24165 172.98605,13.29165 172.98605,12.05265 C172.98605,10.81415 173.91205,9.91565 175.18805,9.91565 C176.34055,9.91565 177.53305,10.71965 177.53305,12.06565 L177.53305,12.09165 Z M178.74505,14.60115 L178.74505,8.92465 L177.49405,8.92465 L177.49405,9.90815 C176.82805,9.16015 175.98855,8.78165 174.99305,8.78165 C173.37855,8.78165 171.70905,10.01515 171.70905,12.10465 C171.70905,14.15215 173.37855,15.37565 174.99305,15.37565 C175.98605,15.37565 176.81205,14.98665 177.50705,14.18765 L177.50705,14.62665 C177.50705,16.06765 176.66155,16.89365 175.18805,16.89365 C174.27955,16.89365 173.43405,16.61315 172.67455,16.06015 L172.56255,15.97815 L171.97955,16.97715 L172.07455,17.04315 C172.98855,17.67915 174.04055,18.00165 175.20105,18.00165 C176.32355,18.00165 177.23955,17.67915 177.85055,17.06815 C178.44405,16.47465 178.74505,15.64465 178.74505,14.60115 L178.74505,14.60115 Z" id="Fill-11" fill="#FFFFFF" mask="url(#mask-2)"></path>
                    <path d="M183.6378,9.87655 C184.9328,9.87655 185.5178,10.90505 185.6443,11.91455 L181.5948,11.91455 C181.7663,10.70755 182.5913,9.87655 183.6378,9.87655 M186.6558,14.74955 L186.7393,14.65605 L185.9318,13.93305 L185.8483,14.02055 C185.2558,14.64155 184.6113,14.93055 183.8198,14.93055 C182.6493,14.93055 181.7703,14.12305 181.5948,12.90555 L186.8958,12.90555 L186.9083,12.79405 C186.9218,12.67255 186.9218,12.59155 186.9218,12.45555 C186.9218,10.29255 185.5823,8.78155 183.6638,8.78155 C181.7858,8.78155 180.3148,10.37255 180.3148,12.40355 L180.3148,12.42955 C180.3148,14.49455 181.8103,16.05205 183.7938,16.05205 C184.9653,16.05205 185.8483,15.65005 186.6558,14.74955" id="Fill-12" fill="#FFFFFF" mask="url(#mask-2)"></path>
                    <path d="M193.30185,15.89585 L194.55285,15.89585 L194.55285,11.59785 C194.55285,9.88685 193.49335,8.78135 191.85385,8.78135 C190.94685,8.78135 190.21635,9.12985 189.67785,9.81835 L189.67785,8.92485 L188.42685,8.92485 L188.42685,15.89585 L189.67785,15.89585 L189.67785,11.92285 C189.67785,10.75635 190.45485,9.94185 191.56785,9.94185 C192.66985,9.94185 193.30185,10.63535 193.30185,11.84435 L193.30185,15.89585 Z" id="Fill-13" fill="#FFFFFF" mask="url(#mask-2)"></path>
                    <path d="M202.4249,14.7103 L202.5064,14.6193 L201.6889,13.8518 L201.6029,13.9433 C201.0004,14.5903 200.3589,14.9048 199.6409,14.9048 C198.3254,14.9048 197.2954,13.8123 197.2954,12.3908 C197.2954,11.0028 198.2969,9.9158 199.5754,9.9158 C200.4729,9.9158 201.0434,10.3843 201.5264,10.8908 L201.6174,10.9863 L202.4514,10.1028 L202.3709,10.0168 C201.8294,9.4418 201.0239,8.7818 199.5889,8.7818 C197.6199,8.7818 196.0184,10.4123 196.0184,12.4168 L196.0184,12.4428 C196.0184,14.4328 197.6199,16.0518 199.5889,16.0518 C201.0359,16.0518 201.8644,15.3348 202.4249,14.7103" id="Fill-14" fill="#FFFFFF" mask="url(#mask-2)"></path>
                    <path d="M207.3094,16.0389 L210.2009,8.9244 L208.8629,8.9244 L206.7839,14.3234 L204.4284,8.9244 L203.0474,8.9244 L206.1599,15.7464 C205.7484,16.6939 205.3919,16.8809 204.9189,16.8809 C204.5249,16.8809 204.2459,16.8154 203.9234,16.6479 L203.8034,16.5859 L203.3659,17.6124 L203.4729,17.6644 C203.9864,17.9134 204.4164,18.0149 204.9579,18.0149 C206.0514,18.0149 206.7324,17.4424 207.3094,16.0389" id="Fill-15" fill="#FFFFFF" mask="url(#mask-2)"></path>
                    <path d="M216.8216,7.7445 L218.9976,7.7445 C220.4716,7.7445 221.3166,8.4195 221.3166,9.6215 C221.3166,10.762 220.3861,11.4985 218.9456,11.4985 L216.8216,11.4985 L216.8216,7.7445 Z M222.6066,9.5565 C222.6066,7.7275 221.2206,6.5455 219.0756,6.5455 L215.5446,6.5455 L215.5446,15.896 L216.8216,15.896 L216.8216,12.6845 L218.9066,12.6845 C220.7486,12.6845 222.6066,11.7255 222.6066,9.5565 L222.6066,9.5565 Z" id="Fill-16" fill="#FFFFFF" mask="url(#mask-2)"></path>
                    <path d="M225.31065,10.2943 L225.31065,8.9248 L224.05965,8.9248 L224.05965,15.8958 L225.31065,15.8958 L225.31065,13.0928 C225.31065,11.2968 226.30765,10.1368 227.85065,10.1368 L228.05365,10.1368 L228.05365,8.8123 L227.93365,8.8073 C226.85565,8.7678 225.90815,9.3118 225.31065,10.2943" id="Fill-17" fill="#FFFFFF" mask="url(#mask-2)"></path>
                    <path d="M231.94565,9.87655 C233.24065,9.87655 233.82565,10.90505 233.95215,11.91455 L229.90265,11.91455 C230.07415,10.70755 230.89865,9.87655 231.94565,9.87655 M234.96365,14.74955 L235.04715,14.65605 L234.23965,13.93305 L234.15615,14.02055 C233.56365,14.64155 232.91915,14.93055 232.12765,14.93055 C230.95715,14.93055 230.07815,14.12305 229.90265,12.90555 L235.20365,12.90555 L235.21615,12.79455 C235.22965,12.67255 235.22965,12.59155 235.22965,12.45555 C235.22965,10.29255 233.89015,8.78155 231.97165,8.78155 C230.09365,8.78155 228.62265,10.37255 228.62265,12.40355 L228.62265,12.42955 C228.62265,14.49455 230.11815,16.05205 232.10165,16.05205 C233.27315,16.05205 234.15615,15.65005 234.96365,14.74955" id="Fill-18" fill="#FFFFFF" mask="url(#mask-2)"></path>
                    <path d="M240.2528,9.92855 C241.5513,9.92855 242.4938,10.96955 242.4938,12.40355 L242.4938,12.42955 C242.4938,13.87955 241.5723,14.89205 240.2528,14.89205 C239.1193,14.89205 237.9468,13.96605 237.9468,12.39055 C237.9468,10.87005 239.1438,9.92855 240.2528,9.92855 L240.2528,9.92855 Z M237.9858,14.85705 C238.6338,15.64155 239.4563,16.03905 240.4348,16.03905 C242.0518,16.03905 243.7708,14.76955 243.7708,12.39055 C243.7708,10.04655 242.0518,8.78155 240.4348,8.78155 C239.4543,8.78155 238.6498,9.18755 237.9858,10.02055 L237.9858,8.92455 L236.7348,8.92455 L236.7348,17.97605 L237.9858,17.97605 L237.9858,14.85705 Z" id="Fill-19" fill="#FFFFFF" mask="url(#mask-2)"></path>
                    <path d="M247.9615,12.4896 C248.5845,12.4896 249.191,12.5731 249.8125,12.7451 L249.8125,13.3006 C249.8125,14.2671 248.8995,14.9961 247.6885,14.9961 C246.9345,14.9961 246.1235,14.6161 246.1235,13.7556 C246.1235,12.9631 246.8105,12.4896 247.9615,12.4896 M247.4935,16.0391 C248.614,16.0391 249.3455,15.5716 249.7995,15.0951 L249.7995,15.8956 L251.0115,15.8956 L251.0115,11.6626 C251.0115,10.7826 250.7675,10.0926 250.286,9.6111 C249.77,9.0951 249.0095,8.8336 248.0265,8.8336 C246.929,8.8336 246.149,9.1221 245.5305,9.4041 L245.4255,9.4521 L245.8105,10.5071 L245.9335,10.4501 C246.4805,10.1996 247.0995,9.9676 247.9225,9.9676 C248.779,9.9676 249.7995,10.2641 249.7995,11.6756 L249.7995,11.7456 C249.3,11.6126 248.7085,11.4986 247.8575,11.4986 C246.008,11.4986 244.8595,12.3786 244.8595,13.7946 L244.8595,13.8206 C244.8595,15.2771 246.1845,16.0391 247.4935,16.0391" id="Fill-20" fill="#FFFFFF" mask="url(#mask-2)"></path>
                    <path d="M256.6844,10.13655 L256.8874,10.13655 L256.8874,8.81255 L256.7679,8.80755 C255.6904,8.76855 254.7419,9.31205 254.1444,10.29405 L254.1444,8.92455 L252.8934,8.92455 L252.8934,15.89605 L254.1444,15.89605 L254.1444,13.09255 C254.1444,11.29705 255.1414,10.13655 256.6844,10.13655" id="Fill-21" fill="#FFFFFF" mask="url(#mask-2)"></path>
                    <path d="M260.7794,9.87655 C262.0744,9.87655 262.6594,10.90505 262.7859,11.91455 L258.7364,11.91455 C258.9079,10.70755 259.7329,9.87655 260.7794,9.87655 M260.9354,16.05205 C262.1069,16.05205 262.9899,15.65005 263.7974,14.74955 L263.8809,14.65605 L263.0734,13.93305 L262.9899,14.02055 C262.3974,14.64155 261.7529,14.93055 260.9614,14.93055 C259.7909,14.93055 258.9119,14.12305 258.7364,12.90555 L264.0374,12.90555 L264.0499,12.79405 C264.0634,12.67255 264.0634,12.59155 264.0634,12.45555 C264.0634,10.29255 262.7239,8.78155 260.8054,8.78155 C258.9274,8.78155 257.4564,10.37255 257.4564,12.40355 L257.4564,12.42955 C257.4564,14.49455 258.9519,16.05205 260.9354,16.05205" id="Fill-22" fill="#FFFFFF" mask="url(#mask-2)"></path>
                    <path d="M271.00255,12.41685 C271.00255,13.94585 269.80555,14.89185 268.69655,14.89185 C267.41905,14.89185 266.45555,13.82785 266.45555,12.39085 C266.45555,10.94085 267.37705,9.92835 268.69655,9.92835 C269.83005,9.92835 271.00255,10.84935 271.00255,12.39085 L271.00255,12.41685 Z M270.96355,9.96335 C270.31505,9.17885 269.49305,8.78135 268.51455,8.78135 C266.89755,8.78135 265.17855,10.05135 265.17855,12.40385 L265.17855,12.42985 C265.17855,14.77385 266.89755,16.03885 268.51455,16.03885 C269.49455,16.03885 270.29905,15.63285 270.96355,14.80035 L270.96355,15.89585 L272.21455,15.89585 L272.21455,6.15585 L270.96355,6.15585 L270.96355,9.96335 Z" id="Fill-23" fill="#FFFFFF" mask="url(#mask-2)"></path>
                    <path d="M277.6273,8.7816 C276.7203,8.7816 275.9898,9.1301 275.4513,9.8181 L275.4513,8.9246 L274.2003,8.9246 L274.2003,15.8961 L275.4513,15.8961 L275.4513,11.9226 C275.4513,10.7566 276.2283,9.9416 277.3413,9.9416 C278.4433,9.9416 279.0753,10.6356 279.0753,11.8446 L279.0753,15.8961 L280.3263,15.8961 L280.3263,11.5976 C280.3263,9.8871 279.2668,8.7816 277.6273,8.7816" id="Fill-24" fill="#FFFFFF" mask="url(#mask-2)"></path>
                    <path d="M283.0721,11.91465 C283.2441,10.70765 284.0686,9.87665 285.1151,9.87665 C286.4106,9.87665 286.9956,10.90515 287.1216,11.91465 L283.0721,11.91465 Z M285.1416,8.78165 C283.2636,8.78165 281.7921,10.37265 281.7921,12.40365 L281.7921,12.42965 C281.7921,14.49465 283.2881,16.05165 285.2711,16.05165 C286.4431,16.05165 287.3256,15.65015 288.1336,14.74915 L288.2171,14.65615 L287.4096,13.93315 L287.3261,14.02065 C286.7331,14.64165 286.0886,14.93065 285.2971,14.93065 C284.1271,14.93065 283.2476,14.12315 283.0721,12.90565 L288.3736,12.90565 L288.3856,12.79415 C288.3991,12.67265 288.3996,12.59165 288.3996,12.45565 C288.3996,10.29215 287.0596,8.78165 285.1416,8.78165 L285.1416,8.78165 Z" id="Fill-25" fill="#FFFFFF" mask="url(#mask-2)"></path>
                    <path d="M292.49715,11.80845 C291.66665,11.55595 290.88215,11.31695 290.88215,10.75295 C290.88215,10.24445 291.35415,9.90245 292.05715,9.90245 C292.66665,9.90245 293.34915,10.12645 293.97815,10.53245 L294.08665,10.60245 L294.67015,9.63545 L294.57015,9.56945 C293.84765,9.09245 292.91765,8.80745 292.08315,8.80745 C290.66215,8.80745 289.67015,9.65045 289.67015,10.88245 C289.67015,12.24445 291.00765,12.62345 291.98465,12.90095 C292.88265,13.15245 293.57015,13.38995 293.57015,13.98995 C293.57015,14.55245 293.06115,14.93095 292.30415,14.93095 C291.55765,14.93095 290.77865,14.64245 290.05165,14.09795 L289.94915,14.02095 L289.30015,14.93645 L289.39165,15.00995 C290.16465,15.63645 291.26065,16.02595 292.25215,16.02595 C293.75765,16.02595 294.76915,15.16595 294.76915,13.85995 C294.76915,12.48995 293.41665,12.08445 292.49715,11.80845" id="Fill-26" fill="#FFFFFF" mask="url(#mask-2)"></path>
                    <path d="M298.8414,11.80845 C298.0104,11.55595 297.2259,11.31695 297.2259,10.75295 C297.2259,10.24445 297.6984,9.90245 298.4014,9.90245 C299.0109,9.90245 299.6934,10.12645 300.3224,10.53245 L300.4309,10.60245 L301.0139,9.63545 L300.9139,9.56945 C300.1919,9.09245 299.2619,8.80745 298.4269,8.80745 C297.0064,8.80745 296.0139,9.65045 296.0139,10.88245 C296.0139,12.24445 297.3514,12.62395 298.3284,12.90095 C299.2269,13.15245 299.9144,13.38995 299.9144,13.98995 C299.9144,14.55245 299.4054,14.93095 298.6479,14.93095 C297.9014,14.93095 297.1229,14.64245 296.3959,14.09795 L296.2934,14.02095 L295.6444,14.93645 L295.7354,15.00995 C296.5084,15.63645 297.6049,16.02595 298.5959,16.02595 C300.1019,16.02595 301.1129,15.16595 301.1129,13.85995 C301.1129,12.48995 299.7609,12.08445 298.8414,11.80845" id="Fill-27" fill="#FFFFFF" mask="url(#mask-2)"></path>
                    <path d="M140.86825,32.9049 C139.84075,32.9049 139.09525,32.2359 139.09525,31.2879 C139.09525,30.5159 139.65675,29.8774 140.67975,29.4834 L142.97125,31.8484 C142.30425,32.5499 141.59725,32.9049 140.86825,32.9049 M141.58325,25.4844 C142.25675,25.4844 142.74525,25.9624 142.74525,26.6204 L142.74525,26.6464 C142.74525,27.3354 142.22375,27.8544 141.15125,28.2309 C140.52375,27.5474 140.33025,27.1814 140.33025,26.6729 C140.33025,25.9844 140.85725,25.4844 141.58325,25.4844 M145.81725,29.4949 L145.87125,29.3809 L144.79525,28.8844 L144.74425,29.0019 C144.43425,29.7214 144.10025,30.3534 143.74925,30.8829 L141.91175,29.0109 C143.26925,28.4854 143.95725,27.6724 143.95725,26.5689 C143.95725,25.3469 142.93175,24.3894 141.62225,24.3894 C140.15625,24.3894 139.09225,25.3499 139.09225,26.6984 C139.09225,27.3684 139.32675,27.9259 139.92125,28.6499 C138.53575,29.2384 137.80525,30.1624 137.80525,31.3529 C137.80525,32.9019 139.06025,34.0259 140.79025,34.0259 C141.90775,34.0259 142.88325,33.5804 143.76875,32.6644 L145.18525,34.1199 L146.16525,33.3684 L144.55575,31.7189 C144.96875,31.1589 145.36075,30.4674 145.81725,29.4949" id="Fill-28" fill="#FFFFFF" mask="url(#mask-2)"></path>
                    <polygon id="Fill-29" fill="#FFFFFF" mask="url(#mask-2)" points="151.5455 33.896 152.8225 33.896 152.8225 24.5455 151.5455 24.5455"></polygon>
                    <path d="M158.49595,26.7816 C157.58895,26.7816 156.85845,27.1301 156.31995,27.8181 L156.31995,26.9246 L155.06895,26.9246 L155.06895,33.8961 L156.31995,33.8961 L156.31995,29.9226 C156.31995,28.7566 157.09695,27.9416 158.20995,27.9416 C159.31195,27.9416 159.94395,28.6356 159.94395,29.8446 L159.94395,33.8961 L161.19495,33.8961 L161.19495,29.5976 C161.19495,27.8871 160.13545,26.7816 158.49595,26.7816" id="Fill-30" fill="#FFFFFF" mask="url(#mask-2)"></path>
                    <path d="M165.6068,24.10335 C164.9693,24.10335 164.4398,24.29585 164.0753,24.65985 C163.6688,25.06685 163.4538,25.69535 163.4538,26.47785 L163.4538,26.93735 L162.5308,26.93735 L162.5308,28.05885 L163.4538,28.05885 L163.4538,33.89585 L164.7048,33.89585 L164.7048,28.05885 L166.8238,28.05885 L166.8238,26.95035 L164.6918,26.95035 L164.6918,26.52985 C164.6918,25.63935 165.0238,25.22435 165.7368,25.22435 C166.0463,25.22435 166.2963,25.27985 166.6773,25.38835 L166.8368,25.43435 L166.8368,24.30985 L166.7538,24.27985 C166.4058,24.15485 166.0733,24.10335 165.6068,24.10335" id="Fill-31" fill="#FFFFFF" mask="url(#mask-2)"></path>
                    <path d="M173.28205,30.44275 C173.28205,31.84625 172.27355,32.90475 170.93705,32.90475 C169.61455,32.90475 168.57855,31.81225 168.57855,30.39075 C168.57855,28.97975 169.58155,27.91575 170.91105,27.91575 C172.24055,27.91575 173.28205,29.01425 173.28205,30.41675 L173.28205,30.44275 Z M170.93705,26.78175 C168.89805,26.78175 167.30155,28.37825 167.30155,30.41675 L167.30155,30.44275 C167.30155,32.46675 168.88705,34.05175 170.91105,34.05175 C172.95655,34.05175 174.55905,32.45525 174.55905,30.39075 C174.55905,28.36675 172.96805,26.78175 170.93705,26.78175 L170.93705,26.78175 Z" id="Fill-32" fill="#FFFFFF" mask="url(#mask-2)"></path>
                    <path d="M177.3668,28.2943 L177.3668,26.9248 L176.1158,26.9248 L176.1158,33.8958 L177.3668,33.8958 L177.3668,31.0928 C177.3668,29.2968 178.3638,28.1368 179.9068,28.1368 L180.1098,28.1368 L180.1098,26.8123 L179.9898,26.8073 C178.9108,26.7683 177.9643,27.3118 177.3668,28.2943" id="Fill-33" fill="#FFFFFF" mask="url(#mask-2)"></path>
                    <path d="M189.202,26.7816 C188.216,26.7816 187.4445,27.1821 186.8495,28.0041 C186.394,27.2141 185.6305,26.7816 184.6775,26.7816 C183.654,26.7816 183.0455,27.2726 182.6315,27.7941 L182.6315,26.9246 L181.3805,26.9246 L181.3805,33.8961 L182.6315,33.8961 L182.6315,29.9356 C182.6315,28.7806 183.3665,27.9416 184.379,27.9416 C185.383,27.9416 185.983,28.6436 185.983,29.8186 L185.983,33.8961 L187.2335,33.8961 L187.2335,29.8966 C187.2335,28.7276 187.9255,27.9416 188.955,27.9416 C189.9825,27.9416 190.572,28.6356 190.572,29.8446 L190.572,33.8961 L191.823,33.8961 L191.823,29.6106 C191.823,27.8656 190.8185,26.7816 189.202,26.7816" id="Fill-34" fill="#FFFFFF" mask="url(#mask-2)"></path>
                    <path d="M198.18955,31.30065 C198.18955,32.26715 197.27655,32.99615 196.06555,32.99615 C195.31155,32.99615 194.50055,32.61615 194.50055,31.75565 C194.50055,30.96315 195.18755,30.48965 196.33855,30.48965 C196.96155,30.48965 197.56805,30.57315 198.18955,30.74515 L198.18955,31.30065 Z M196.40355,26.83365 C195.30555,26.83365 194.52555,27.12215 193.90755,27.40415 L193.80255,27.45215 L194.18755,28.50715 L194.31055,28.45015 C194.85705,28.19965 195.47655,27.96765 196.29955,27.96765 C197.15605,27.96765 198.17655,28.26415 198.17655,29.67565 L198.17655,29.74565 C197.67705,29.61265 197.08555,29.49865 196.23455,29.49865 C194.38505,29.49865 193.23655,30.37865 193.23655,31.79465 L193.23655,31.82065 C193.23655,33.27715 194.56155,34.03915 195.87055,34.03915 C196.99105,34.03915 197.72205,33.57165 198.17655,33.09515 L198.17655,33.89565 L199.38855,33.89565 L199.38855,29.66265 C199.38855,28.78265 199.14455,28.09265 198.66305,27.61115 C198.14705,27.09515 197.38655,26.83365 196.40355,26.83365 L196.40355,26.83365 Z" id="Fill-35" fill="#FFFFFF" mask="url(#mask-2)"></path>
                    <path d="M202.80745,24.8966 L201.55645,24.8966 L201.55645,26.9246 L200.62045,26.9246 L200.62045,28.0586 L201.55645,28.0586 L201.55645,31.9901 C201.55645,33.2941 202.27495,34.0126 203.57945,34.0126 C204.04895,34.0126 204.45145,33.9176 204.84645,33.7131 L204.91345,33.6776 L204.91345,32.5446 L204.73445,32.6311 C204.40745,32.7886 204.14095,32.8531 203.81345,32.8531 C203.12695,32.8531 202.80745,32.5371 202.80745,31.8596 L202.80745,28.0586 L204.93995,28.0586 L204.93995,26.9246 L202.80745,26.9246 L202.80745,24.8966 Z" id="Fill-36" fill="#FFFFFF" mask="url(#mask-2)"></path>
                    <polygon id="Fill-37" fill="#FFFFFF" mask="url(#mask-2)" points="206.4835 25.7055 207.8775 25.7055 207.8775 24.3505 206.4835 24.3505"></polygon>
                    <polygon id="Fill-38" fill="#FFFFFF" mask="url(#mask-2)" points="206.5485 33.896 207.7995 33.896 207.7995 26.925 206.5485 26.925"></polygon>
                    <path d="M215.4403,30.44275 C215.4403,31.84625 214.4323,32.90475 213.0953,32.90475 C211.7733,32.90475 210.7373,31.81225 210.7373,30.39075 C210.7373,28.97975 211.7398,27.91575 213.0693,27.91575 C214.3988,27.91575 215.4403,29.01425 215.4403,30.41675 L215.4403,30.44275 Z M213.0953,26.78175 C211.0568,26.78175 209.4603,28.37825 209.4603,30.41675 L209.4603,30.44275 C209.4603,32.46675 211.0453,34.05175 213.0693,34.05175 C215.1148,34.05175 216.7173,32.45525 216.7173,30.39075 C216.7173,28.36675 215.1263,26.78175 213.0953,26.78175 L213.0953,26.78175 Z" id="Fill-39" fill="#FFFFFF" mask="url(#mask-2)"></path>
                    <path d="M221.70125,26.7816 C220.79425,26.7816 220.06375,27.1301 219.52525,27.8181 L219.52525,26.9246 L218.27425,26.9246 L218.27425,33.8961 L219.52525,33.8961 L219.52525,29.9226 C219.52525,28.7566 220.30275,27.9416 221.41525,27.9416 C222.51725,27.9416 223.14925,28.6356 223.14925,29.8446 L223.14925,33.8961 L224.40025,33.8961 L224.40025,29.5976 C224.40025,27.8871 223.34075,26.7816 221.70125,26.7816" id="Fill-40" fill="#FFFFFF" mask="url(#mask-2)"></path>
                    <path d="M237.51375,31.57455 C236.71075,32.34205 235.91825,32.85305 234.66175,32.85305 C232.75675,32.85305 231.26375,31.25755 231.26375,29.19455 C231.26375,27.13855 232.72475,25.58855 234.66175,25.58855 C235.71025,25.58855 236.53975,25.95155 237.43575,26.80205 L237.52725,26.88905 L238.40025,25.95205 L238.30975,25.86655 C237.49625,25.09955 236.49275,24.38955 234.67525,24.38955 C232.02425,24.38955 229.94775,26.51155 229.94775,29.22055 L229.94775,29.24655 C229.94775,31.98605 231.96325,34.05205 234.63625,34.05205 C236.49975,34.05205 237.56675,33.22455 238.36525,32.41555 L238.45325,32.32605 L237.60125,31.49105 L237.51375,31.57455 Z" id="Fill-41" fill="#FFFFFF" mask="url(#mask-2)"></path>
                    <path d="M240.50985,29.91465 C240.68135,28.70765 241.50635,27.87665 242.55285,27.87665 C243.84835,27.87665 244.43335,28.90515 244.55935,29.91465 L240.50985,29.91465 Z M242.57885,26.78165 C240.70085,26.78165 239.22985,28.37265 239.22985,30.40365 L239.22985,30.42965 C239.22985,32.49465 240.72585,34.05165 242.70885,34.05165 C243.88085,34.05165 244.76335,33.65015 245.57135,32.74915 L245.65485,32.65615 L244.84735,31.93315 L244.76385,32.02065 C244.17085,32.64165 243.52635,32.93065 242.73535,32.93065 C241.56485,32.93065 240.68535,32.12315 240.50985,30.90565 L245.81085,30.90565 L245.82335,30.79465 C245.83685,30.67265 245.83735,30.59165 245.83735,30.45565 C245.83735,28.29215 244.49735,26.78165 242.57885,26.78165 L242.57885,26.78165 Z" id="Fill-42" fill="#FFFFFF" mask="url(#mask-2)"></path>
                    <path d="M250.7689,26.7816 C249.8619,26.7816 249.1314,27.1301 248.5929,27.8181 L248.5929,26.9246 L247.3419,26.9246 L247.3419,33.8961 L248.5929,33.8961 L248.5929,29.9226 C248.5929,28.7566 249.3699,27.9416 250.4829,27.9416 C251.5849,27.9416 252.2169,28.6356 252.2169,29.8446 L252.2169,33.8961 L253.4679,33.8961 L253.4679,29.5976 C253.4679,27.8871 252.4084,26.7816 250.7689,26.7816" id="Fill-43" fill="#FFFFFF" mask="url(#mask-2)"></path>
                    <path d="M256.952,24.8966 L255.701,24.8966 L255.701,26.9246 L254.7645,26.9246 L254.7645,28.0586 L255.701,28.0586 L255.701,31.9901 C255.701,33.2941 256.4195,34.0126 257.724,34.0126 C258.193,34.0126 258.5955,33.9176 258.9905,33.7131 L259.058,33.6776 L259.058,32.5446 L258.879,32.6311 C258.552,32.7886 258.285,32.8531 257.958,32.8531 C257.2715,32.8531 256.952,32.5371 256.952,31.8596 L256.952,28.0586 L259.084,28.0586 L259.084,26.9246 L256.952,26.9246 L256.952,24.8966 Z" id="Fill-44" fill="#FFFFFF" mask="url(#mask-2)"></path>
                    <path d="M261.2706,29.91465 C261.4421,28.70765 262.2671,27.87665 263.3136,27.87665 C264.6091,27.87665 265.1941,28.90515 265.3201,29.91465 L261.2706,29.91465 Z M263.3396,26.78165 C261.4616,26.78165 259.9906,28.37265 259.9906,30.40365 L259.9906,30.42965 C259.9906,32.49465 261.4866,34.05165 263.4696,34.05165 C264.6416,34.05165 265.5241,33.65015 266.3321,32.74915 L266.4156,32.65615 L265.6081,31.93315 L265.5246,32.02065 C264.9316,32.64165 264.2871,32.93065 263.4961,32.93065 C262.3256,32.93065 261.4461,32.12315 261.2706,30.90565 L266.5716,30.90565 L266.5841,30.79465 C266.5976,30.67265 266.5981,30.59165 266.5981,30.45565 C266.5981,28.29215 265.2581,26.78165 263.3396,26.78165 L263.3396,26.78165 Z" id="Fill-45" fill="#FFFFFF" mask="url(#mask-2)"></path>
                    <path d="M269.35385,28.2943 L269.35385,26.9248 L268.10285,26.9248 L268.10285,33.8958 L269.35385,33.8958 L269.35385,31.0928 C269.35385,29.2968 270.35085,28.1368 271.89385,28.1368 L272.09685,28.1368 L272.09685,26.8123 L271.97735,26.8073 C270.89685,26.7668 269.95135,27.3118 269.35385,28.2943" id="Fill-46" fill="#FFFFFF" mask="url(#mask-2)"></path>
                    <polygon id="Fill-47" fill="#FFFFFF" mask="url(#mask-2)" points="118.9765 39.5 120.4765 39.5 120.4765 0.365 118.9765 0.365"></polygon>
                </g>
            </g>
        </g>
    </g>
</svg>