<?xml version="1.0" encoding="UTF-8" standalone="no"?>
<svg width="478px" height="220px" viewBox="0 0 478 220" version="1.1" xmlns="http://www.w3.org/2000/svg" xmlns:xlink="http://www.w3.org/1999/xlink">
    <!-- Generator: Sketch 41.1 (35376) - http://www.bohemiancoding.com/sketch -->
    <title>Group 3</title>
    <desc>Created with Sketch.</desc>
    <defs></defs>
    <g id="Page-1" stroke="none" stroke-width="1" fill="none" fill-rule="evenodd" stroke-linejoin="round">
        <g id="home" transform="translate(-831.000000, -1970.000000)" stroke-width="2" stroke="#626262">
            <g id="Group-3" transform="translate(832.000000, 1971.000000)">
                <g id="Group-5">
                    <g id="Page-1-Copy">
                        <path d="M20.0811,176.1449 L10.4081,176.1449 C4.7041,176.1449 0.0811,171.5209 0.0811,165.8179 L0.0001,137.2299 C0.0001,132.6819 2.3861,128.4679 6.2861,126.1279 L20.0001,117.8999 L20.0811,176.1449 Z" id="Stroke-1" stroke-linecap="round"></path>
                        <path d="M0.0811,156.1449 L20.0811,156.1449" id="Stroke-3" stroke-linecap="round"></path>
                        <path d="M140.0811,149.4931 L140.0811,189.0331 C140.0811,197.9311 132.8671,205.1451 123.9691,205.1451 L60.1921,205.1451 C51.2951,205.1451 44.0811,197.9311 44.0811,189.0331 L44.0811,149.4931" id="Stroke-5" stroke-linecap="round"></path>
                        <path d="M142.0811,149.1449 L42.0811,149.1449 L43.7071,124.7459 C43.9181,121.5939 46.5351,119.1449 49.6941,119.1449 L134.4681,119.1449 C137.6261,119.1449 140.2441,121.5939 140.4541,124.7459 L142.0811,149.1449 Z" id="Stroke-7" stroke-linecap="round"></path>
                        <path d="M140.0811,89.1449 L140.0811,95.3869 C140.0811,101.8809 134.8161,107.1449 128.3231,107.1449 L55.8391,107.1449 C49.3451,107.1449 44.0811,101.8809 44.0811,95.3869 L44.0811,89.1449" id="Stroke-9" stroke-linecap="round"></path>
                        <path d="M142.0811,89.1449 L42.0811,89.1449 L43.7071,64.7459 C43.9181,61.5939 46.5351,59.1449 49.6941,59.1449 L134.4681,59.1449 C137.6261,59.1449 140.2441,61.5939 140.4541,64.7459 L142.0811,89.1449 Z" id="Stroke-11" stroke-linecap="round"></path>
                        <path d="M0,137.0575 L11,137.0575" id="Stroke-13" stroke-linecap="round"></path>
                        <path d="M164.0811,156.1449 L184.0811,156.1449" id="Stroke-15" stroke-linecap="round"></path>
                        <path d="M164,143.0575 L184,143.0575" id="Stroke-17" stroke-linecap="round"></path>
                        <path d="M72.3135,15.0316 C70.6775,12.0906 68.8755,9.0036 67.0005,6.0576 C61.6255,-2.3874 39.3825,-0.5804 32.9525,2.9526 C31.0075,4.0216 31.3745,5.4316 33.0005,7.0576 C40.0005,14.0576 39.0005,30.0226 39.0005,30.0226 L80.0005,30.0226 C80.0005,30.0226 78.9015,27.6476 77.0955,24.0696" id="Stroke-19" stroke-linecap="round"></path>
                        <path d="M131.7471,30.0224 L144.8221,30.0224 C153.8221,30.0224 163.7411,64.0574 163.7411,94.0574 L163.7411,177.0574 C163.7411,202.0574 143.8221,217.1454 118.8221,217.1454 L65.0001,217.1454 C40.0001,217.1454 20.0811,202.0574 20.0811,177.0574 L20.0811,94.0574 C20.0811,64.0574 30.0001,30.0224 39.0001,30.0224 L52.0741,30.0224 L131.7471,30.0224 Z" id="Stroke-21" stroke-linecap="round"></path>
                        <path d="M20.0811,164.5575 L44.0811,164.5575" id="Stroke-23" stroke-linecap="round"></path>
                        <path d="M140,165.0575 L164,165.0575" id="Stroke-25" stroke-linecap="round"></path>
                        <polyline id="Stroke-27" stroke-linecap="round" points="164.0811 106.1449 179.3951 106.1449 179.3951 115.7429 164.0811 115.7429"></polyline>
                        <path d="M164.0811,115.7431 L179.2791,115.7431 C181.2491,115.7431 182.8461,117.3401 182.8461,119.3101 L182.8461,129.0611" id="Stroke-29" stroke-linecap="round"></path>
                        <path d="M178.9521,108.3808 C192.0911,102.9058 194.2681,118.1258 181.8601,118.9618" id="Stroke-31"></path>
                        <path d="M164.0811,118.1449 L184.0811,129.9909 L184.0811,167.4709 C184.0811,172.2609 180.1971,176.1449 175.4061,176.1449 L164.0811,176.1449 L164.0811,118.1449 Z" id="Stroke-33" stroke-linecap="round"></path>
                        <path d="M69.4111,20.0575 L63.9311,29.5575" id="Stroke-35" stroke-linecap="round"></path>
                        <path d="M119.8906,29.5575 L114.4116,20.0575" id="Stroke-37" stroke-linecap="round"></path>
                        <path d="M79.4111,20.0575 L73.9311,29.5575" id="Stroke-39" stroke-linecap="round"></path>
                        <path d="M109.8906,29.5575 L104.4116,20.0575" id="Stroke-41" stroke-linecap="round"></path>
                        <polygon id="Stroke-43" stroke-linecap="round" points="114.4111 20.0575 69.4111 20.0575 74.0311 12.0575 109.7911 12.0575"></polygon>
                        <path d="M32.9521,2.953 C18.9521,13.953 22.0001,43.057 22.0001,69.057" id="Stroke-45" stroke-linecap="round"></path>
                        <path d="M111.418,15.0106 C113.051,12.0756 114.85,8.9966 116.72,6.0576 C122.094,-2.3874 144.337,-0.5804 150.768,2.9526 C152.712,4.0216 152.345,5.4316 150.72,7.0576 C143.72,14.0576 144.72,30.0226 144.72,30.0226 L103.72,30.0226 C103.72,30.0226 104.838,27.6066 106.671,23.9766" id="Stroke-47" stroke-linecap="round"></path>
                        <path d="M150.7676,2.953 C164.7676,13.953 161.7196,43.057 161.7196,69.057" id="Stroke-49" stroke-linecap="round"></path>
                    </g>
                    <g id="Page-1-Copy-2" transform="translate(224.000000, 68.000000)">
                        <path d="M13.772901,121.200619 L7.13853979,121.200619 C3.22637225,121.200619 0.0556235602,118.018968 0.0556235602,114.094885 L6.85863879e-05,94.4242431 C6.85863879e-05,91.2948853 1.63653979,88.395344 4.3114089,86.7852523 L13.7173461,81.1237844 L13.772901,121.200619 Z" id="Stroke-1" stroke-linecap="round"></path>
                        <path d="M0.0556235602,107.439151 L13.772901,107.439151" id="Stroke-3" stroke-linecap="round"></path>
                        <path d="M96.076566,102.862225 L96.076566,130.068647 C96.076566,136.191124 91.128744,141.154885 85.0259272,141.154885 L41.2835869,141.154885 C35.181456,141.154885 30.233634,136.191124 30.233634,130.068647 L30.233634,102.862225" id="Stroke-5" stroke-linecap="round"></path>
                        <path d="M97.4482937,102.622638 L28.8619063,102.622638 L29.9771209,85.8343349 C30.1218382,83.6655275 31.916744,81.9804358 34.083388,81.9804358 L92.226812,81.9804358 C94.3927702,81.9804358 96.1883618,83.6655275 96.3323932,85.8343349 L97.4482937,102.622638 Z" id="Stroke-7" stroke-linecap="round"></path>
                        <path d="M96.076566,61.3382339 L96.076566,65.6331881 C96.076566,70.1015367 92.4654927,73.723555 88.0121785,73.723555 L38.2980215,73.723555 C33.8440215,73.723555 30.233634,70.1015367 30.233634,65.6331881 L30.233634,61.3382339" id="Stroke-9" stroke-linecap="round"></path>
                        <path d="M97.4482937,61.3382339 L28.8619063,61.3382339 L29.9771209,44.5499312 C30.1218382,42.3811239 31.916744,40.6960321 34.083388,40.6960321 L92.226812,40.6960321 C94.3927702,40.6960321 96.1883618,42.3811239 96.3323932,44.5499312 L97.4482937,61.3382339 Z" id="Stroke-11" stroke-linecap="round"></path>
                        <path d="M0,94.3056193 L7.54450262,94.3056193" id="Stroke-13" stroke-linecap="round"></path>
                        <path d="M112.537299,107.439151 L126.254576,107.439151" id="Stroke-15" stroke-linecap="round"></path>
                        <path d="M112.481675,98.4340596 L126.198953,98.4340596" id="Stroke-17" stroke-linecap="round"></path>
                        <path d="M49.5972173,10.342844 C48.475144,8.31922018 47.2392173,6.19513761 45.9532225,4.16807339 C42.2667042,-1.64270642 27.011034,-0.399357798 22.6009293,2.0316055 C21.2669241,2.76715596 21.5186361,3.73733945 22.6338508,4.85614679 C27.4348979,9.67266055 26.749034,20.6577523 26.749034,20.6577523 L54.8694529,20.6577523 C54.8694529,20.6577523 54.1156885,19.023578 52.8770183,16.5616514" id="Stroke-19" stroke-linecap="round"></path>
                        <path d="M90.3605764,20.6576147 L99.3282466,20.6576147 C105.501021,20.6576147 112.304105,44.0761927 112.304105,64.7183945 L112.304105,121.828486 C112.304105,139.030321 98.6423827,149.411972 81.4957859,149.411972 L44.5812204,149.411972 C27.4346236,149.411972 13.772901,139.030321 13.772901,121.828486 L13.772901,64.7183945 C13.772901,44.0761927 20.5759848,20.6576147 26.7487597,20.6576147 L35.715744,20.6576147 L90.3605764,20.6576147 Z" id="Stroke-21" stroke-linecap="round"></path>
                        <path d="M13.772901,113.227638 L30.233634,113.227638" id="Stroke-23" stroke-linecap="round"></path>
                        <path d="M96.0209424,113.571674 L112.481675,113.571674" id="Stroke-25" stroke-linecap="round"></path>
                        <polyline id="Stroke-27" stroke-linecap="round" points="112.537299 73.0354817 123.040618 73.0354817 123.040618 79.6396101 112.537299 79.6396101"></polyline>
                        <path d="M112.537299,79.6397477 L122.961058,79.6397477 C124.31221,79.6397477 125.407535,80.7386009 125.407535,82.0941055 L125.407535,88.8035092" id="Stroke-29" stroke-linecap="round"></path>
                        <path d="M122.736781,74.573945 C131.748346,70.8067431 133.241472,81.2792202 124.731273,81.8544495" id="Stroke-31"></path>
                        <path d="M112.537299,81.2923624 L126.254576,89.4432798 L126.254576,115.232271 C126.254576,118.528142 123.590681,121.200619 120.304707,121.200619 L112.537299,121.200619 L112.537299,81.2923624 Z" id="Stroke-33" stroke-linecap="round"></path>
                        <path d="M47.606566,13.8010321 L43.8480319,20.3377294" id="Stroke-35" stroke-linecap="round"></path>
                        <path d="M82.2286314,20.3377294 L78.4707832,13.8010321" id="Stroke-37" stroke-linecap="round"></path>
                        <path d="M54.4652047,13.8010321 L50.7066707,20.3377294" id="Stroke-39" stroke-linecap="round"></path>
                        <path d="M75.3699927,20.3377294 L71.6121445,13.8010321" id="Stroke-41" stroke-linecap="round"></path>
                        <polygon id="Stroke-43" stroke-linecap="round" points="78.4704403 13.8010321 47.606566 13.8010321 50.7752571 8.29644495 75.3017492 8.29644495"></polygon>
                        <path d="M22.600655,2.03188073 C12.9985607,9.60068807 15.0890738,29.6263761 15.0890738,47.5162844" id="Stroke-45" stroke-linecap="round"></path>
                        <path d="M76.4175812,10.3283945 C77.5375969,8.30889908 78.771466,6.1903211 80.0540314,4.16807339 C83.7398639,-1.64270642 98.995534,-0.399357798 103.406325,2.0316055 C104.739644,2.76715596 104.487932,3.73733945 103.373403,4.85614679 C98.572356,9.67266055 99.2582199,20.6577523 99.2582199,20.6577523 L71.137801,20.6577523 C71.137801,20.6577523 71.9045969,18.995367 73.1617853,16.4976606" id="Stroke-47" stroke-linecap="round"></path>
                        <path d="M103.40605,2.03188073 C113.008145,9.60068807 110.917631,29.6263761 110.917631,47.5162844" id="Stroke-49" stroke-linecap="round"></path>
                    </g>
                    <g id="Page-1-Copy-3" transform="translate(389.000000, 118.000000)">
                        <path d="M9.14688848,80.8004128 L4.7408623,80.8004128 C2.14270524,80.8004128 0.0369408377,78.6793119 0.0369408377,76.0632569 L4.55497384e-05,62.9494954 C4.55497384e-05,60.8632569 1.0868623,58.9302294 2.86330209,57.8568349 L9.10999319,54.0825229 L9.14688848,80.8004128 Z" id="Stroke-1" stroke-linecap="round"></path>
                        <path d="M0.0369408377,71.6261009 L9.14688848,71.6261009" id="Stroke-3" stroke-linecap="round"></path>
                        <path d="M63.8065743,68.5748165 L63.8065743,86.7124312 C63.8065743,90.7940826 60.5206162,94.1032569 56.4676005,94.1032569 L27.417344,94.1032569 C23.3647838,94.1032569 20.0788257,90.7940826 20.0788257,86.7124312 L20.0788257,68.5748165" id="Stroke-5" stroke-linecap="round"></path>
                        <path d="M64.7175691,68.4150917 L19.1678309,68.4150917 L19.9084696,57.2228899 C20.0045796,55.7770183 21.1966162,54.6536239 22.6355325,54.6536239 L61.2498675,54.6536239 C62.6883283,54.6536239 63.8808204,55.7770183 63.9764749,57.2228899 L64.7175691,68.4150917 Z" id="Stroke-7" stroke-linecap="round"></path>
                        <path d="M63.8065743,40.892156 L63.8065743,43.7554587 C63.8065743,46.7343578 61.4083806,49.1490367 58.4508361,49.1490367 L25.4345639,49.1490367 C22.4765639,49.1490367 20.0788257,46.7343578 20.0788257,43.7554587 L20.0788257,40.892156" id="Stroke-9" stroke-linecap="round"></path>
                        <path d="M64.7175691,40.892156 L19.1678309,40.892156 L19.9084696,29.6999541 C20.0045796,28.2540826 21.1966162,27.1306881 22.6355325,27.1306881 L61.2498675,27.1306881 C62.6883283,27.1306881 63.8808204,28.2540826 63.9764749,29.6999541 L64.7175691,40.892156 Z" id="Stroke-11" stroke-linecap="round"></path>
                        <path d="M0,62.8704128 L5.0104712,62.8704128" id="Stroke-13" stroke-linecap="round"></path>
                        <path d="M74.7385115,71.6261009 L83.8484592,71.6261009" id="Stroke-15" stroke-linecap="round"></path>
                        <path d="M74.7015707,65.6227064 L83.8115183,65.6227064" id="Stroke-17" stroke-linecap="round"></path>
                        <path d="M32.9386099,6.89522936 C32.1934162,5.54614679 31.3726099,4.13009174 30.5185524,2.7787156 C28.0702539,-1.09513761 17.9386257,-0.266238532 15.0097775,1.35440367 C14.1238351,1.84477064 14.2910026,2.49155963 15.0316414,3.23743119 C18.220123,6.44844037 17.7646257,13.7718349 17.7646257,13.7718349 L36.4400183,13.7718349 C36.4400183,13.7718349 35.9394267,12.6823853 35.1167984,11.0411009" id="Stroke-19" stroke-linecap="round"></path>
                        <path d="M60.0104592,13.7717431 L65.9660874,13.7717431 C70.0655639,13.7717431 74.5836424,29.3841284 74.5836424,43.1455963 L74.5836424,81.2189908 C74.5836424,92.6868807 65.5105901,99.6079817 54.1231555,99.6079817 L29.6073754,99.6079817 C18.2199408,99.6079817 9.14688848,92.6868807 9.14688848,81.2189908 L9.14688848,43.1455963 C9.14688848,29.3841284 13.664967,13.7717431 17.7644435,13.7717431 L23.7196162,13.7717431 L60.0104592,13.7717431 Z" id="Stroke-21" stroke-linecap="round"></path>
                        <path d="M9.14688848,75.4850917 L20.0788257,75.4850917" id="Stroke-23" stroke-linecap="round"></path>
                        <path d="M63.7696335,75.7144495 L74.7015707,75.7144495" id="Stroke-25" stroke-linecap="round"></path>
                        <polyline id="Stroke-27" stroke-linecap="round" points="74.7385115 48.6903211 81.7139984 48.6903211 81.7139984 53.0930734 74.7385115 53.0930734"></polyline>
                        <path d="M74.7385115,53.0931651 L81.6611607,53.0931651 C82.5584906,53.0931651 83.2859199,53.8257339 83.2859199,54.7294037 L83.2859199,59.2023394" id="Stroke-29" stroke-linecap="round"></path>
                        <path d="M81.5122131,49.7159633 C87.4969932,47.2044954 88.488611,54.1861468 82.8367995,54.569633" id="Stroke-31"></path>
                        <path d="M74.7385115,54.1949083 L83.8484592,59.6288532 L83.8484592,76.8215138 C83.8484592,79.0187615 82.0793073,80.8004128 79.8970194,80.8004128 L74.7385115,80.8004128 L74.7385115,54.1949083 Z" id="Stroke-33" stroke-linecap="round"></path>
                        <path d="M31.6165743,9.20068807 L29.1204487,13.5584862" id="Stroke-35" stroke-linecap="round"></path>
                        <path d="M54.6098545,13.5584862 L52.1141843,9.20068807" id="Stroke-37" stroke-linecap="round"></path>
                        <path d="M36.1715482,9.20068807 L33.6754225,13.5584862" id="Stroke-39" stroke-linecap="round"></path>
                        <path d="M50.0548806,13.5584862 L47.5592105,9.20068807" id="Stroke-41" stroke-linecap="round"></path>
                        <polygon id="Stroke-43" stroke-linecap="round" points="52.1139565 9.20068807 31.6165743 9.20068807 33.7209723 5.5309633 50.0095586 5.5309633"></polygon>
                        <path d="M15.0095953,1.35458716 C8.63263194,6.40045872 10.020988,19.7509174 10.020988,31.6775229" id="Stroke-45" stroke-linecap="round"></path>
                        <path d="M50.7506073,6.88559633 C51.4944346,5.53926606 52.3138743,4.12688073 53.1656545,2.7787156 C55.6134974,-1.09513761 65.7451257,-0.266238532 68.6744293,1.35440367 C69.5599162,1.84477064 69.3927487,2.49155963 68.6525654,3.23743119 C65.4640838,6.44844037 65.9195812,13.7718349 65.9195812,13.7718349 L47.2441885,13.7718349 C47.2441885,13.7718349 47.7534346,12.663578 48.5883613,10.9984404" id="Stroke-47" stroke-linecap="round"></path>
                        <path d="M68.6742471,1.35458716 C75.0512105,6.40045872 73.6628545,19.7509174 73.6628545,31.6775229" id="Stroke-49" stroke-linecap="round"></path>
                    </g>
                </g>
            </g>
        </g>
    </g>
</svg>