<?xml version="1.0" encoding="UTF-8" standalone="no"?>
<svg width="502px" height="278px" viewBox="0 0 502 278" version="1.1" xmlns="http://www.w3.org/2000/svg" xmlns:xlink="http://www.w3.org/1999/xlink">
    <!-- Generator: Sketch 41.1 (35376) - http://www.bohemiancoding.com/sketch -->
    <title>Group 25</title>
    <desc>Created with Sketch.</desc>
    <defs></defs>
    <g id="Page-1" stroke="none" stroke-width="1" fill="none" fill-rule="evenodd">
        <g id="build-your-bag" transform="translate(-778.000000, -1734.000000)" stroke="#626262" stroke-width="2">
            <g id="Group-25" transform="translate(779.000000, 1735.000000)">
                <g id="Page-1" transform="translate(405.000000, 98.000000)" stroke-linejoin="round">
                    <polygon id="Stroke-1" stroke-linecap="round" points="94.525245 175.467197 58.4269888 177.020004 47.781992 55.901054 36.612432 177.020004 1.03873896 175.467197 7.27117269 10.8696494 88.2928113 10.8696494"></polygon>
                    <path d="M22.852257,10.8696494 L22.852257,22.1461342 C22.852257,29.1461884 17.1589288,34.8211806 10.1339373,34.8211806 L6.33111394,34.8211806" id="Stroke-3" stroke-linecap="round"></path>
                    <path d="M71.7713565,10.8696494 L71.7713565,22.1461342 C71.7713565,29.1461884 77.4646848,34.8211806 84.4886376,34.8211806 L88.2924996,34.8211806" id="Stroke-5" stroke-linecap="round"></path>
                    <path d="M94.525245,163.044741 L58.4269888,164.597548" id="Stroke-7"></path>
                    <path d="M0.776976739,163.044741 L36.8752329,164.597548" id="Stroke-9"></path>
                    <polyline id="Stroke-11" stroke-linecap="round" points="43.5032185 10.7660254 43.5032185 35.7144587 50.8980011 35.7144587"></polyline>
                    <polyline id="Stroke-13" stroke-linecap="round" points="7.27117269 10.8696494 7.27117269 0 88.2928113 0 88.2928113 10.8696494"></polyline>
                </g>
                <g id="Page-1" transform="translate(0.000000, 5.000000)" stroke-linecap="round" stroke-linejoin="round">
                    <path d="M155.711687,53.2870813 C158.602886,40.0685805 159.015914,40.0685805 159.015914,28.9154705 C159.015914,8.9497512 143.876773,0 129.277873,0 C114.678973,0 99.539832,8.9497512 99.539832,28.9154705 C99.539832,40.0685805 99.9528603,40.0685805 102.844059,53.2870813" id="Stroke-1"></path>
                    <polyline id="Stroke-3" points="156.124716 62.3748006 173.471906 62.3748006 173.471906 173.905901 85.0838398 173.905901 85.0838398 62.3748006 102.43103 62.3748006"></polyline>
                    <path d="M129.277873,78.8979266 L129.277873,173.905901" id="Stroke-5"></path>
                    <path d="M85.0838398,62.3748006 C74.3451027,62.3748006 71.0408759,67.3317384 59.4760822,78.8979266 C47.9112884,90.4641148 18.1732473,125.988836 8.26056697,135.902711 L25.1947293,152.838915 L84.6708114,97.4864434" id="Stroke-7"></path>
                    <path d="M106.3548,125.988836 C106.3548,125.988836 98.0942328,138.38118 89.0076091,145.816587" id="Stroke-9"></path>
                    <path d="M152.200946,126.401914 C152.200946,126.401914 160.461513,138.794258 169.548137,146.229665" id="Stroke-11"></path>
                    <path d="M129.277873,78.8979266 L129.277873,53.2870813 L102.844059,53.2870813 L102.844059,62.3748006 C102.844059,62.3748006 113.582796,84.6810207 128.864845,84.6810207 C144.146894,84.6810207 155.711687,62.3748006 155.711687,62.3748006 L155.711687,53.2870813 L129.277873,53.2870813 L129.277873,78.8979266" id="Stroke-13"></path>
                    <path d="M113.320605,53.2741933 L112.165778,52.1192268 C109.73965,49.6936319 108.376656,46.4030514 108.376656,42.9711981 L108.376656,40.068911 L108.376656,36.7642858 L108.376656,28.752222 C108.376656,17.2075139 118.148081,12.8057531 129.690571,12.8057531 C141.233887,12.8057531 150.179255,17.2075139 150.179255,28.752222 L150.179255,36.7642858 L150.179255,40.068911 L150.179255,42.9711981 C150.179255,46.4030514 148.816262,49.6936319 146.390133,52.1192268 L145.304695,53.2056223" id="Stroke-15"></path>
                    <path d="M143.733865,97.8995215 L164.385283,97.8995215" id="Stroke-17"></path>
                    <path id="Stroke-19"></path>
                    <path id="Stroke-21"></path>
                    <path id="Stroke-23"></path>
                    <path d="M94.1704635,97.8995215 L114.821881,97.8995215" id="Stroke-25"></path>
                    <polygon id="Stroke-27" points="8.26056697 135.902711 25.1947293 152.838915 16.9341623 161.100478 0 144.164274"></polygon>
                    <path d="M173.471906,62.3748006 C184.210643,62.3748006 187.51487,67.3317384 199.079664,78.8979266 C210.644458,90.4641148 240.382499,125.988836 250.295179,135.902711 L233.361017,152.838915 L173.884935,97.4864434" id="Stroke-29"></path>
                    <polygon id="Stroke-31" points="250.295179 135.902711 233.361017 152.838915 241.621584 161.100478 258.555746 144.164274"></polygon>
                    <path d="M89.2141233,156.556619 L100.741744,156.556619 C107.606276,156.556619 113.169767,150.99163 113.169767,144.127923 L113.169767,128.467305" id="Stroke-33"></path>
                    <path d="M169.548137,156.556619 L158.020516,156.556619 C151.155985,156.556619 145.592493,150.99163 145.592493,144.127923 L145.592493,128.467305" id="Stroke-35"></path>
                    <polyline id="Stroke-37" points="85.0838398 173.905901 85.0838398 187.950558 173.471906 187.950558 173.471906 173.905901"></polyline>
                    <path d="M109.039484,27.676236 C117.300051,22.7192982 122.256391,22.7192982 129.690901,22.7192982 C137.125412,22.7192982 145.385979,23.5454545 149.516262,27.676236" id="Stroke-39"></path>
                </g>
                <g id="Page-1" transform="translate(191.000000, 190.000000)" stroke-linecap="round" stroke-linejoin="round">
                    <path d="M23.0302198,10.0172414 L23.0302198,20.4094138 C23.0302198,26.8605172 17.7706933,32.0904713 11.2809693,32.0904713 L7.76790121,32.0904713" id="Stroke-1"></path>
                    <path d="M68.2219403,10.0172414 L68.2219403,20.4094138 C68.2219403,26.8605172 73.4814667,32.0904713 79.9702311,32.0904713 L83.4842588,32.0904713" id="Stroke-3"></path>
                    <polyline id="Stroke-5" points="42.1076862 9.92174368 42.1076862 32.9136977 48.9390251 32.9136977"></polyline>
                    <polyline id="Stroke-7" points="8.63633242 10.0172414 8.63633242 0 83.4845467 0 83.4845467 10.0172414"></polyline>
                    <polyline id="Stroke-9" points="6.11836172 76.3441632 5.8659889 83.0003816 43.1499955 83.0003816 46.0604396 51.517623 48.8346215 83.0003816 86.2548902 83.0003816 86.0370627 77.2657494"></polyline>
                    <polyline id="Stroke-11" points="84.6793353 41.499523 83.4846427 10.0167644 8.63642838 10.0167644 7.44173573 41.500477"></polyline>
                    <path d="M3.71746131,74.7655414 L5.51765682,76.3215529 C11.2147574,76.3215529 15.8332761,71.7298402 15.8332761,66.0658057 L15.8332761,54.3790241 L2.87877747,54.3790241 L0.809896062,66.7202655 C0.306110005,69.7225759 1.40772218,72.7687713 3.71746131,74.7655414 Z" id="Stroke-13"></path>
                    <path d="M10.6642392,41.5 L4.31845409,41.5 L0.000287877748,54.3793103 L15.833564,54.3793103 L15.833564,46.6393218 C15.833564,43.8011034 13.5190269,41.5 10.6642392,41.5 Z" id="Stroke-15"></path>
                    <path d="M88.4034178,74.7655414 L86.6032223,76.3215529 C80.9061217,76.3215529 76.287603,71.7298402 76.287603,66.0658057 L76.287603,54.3790241 L89.2421016,54.3790241 L91.3109831,66.7202655 C91.8147691,69.7225759 90.7131569,72.7687713 88.4034178,74.7655414 Z" id="Stroke-17"></path>
                    <path d="M81.4566399,41.5 L87.802425,41.5 L92.1205912,54.3793103 L76.2873151,54.3793103 L76.2873151,46.6393218 C76.2873151,43.8011034 78.6018522,41.5 81.4566399,41.5 Z" id="Stroke-19"></path>
                </g>
                <g id="Page-1" transform="translate(233.000000, 69.000000)" stroke-linecap="round" stroke-linejoin="round">
                    <path d="M70.3316638,19.2086479 L70.3316638,7.20324295 L0,7.20324295 L0,19.2086479 C13.8255362,19.2086479 25.0333041,30.4961296 25.0333041,44.4199982 L45.2983597,44.4199982 C45.2983597,30.4961296 56.5061276,19.2086479 70.3316638,19.2086479 Z" id="Stroke-1"></path>
                    <polyline id="Stroke-3" points="30.9936145 7.20324295 30.9936145 25.2113503 36.953925 25.2113503"></polyline>
                    <polyline id="Stroke-5" points="0 7.20324295 0 0 70.3316638 0 70.3316638 7.20324295"></polyline>
                    <path d="M15.4968073,7.20324295 L15.4968073,24.6278876" id="Stroke-7"></path>
                    <path d="M54.8348565,7.20324295 L54.8348565,24.6278876" id="Stroke-9"></path>
                </g>
                <g id="Page-1" transform="translate(91.000000, 219.186047)" stroke-linecap="round" stroke-linejoin="round">
                    <path d="M31.0065116,9.30232558 L75.3488372,9.30232558 C77.9181395,9.30232558 80,11.3851163 80,13.9534884 C80,16.5218605 77.9181395,18.6046512 75.3488372,18.6046512 L31.627907,18.6046512 C26.4911628,18.6046512 22.3255814,14.44 22.3255814,9.30232558 C22.3255814,4.16465116 26.4911628,0 31.627907,0 L75.3488372,0 C77.9181395,0 80,2.0827907 80,4.65116279 C80,7.21953488 77.9181395,9.30232558 75.3488372,9.30232558 L31.0027907,9.30232558" id="Stroke-1"></path>
                    <path d="M30.6976744,18.6046512 L9.30232558,18.6046512 C4.1655814,18.6046512 1.05755198e-13,14.44 1.05755198e-13,9.30232558 C1.05755198e-13,4.16465116 4.1655814,0 9.30232558,0 L30.6976744,0" id="Stroke-3"></path>
                    <path d="M31.0065116,27.9069767 L75.3488372,27.9069767 C77.9181395,27.9069767 80,29.9897674 80,32.5581395 C80,35.1265116 77.9181395,37.2093023 75.3488372,37.2093023 L31.627907,37.2093023 C26.4911628,37.2093023 22.3255814,33.0446512 22.3255814,27.9069767 C22.3255814,22.7693023 26.4911628,18.6046512 31.627907,18.6046512 L75.3488372,18.6046512 C77.9181395,18.6046512 80,20.6874419 80,23.255814 C80,25.824186 77.9181395,27.9069767 75.3488372,27.9069767 L31.0027907,27.9069767" id="Stroke-5"></path>
                    <path d="M30.6976744,37.2093023 L9.30232558,37.2093023 C4.1655814,37.2093023 1.05755198e-13,33.0446512 1.05755198e-13,27.9069767 C1.05755198e-13,22.7693023 4.1655814,18.6046512 9.30232558,18.6046512 L30.6976744,18.6046512" id="Stroke-7"></path>
                    <path d="M31.0065116,46.5116279 L75.3488372,46.5116279 C77.9181395,46.5116279 80,48.5944186 80,51.1627907 C80,53.7311628 77.9181395,55.8139535 75.3488372,55.8139535 L31.627907,55.8139535 C26.4911628,55.8139535 22.3255814,51.6493023 22.3255814,46.5116279 C22.3255814,41.3739535 26.4911628,37.2093023 31.627907,37.2093023 L75.3488372,37.2093023 C77.9181395,37.2093023 80,39.292093 80,41.8604651 C80,44.4288372 77.9181395,46.5116279 75.3488372,46.5116279 L31.0027907,46.5116279" id="Stroke-9"></path>
                    <path d="M30.6976744,55.8139535 L9.30232558,55.8139535 C4.1655814,55.8139535 1.05755198e-13,51.6493023 1.05755198e-13,46.5116279 C1.05755198e-13,41.3739535 4.1655814,37.2093023 9.30232558,37.2093023 L30.6976744,37.2093023" id="Stroke-11"></path>
                </g>
                <g id="Page-1-Copy" transform="translate(413.000000, 8.000000)" stroke-linecap="round" stroke-linejoin="round">
                    <path d="M31.0065116,9.30232558 L75.3488372,9.30232558 C77.9181395,9.30232558 80,11.3851163 80,13.9534884 C80,16.5218605 77.9181395,18.6046512 75.3488372,18.6046512 L31.627907,18.6046512 C26.4911628,18.6046512 22.3255814,14.44 22.3255814,9.30232558 C22.3255814,4.16465116 26.4911628,0 31.627907,0 L75.3488372,0 C77.9181395,0 80,2.0827907 80,4.65116279 C80,7.21953488 77.9181395,9.30232558 75.3488372,9.30232558 L31.0027907,9.30232558" id="Stroke-1"></path>
                    <path d="M30.6976744,18.6046512 L9.30232558,18.6046512 C4.1655814,18.6046512 0,14.44 0,9.30232558 C0,4.16465116 4.1655814,0 9.30232558,0 L30.6976744,0" id="Stroke-3"></path>
                    <path d="M31.0065116,27.9069767 L75.3488372,27.9069767 C77.9181395,27.9069767 80,29.9897674 80,32.5581395 C80,35.1265116 77.9181395,37.2093023 75.3488372,37.2093023 L31.627907,37.2093023 C26.4911628,37.2093023 22.3255814,33.0446512 22.3255814,27.9069767 C22.3255814,22.7693023 26.4911628,18.6046512 31.627907,18.6046512 L75.3488372,18.6046512 C77.9181395,18.6046512 80,20.6874419 80,23.255814 C80,25.824186 77.9181395,27.9069767 75.3488372,27.9069767 L31.0027907,27.9069767" id="Stroke-5"></path>
                    <path d="M30.6976744,37.2093023 L9.30232558,37.2093023 C4.1655814,37.2093023 0,33.0446512 0,27.9069767 C0,22.7693023 4.1655814,18.6046512 9.30232558,18.6046512 L30.6976744,18.6046512" id="Stroke-7"></path>
                    <path d="M31.0065116,46.5116279 L75.3488372,46.5116279 C77.9181395,46.5116279 80,48.5944186 80,51.1627907 C80,53.7311628 77.9181395,55.8139535 75.3488372,55.8139535 L31.627907,55.8139535 C26.4911628,55.8139535 22.3255814,51.6493023 22.3255814,46.5116279 C22.3255814,41.3739535 26.4911628,37.2093023 31.627907,37.2093023 L75.3488372,37.2093023 C77.9181395,37.2093023 80,39.292093 80,41.8604651 C80,44.4288372 77.9181395,46.5116279 75.3488372,46.5116279 L31.0027907,46.5116279" id="Stroke-9"></path>
                    <path d="M30.6976744,55.8139535 L9.30232558,55.8139535 C4.1655814,55.8139535 0,51.6493023 0,46.5116279 C0,41.3739535 4.1655814,37.2093023 9.30232558,37.2093023 L30.6976744,37.2093023" id="Stroke-11"></path>
                </g>
                <g id="Page-1" transform="translate(328.000000, 4.000000)">
                    <path d="M47.1635635,4.7799559 L47.1635635,1.59363726 C47.1635635,0.713416742 46.4491851,0.000477947795 45.5689689,0.000477947795 L29.2466986,0.000477947795 C28.3664824,0.000477947795 27.6521041,0.713416742 27.6521041,1.59363726 L27.6521041,37.310676 C27.6521041,38.8879037 24.165523,41.7213375 17.2186716,47.341207 C11.2891716,52.1382097 3.72282027,56.8181152 2.12423919,58.8239028 C-0.359341892,61.940919 -1.36473378,67.5767201 3.05149595,71.9897714 C5.81173919,74.7467336 8.74021216,75.6747489 11.5889554,75.3178812" id="Stroke-1"></path>
                    <path d="M5.10613108,56.0764995 C8.47152297,56.9160945 11.7619689,58.9832187 14.4066041,61.855685" id="Stroke-3"></path>
                    <path d="M27.652423,6.94490009 L38.3936122,6.94490009" id="Stroke-5" stroke-linejoin="round"></path>
                    <path d="M27.652423,13.1016643 L37.9072608,13.1016643" id="Stroke-7" stroke-linejoin="round"></path>
                    <path d="M27.652423,19.2580302 L37.9072608,19.2580302" id="Stroke-9" stroke-linejoin="round"></path>
                    <path d="M57.5284284,38.9998231 L57.5284284,6.37271692 C57.5284284,5.49329298 56.81405,4.77955761 55.9338338,4.77955761 L39.6115635,4.77955761 C38.7313473,4.77955761 38.0169689,5.49329298 38.0169689,6.37271692 L38.0169689,42.0897556 C38.0169689,43.6669833 34.5303878,46.5012138 27.5835365,52.1202867 C21.6540365,56.918086 14.0876851,61.5979914 12.4891041,63.6029824 C10.005523,66.7207952 9.00013108,72.3565963 13.4163608,76.768851 C17.8325905,81.1811058 22.6785635,80.9070824 26.9441041,78.1867628 C30.9608878,75.6249626 39.7168068,68.1777394 44.1322392,65.0806377 C46.2386986,63.6029824 47.5335095,63.0644946 49.5434959,63.0644946 C62.5099419,63.0644946 57.5284284,51.3515873 57.5284284,38.9998231 Z" id="Stroke-11"></path>
                    <path d="M15.4709959,60.8559775 C21.8206716,62.4403744 27.9072392,68.395604 29.8869284,75.890622" id="Stroke-13"></path>
                    <path d="M46.216773,63.2301832 C45.4553541,61.6027709 45.0303946,59.7873659 45.0303946,57.8723884 C45.0303946,50.8760293 50.7071514,45.2043821 57.7098135,45.2043821" id="Stroke-15"></path>
                    <path d="M38.0172878,11.724378 L57.5287473,11.724378" id="Stroke-17" stroke-linejoin="round"></path>
                    <path d="M38.0172878,17.8811422 L57.0423959,17.8811422" id="Stroke-19" stroke-linejoin="round"></path>
                    <path d="M38.0172878,24.0375081 L57.0423959,24.0375081" id="Stroke-21" stroke-linejoin="round"></path>
                </g>
                <g id="Page-1" transform="translate(5.000000, 192.000000)">
                    <path d="M15.3819886,9.97781591 L5.755375,9.97781591 C3.09130682,9.97781591 0.931352273,12.1368386 0.931352273,14.8009068 L0.931352273,76.2869295 C0.931352273,78.9509977 3.09130682,81.1100205 5.755375,81.1100205 L60.4251477,81.1100205 C63.0882841,81.1100205 65.2482386,78.9509977 65.2482386,76.2869295 L65.2482386,14.8009068 C65.2482386,12.1368386 63.0882841,9.97781591 60.4251477,9.97781591 L50.7985341,9.97781591" id="Stroke-1"></path>
                    <path d="M16.029975,3.26397273 C16.029975,1.91283636 24.6884295,0.81795 33.0701341,0.81795 C41.4518386,0.81795 50.1102932,1.91283636 50.1102932,3.26397273" id="Stroke-3"></path>
                    <path d="M33.2394455,22.7761523 L33.0605364,80.8302886" id="Stroke-5"></path>
                    <polygon id="Stroke-7" stroke-linejoin="round" points="33.0091932 6.93524318 50.1509205 3.22101591 51.7918523 10.0503114 33.0856023 22.7761523"></polygon>
                    <polygon id="Stroke-9" stroke-linejoin="round" points="33.0091932 6.93524318 16.0296023 3.22101591 14.3886705 10.0503114 33.0856023 22.7761523"></polygon>
                    <path d="M40.4637386,34.8897886 L58.1682841,34.8897886" id="Stroke-11" stroke-linecap="round" stroke-linejoin="round"></path>
                </g>
                <g id="Page-1" transform="translate(15.000000, 25.000000)" stroke-linecap="round" stroke-linejoin="round">
                    <path d="M5.7702,55.1714 L5.7702,2.0004 C5.7702,0.8954 6.6662,0.0004 7.7702,0.0004 L60.9422,0.0004 C62.7232,0.0004 63.6162,2.1544 62.3562,3.4144 L9.1842,56.5864 C7.9242,57.8454 5.7702,56.9534 5.7702,55.1714 Z" id="Stroke-1"></path>
                    <path d="M5.7702,55 L0.0122,7.217 C-0.1178,6.034 0.8102,5 2.0002,5 L5.7702,5" id="Stroke-3"></path>
                </g>
                <g id="Page-1" transform="translate(204.000000, 0.000000)" stroke-linejoin="round">
                    <path d="M81.6739152,10.7406247 L81.6739152,5.37031233 C81.6739152,5.37031233 80.1328979,0 67.0342512,0 C67.0342512,1.08787184 69.3457771,11.5078121 65.0139775,16.4929964 C60.7160804,21.4382868 38.5739737,25.2680867 38.5739737,25.2680867 C30.4620588,25.2680867 23.8857677,31.8160318 23.8857677,39.8929816 L23.8857677,42.8182674 L100.166122,42.8182674 L100.166122,13.8093746" id="Stroke-1"></path>
                    <path d="M100.266982,25.2677031 C91.4539043,25.2677031 82.640056,31.1175076 82.640056,42.8178838" id="Stroke-3"></path>
                    <path d="M40.8369576,25.3171867 C43.9189921,30.687499 43.1484835,42.8182674 43.1484835,42.8182674" id="Stroke-5"></path>
                    <path d="M67.6572844,11.3305918 L74.7390293,13.0421871" id="Stroke-7" stroke-linecap="round"></path>
                    <path d="M62.7731073,19.1804541 L66.2635114,24.5499992" id="Stroke-9" stroke-linecap="round"></path>
                    <path d="M58.5586562,21.4812493 L60.8701821,26.8515617" id="Stroke-11" stroke-linecap="round"></path>
                    <path d="M53.2629503,23.1099883 L54.706113,28.3859366" id="Stroke-13" stroke-linecap="round"></path>
                    <path d="M23.8857677,42.8182674 L23.8857677,49.0999985 L33.1318713,49.0999985 L35.5982694,47.1383001 C36.859592,46.1355861 38.6502541,46.1355861 39.9115767,47.1383001 L42.3779749,49.0999985 L49.3125526,49.0999985 L51.7789507,47.1383001 C53.0402734,46.1355861 54.8309354,46.1355861 56.0922581,47.1383001 L58.5586562,49.0999985 L65.4932339,49.0999985 L68.1930961,47.0385657 C69.4397791,46.0872533 71.1741941,46.0926236 72.414713,47.0516079 L75.0652627,49.0999985 L81.9112319,49.0999985 L84.3013497,47.1743579 C85.5688364,46.1532314 87.3803022,46.1532314 88.6485594,47.1743579 L91.0386771,49.0999985 L100.166122,49.0999985 L100.166122,42.8182674" id="Stroke-15"></path>
                    <path d="M65.4932339,16.110937 L71.4415606,19.4014041" id="Stroke-17" stroke-linecap="round"></path>
                    <path d="M81.6739152,10.7406247 C81.6739152,18.4124994 75.5098461,30.687499 50.0830612,32.221874 C48.5420439,26.8515617 47.5727441,23.7544258 47.5727441,23.7544258" id="Stroke-19"></path>
                    <path d="M81.6739152,6.90468729 L100.104482,6.90468729 C100.989026,6.90468729 101.70714,7.61970601 101.70714,8.50120442 L101.70714,12.2128574 C101.70714,13.0943558 100.989026,13.8093746 100.104482,13.8093746 L81.6739152,13.8093746" id="Stroke-21"></path>
                    <path d="M57.7881476,10.7406247 L57.7881476,5.37031233 C57.7881476,5.37031233 56.2471303,0 43.1484835,0 C43.1484835,1.08787184 45.4600094,11.5078121 41.1282099,16.4929964 C36.8303127,21.4382868 14.6882061,25.2680867 14.6882061,25.2680867 C6.57629119,25.2680867 0,31.8160318 0,39.8929816 L0,42.8182674 L27.9301675,42.8182674" id="Stroke-23"></path>
                    <path d="M16.9511899,25.3171867 C20.0332245,30.687499 19.2627159,42.8182674 19.2627159,42.8182674" id="Stroke-25"></path>
                    <path d="M43.7715168,11.3305918 L50.8532616,13.0421871" id="Stroke-27" stroke-linecap="round"></path>
                    <path d="M38.8873396,19.1804541 L42.3777437,24.5499992" id="Stroke-29" stroke-linecap="round"></path>
                    <path d="M34.6728885,21.4812493 L36.3741716,25.4337992" id="Stroke-31" stroke-linecap="round"></path>
                    <path d="M29.3771827,23.1099883 L30.607685,27.6072413" id="Stroke-33" stroke-linecap="round"></path>
                    <path d="M0,42.8182674 L0,49.0999985 L9.24610361,49.0999985 L11.7125017,47.1383001 C12.9738244,46.1355861 14.7644864,46.1355861 16.0258091,47.1383001 L18.4922072,49.0999985 L25.4267849,49.0999985" id="Stroke-35"></path>
                    <path d="M41.6074662,16.110937 L47.5557929,19.4014041" id="Stroke-37" stroke-linecap="round"></path>
                    <path d="M26.1972936,32.221874 C24.6562763,26.8515617 23.6869764,23.7544258 23.6869764,23.7544258" id="Stroke-39"></path>
                    <path d="M57.7881476,10.7406247 C57.7881476,14.0602449 56.6339256,18.2414166 53.2652619,22.0412962" id="Stroke-41"></path>
                    <path d="M66.5986056,13.8093746 L57.7878394,13.8093746" id="Stroke-43"></path>
                    <path d="M57.7881476,6.90468729 L67.6506581,6.90468729" id="Stroke-45"></path>
                </g>
                <g id="Group-10-Copy" transform="translate(364.664179, 133.500000) scale(-1, 1) translate(-364.664179, -133.500000) translate(346.000000, 103.000000)" stroke-linejoin="round">
                    <path d="M13.4251113,0 L13.4251113,0 C20.839702,0 26.8502226,6.08607609 26.8502226,13.5923913 L26.8502226,29.69175 L28.2464341,24.99475 C29.1468989,21.9672935 32.6079581,19.5458587 35.2916706,21.1623587 C37.5844176,22.5434783 36.7874245,24.797163 36.2746507,26.5217391 C36.2746507,26.5217391 32.4881144,36.4673913 31.4344069,39.7826087 C30.3806994,43.0978261 29.7258159,48.4021739 23.6851707,49.7282609 L23.6851707,61 L3.27441739,61 L3.27441739,49.7282609 L2.61953391,49.6321196 C0.654883477,48.4021739 0,43.0978261 0,32.4891304 L0,13.5923913 C0,6.08541304 6.01052056,0 13.4251113,0 Z" id="Stroke-1"></path>
                    <path d="M2.61953391,49.7282609 L23.5758052,49.7282609" id="Stroke-3"></path>
                    <path d="M15.4486357,49.7282609 L15.4486357,55.6956522" id="Stroke-5" stroke-linecap="round"></path>
                    <path d="M19.6394971,49.7282609 L19.6394971,55.6956522" id="Stroke-7" stroke-linecap="round"></path>
                    <path d="M11.257447,49.7282609 L11.257447,55.6956522" id="Stroke-9" stroke-linecap="round"></path>
                    <path d="M7.06652016,49.7282609 L7.06652016,55.6956522" id="Stroke-11" stroke-linecap="round"></path>
                </g>
                <g id="Group-10-Copy-2" transform="translate(301.000000, 104.000000)" stroke-linejoin="round">
                    <path d="M13.4251113,0 L13.4251113,0 C20.839702,0 26.8502226,6.08607609 26.8502226,13.5923913 L26.8502226,29.69175 L28.2464341,24.99475 C29.1468989,21.9672935 32.6079581,19.5458587 35.2916706,21.1623587 C37.5844176,22.5434783 36.7874245,24.797163 36.2746507,26.5217391 C36.2746507,26.5217391 32.4881144,36.4673913 31.4344069,39.7826087 C30.3806994,43.0978261 29.7258159,48.4021739 23.6851707,49.7282609 L23.6851707,61 L3.27441739,61 L3.27441739,49.7282609 L2.61953391,49.6321196 C0.654883477,48.4021739 0,43.0978261 0,32.4891304 L0,13.5923913 C0,6.08541304 6.01052056,0 13.4251113,0 Z" id="Stroke-1"></path>
                    <path d="M2.61953391,49.7282609 L23.5758052,49.7282609" id="Stroke-3"></path>
                    <path d="M15.4486357,49.7282609 L15.4486357,55.6956522" id="Stroke-5" stroke-linecap="round"></path>
                    <path d="M19.6394971,49.7282609 L19.6394971,55.6956522" id="Stroke-7" stroke-linecap="round"></path>
                    <path d="M11.257447,49.7282609 L11.257447,55.6956522" id="Stroke-9" stroke-linecap="round"></path>
                    <path d="M7.06652016,49.7282609 L7.06652016,55.6956522" id="Stroke-11" stroke-linecap="round"></path>
                </g>
                <g id="Page-1" transform="translate(304.000000, 187.000000)" stroke-linecap="round" stroke-linejoin="round">
                    <path d="M69.552002,16.0152636 C69.552002,25.8715144 61.5626733,33.8608431 51.7064225,33.8608431 C41.8501717,33.8608431 33.8608431,25.8715144 33.8608431,16.0152636" id="Stroke-1"></path>
                    <path d="M64.0610544,16.0152636 C64.0610544,22.8386811 58.52984,28.3698955 51.7064225,28.3698955 C44.883005,28.3698955 39.3517906,22.8386811 39.3517906,16.0152636" id="Stroke-3"></path>
                    <path d="M51.2488435,33.8608431 L51.2488435,50.3336856" id="Stroke-5"></path>
                    <path d="M79.6187391,86.9400024 L22.878948,86.9400024 C19.8470298,86.9400024 17.3880005,84.4809731 17.3880005,81.4490549 L17.3880005,21.0486322 C17.3880005,18.016714 19.8470298,15.5576846 22.878948,15.5576846 L79.6187391,15.5576846 C82.6506573,15.5576846 85.1096866,18.016714 85.1096866,21.0486322 L85.1096866,81.4490549 C85.1096866,84.4809731 82.6506573,86.9400024 79.6187391,86.9400024 Z" id="Stroke-7"></path>
                    <path d="M17.3880005,78.7035812 L13.7273688,78.7035812 C10.6954506,78.7035812 8.23642128,76.2445518 8.23642128,73.2126336 L8.23642128,12.8122109 C8.23642128,9.7802927 10.6954506,7.32126336 13.7273688,7.32126336 L70.4671599,7.32126336 C73.4990781,7.32126336 75.9581074,9.7802927 75.9581074,12.8122109 L75.9581074,15.5576846" id="Stroke-9"></path>
                    <path d="M8.23642128,71.3823178 L5.49094752,71.3823178 C2.45902933,71.3823178 0,68.9232885 0,65.8913703 L0,5.49094752 C0,2.45902933 2.45902933,0 5.49094752,0 L62.2307386,0 C65.2626568,0 67.7216861,2.45902933 67.7216861,5.49094752 L67.7216861,7.32126336" id="Stroke-11"></path>
                </g>
            </g>
        </g>
    </g>
</svg>