<?xml version="1.0" encoding="UTF-8" standalone="no"?>
<svg width="508px" height="295px" viewBox="0 0 508 295" version="1.1" xmlns="http://www.w3.org/2000/svg" xmlns:xlink="http://www.w3.org/1999/xlink">
    <!-- Generator: Sketch 41.1 (35376) - http://www.bohemiancoding.com/sketch -->
    <title>Group 17</title>
    <desc>Created with Sketch.</desc>
    <defs></defs>
    <g id="Page-1" stroke="none" stroke-width="1" fill="none" fill-rule="evenodd">
        <g id="build-your-bag" transform="translate(-155.000000, -2291.000000)" stroke="#626262" stroke-width="2">
            <g id="Group-17" transform="translate(156.000000, 2292.000000)">
                <g id="Page-1" transform="translate(425.458466, 94.078275) rotate(-270.000000) translate(-425.458466, -94.078275) translate(355.718850, 14.041534)" stroke-linecap="round" stroke-linejoin="round">
                    <polygon id="Stroke-1" points="136.670927 160.073482 0 160.073482 2.80830671 120.055112 0 80.0367412 2.80830671 40.0183706 0 0 136.670927 0 139.479233 40.0183706 136.670927 80.0367412 139.479233 120.055112"></polygon>
                    <path d="M12.1693291,9.36102236 C12.1693291,10.9121438 10.9121438,12.1693291 9.36102236,12.1693291 C7.80990096,12.1693291 6.55271565,10.9121438 6.55271565,9.36102236 C6.55271565,7.80990096 7.80990096,6.55271565 9.36102236,6.55271565 C10.9121438,6.55271565 12.1693291,7.80990096 12.1693291,9.36102236 Z" id="Stroke-3"></path>
                    <path d="M130.118211,9.36102236 C130.118211,10.9121438 128.861026,12.1693291 127.309904,12.1693291 C125.758783,12.1693291 124.501597,10.9121438 124.501597,9.36102236 C124.501597,7.80990096 125.758783,6.55271565 127.309904,6.55271565 C128.861026,6.55271565 130.118211,7.80990096 130.118211,9.36102236 Z" id="Stroke-5"></path>
                    <path d="M12.1693291,149.776358 C12.1693291,151.327479 10.9121438,152.584665 9.36102236,152.584665 C7.80990096,152.584665 6.55271565,151.327479 6.55271565,149.776358 C6.55271565,148.225236 7.80990096,146.968051 9.36102236,146.968051 C10.9121438,146.968051 12.1693291,148.225236 12.1693291,149.776358 Z" id="Stroke-7"></path>
                    <path d="M130.118211,149.776358 C130.118211,151.327479 128.861026,152.584665 127.309904,152.584665 C125.758783,152.584665 124.501597,151.327479 124.501597,149.776358 C124.501597,148.225236 125.758783,146.968051 127.309904,146.968051 C128.861026,146.968051 130.118211,148.225236 130.118211,149.776358 Z" id="Stroke-9"></path>
                    <polyline id="Stroke-11" points="45.5572875 8.42492013 48.3655942 40.0183706 45.5572875 80.0367412 48.3655942 120.055112 45.5572875 151.648562"></polyline>
                    <polyline id="Stroke-13" points="91.1145751 8.42492013 93.9228818 40.0183706 91.1145751 80.0367412 93.9228818 120.055112 91.1145751 151.648562"></polyline>
                    <path d="M130.118211,80.0367412 L6.55271565,80.0367412" id="Stroke-15"></path>
                    <path d="M132.926518,40.0183706 L9.36102236,40.0183706" id="Stroke-17"></path>
                    <path d="M132.926518,120.055112 L9.36102236,120.055112" id="Stroke-19"></path>
                </g>
                <g id="Page-1" transform="translate(63.654952, 198.453674)" stroke-linecap="round" stroke-linejoin="round">
                    <path d="M110.203278,87.9936102 L91.8360648,87.9936102 C90.0242704,87.9936102 88.5562053,86.5233289 88.5562053,84.7102666 L88.5562053,3.28334367 C88.5562053,1.47028129 90.0242704,0 91.8360648,0 L110.203278,0 C112.015072,0 113.483137,1.47028129 113.483137,3.28334367 L113.483137,84.7102666 C113.483137,86.5233289 112.015072,87.9936102 110.203278,87.9936102 Z" id="Stroke-1"></path>
                    <path d="M85.2763459,87.9936102 L66.9091329,87.9936102 C65.0973386,87.9936102 63.6292735,86.5233289 63.6292735,84.7102666 L63.6292735,3.28334367 C63.6292735,1.47028129 65.0973386,0 66.9091329,0 L85.2763459,0 C87.0881402,0 88.5562053,1.47028129 88.5562053,3.28334367 L88.5562053,84.7102666 C88.5562053,86.5233289 87.0881402,87.9936102 85.2763459,87.9936102 Z" id="Stroke-3"></path>
                    <path d="M59.8407734,87.0461029 L52.4486262,85.1975804 C45.3975843,83.4337682 38.2488026,82.1210874 31.0836217,80.9016536 C13.4366658,77.8980508 -0.000262388757,62.5182124 -0.000262388757,43.9968708 C-0.000262388757,25.4748725 13.4366658,10.0950341 31.0836217,7.09208798 C38.2488026,5.87265415 45.3975843,4.55997335 52.4486262,2.79616113 L59.8407734,0.947638649 C61.7653949,0.466300467 63.6290111,1.92344839 63.6290111,3.90921463 L63.6290111,84.0845269 C63.6290111,86.0702932 61.7653949,87.5274411 59.8407734,87.0461029 Z" id="Stroke-5"></path>
                    <path d="M43.0219165,71.3752289 L36.8380695,71.3752289 C21.7336607,71.3752289 9.48863341,59.1171937 9.48863341,43.9967394 C9.48863341,28.8762852 21.7336607,16.61825 36.8380695,16.61825 L43.0219165,16.61825 C50.3956965,16.61825 56.3735684,22.6024721 56.3735684,29.9840854 L56.3735684,58.0093935 C56.3735684,65.3916634 50.3956965,71.3752289 43.0219165,71.3752289 Z" id="Stroke-7"></path>
                    <path d="M238.117797,13.3712857 L238.117797,74.6220618 C238.117797,76.5369078 239.747887,78.0459326 241.655453,77.8955554 L244.90973,77.638798 C255.147483,76.8324088 263.044728,68.2806119 263.044728,57.9998062 L263.044728,29.9935414 C263.044728,19.7133924 255.147483,11.1609388 244.90973,10.3545496 L241.655453,10.0984488 C239.747887,9.94807164 238.117797,11.4564397 238.117797,13.3712857 Z" id="Stroke-9"></path>
                    <path d="M216.728259,79.8593233 L235.095472,78.4120254 C236.801655,78.278065 238.117534,76.8524372 238.117534,75.1391884 L238.117534,12.8548158 C238.117534,11.1415671 236.801655,9.71593924 235.095472,9.58132215 L216.728259,8.13402426 C214.821348,7.98364712 213.190602,9.49267187 213.190602,11.4075179 L213.190602,76.5864863 C213.190602,78.5013324 214.821348,80.0097004 216.728259,79.8593233 Z" id="Stroke-11"></path>
                    <path d="M188.263933,9.44348738 L188.263933,78.5499915 C188.263933,80.4648375 189.894023,81.9738623 191.801589,81.8234851 L210.168802,80.3761873 C211.874329,80.2415702 213.190865,78.816599 213.190865,77.1026936 L213.190865,10.8907853 C213.190865,9.17753655 211.874329,7.75190873 210.168802,7.61729164 L191.801589,6.17065042 C189.894023,6.02027328 188.263933,7.52864136 188.263933,9.44348738 Z" id="Stroke-13"></path>
                    <path d="M163.337001,7.47985087 L163.337001,80.5138907 C163.337001,82.4287367 164.967091,83.9371048 166.874657,83.7873843 L185.24187,82.3400864 C186.947397,82.2054693 188.263933,80.7804982 188.263933,79.0665928 L188.263933,8.92714876 C188.263933,7.21324336 186.947397,5.78761555 185.24187,5.65365512 L166.874657,4.20635724 C164.967091,4.05663677 163.337001,5.56434818 163.337001,7.47985087 Z" id="Stroke-15"></path>
                    <path d="M138.410069,5.51595169 L138.410069,82.4775272 C138.410069,84.3930299 140.040159,85.901398 141.947725,85.7510208 L160.314938,84.3037229 C162.020465,84.1691059 163.337001,82.7441347 163.337001,81.030886 L163.337001,6.96324958 C163.337001,5.24934418 162.020465,3.82437303 160.314938,3.68975594 L141.947725,2.24245806 C140.040159,2.09273759 138.410069,3.600449 138.410069,5.51595169 Z" id="Stroke-17"></path>
                    <path d="M135.387744,1.72565976 L117.020531,0.278361876 C115.113621,0.128641405 113.482875,1.63700948 113.482875,3.55185551 L113.482875,84.4416234 C113.482875,86.3564694 115.113621,87.8648375 117.020531,87.715117 L135.387744,86.2678191 C137.093927,86.133202 138.409807,84.7082309 138.409807,82.9943255 L138.409807,4.9991534 C138.409807,3.285248 137.093927,1.86027685 135.387744,1.72565976 Z" id="Stroke-19"></path>
                </g>
                <g id="Group-6-Copy" transform="translate(21.062300, 242.918530) rotate(-270.000000) translate(-21.062300, -242.918530) translate(-29.019169, 222.792332)">
                    <g id="Page-1">
                        <g id="Group-2">
                            <path d="M75.3865991,1.36135972 L89.6215901,1.36135972 C97.7922781,1.36135972 100.162999,12.5692843 100.162999,20.5528735 C100.162999,28.5370547 96.6069179,39.2459679 89.6215901,39.2459679 L74.9740937,39.2459679" id="Stroke-3" stroke-linecap="round" stroke-linejoin="round"></path>
                            <path d="M33.8989911,1.36135972 L66.4963974,1.36135972" id="Stroke-5" stroke-linecap="round" stroke-linejoin="round"></path>
                            <path d="M25.1864749,39.2459679 L10.5413492,39.2459679 C3.55602142,39.2459679 -5.92680116e-05,28.5370547 -5.92680116e-05,20.5528735 C-5.92680116e-05,12.5692843 2.37066119,1.36135972 10.5413492,1.36135972 L25.0086708,1.36135972" id="Stroke-7" stroke-linecap="round" stroke-linejoin="round"></path>
                            <path d="M33.4863079,22.3703284 L33.4863079,38.9987116 C33.4863079,39.652813 32.9552665,40.1826056 32.3009477,40.1826056 L26.3741465,40.1826056 C25.7198277,40.1826056 25.1887863,39.652813 25.1887863,38.9987116 L25.1887863,22.3703284" id="Stroke-9" stroke-linecap="round" stroke-linejoin="round"></path>
                            <path d="M25.1887863,15.7458495 L25.1887863,1.1839532 C25.1887863,0.529851762 25.7198277,5.9194701e-05 26.3741465,5.9194701e-05 L32.3009477,5.9194701e-05 C32.9552665,5.9194701e-05 33.4863079,0.529851762 33.4863079,1.1839532 L33.4863079,15.7458495" id="Stroke-11" stroke-linecap="round" stroke-linejoin="round"></path>
                            <path d="M66.6763943,28.1122735 L66.6763943,38.9987708 C66.6763943,39.6528722 67.2074357,40.1826648 67.8617545,40.1826648 L73.7885557,40.1826648 C74.4428745,40.1826648 74.9739159,39.6528722 74.9739159,38.9987708 L74.9739159,28.1122735" id="Stroke-13" stroke-linecap="round" stroke-linejoin="round"></path>
                            <path d="M25.1887863,27.1703082 L25.1887863,30.7415245 C25.1887863,33.0293996 27.0462458,34.8851535 29.3375471,34.8851535 C31.6288484,34.8851535 33.4863079,33.0293996 33.4863079,30.7415245 L33.4863079,27.1703082" id="Stroke-15" stroke-linecap="round" stroke-linejoin="round"></path>
                            <path d="M66.6763943,15.7458495 L66.6763943,1.1839532 C66.6763943,0.529851762 67.2074357,5.9194701e-05 67.8617545,5.9194701e-05 L73.7885557,5.9194701e-05 C74.4428745,5.9194701e-05 74.9739159,0.529851762 74.9739159,1.1839532 L74.9739159,15.7458495" id="Stroke-17" stroke-linecap="round" stroke-linejoin="round"></path>
                            <path d="M74.9739159,22.3703284 L74.9739159,30.7416429 C74.9739159,33.029518 73.1164564,34.8852719 70.8251551,34.8852719 C68.5338538,34.8852719 66.6763943,33.029518 66.6763943,30.7416429 L66.6763943,22.3703284" id="Stroke-19" stroke-linecap="round" stroke-linejoin="round"></path>
                            <path d="M2.39839862,9.54484944 C4.16577072,9.54484944 5.59887123,14.4254525 5.59887123,20.4467374 C5.59887123,26.4674303 4.16577072,31.3480334 2.39839862,31.3480334" id="Stroke-21" stroke-linecap="round" stroke-linejoin="round"></path>
                            <polygon id="Stroke-23" stroke-linecap="round" stroke-linejoin="round" points="24.0035446 22.3703284 34.6717867 22.3703284 34.6717867 15.8589113 24.0035446 15.8589113"></polygon>
                            <polygon id="Stroke-25" stroke-linecap="round" stroke-linejoin="round" points="65.4911526 22.3703284 76.1593947 22.3703284 76.1593947 15.8589113 65.4911526 15.8589113"></polygon>
                            <path d="M33.5188386,39.2164889 L66.7506258,39.2164889" id="Path-4"></path>
                        </g>
                    </g>
                </g>
                <g id="Page-1" stroke-linecap="round" stroke-linejoin="round">
                    <path d="M164.593171,-0.000187220447 C257.175555,22.8407073 305.181686,82.2270332 322.326398,171.306522 L6.85994441,171.306522 C24.0046569,82.2270332 72.0107879,22.8407073 164.593171,-0.000187220447" id="Stroke-1"></path>
                    <path d="M164.593171,-0.000187220447 C130.303746,3.42594696 74.2967495,14.8463942 24.0046569,38.8293335 C29.719561,76.5168096 19.4327335,116.488375 6.85994441,171.306522" id="Stroke-3"></path>
                    <path d="M164.593171,-0.000187220447 C198.882596,3.42594696 254.889593,14.8463942 305.181686,38.8293335 C299.466781,76.5168096 309.753609,116.488375 322.326398,171.306522" id="Stroke-5"></path>
                    <path d="M322.326398,171.306522 C296.037839,102.783838 197.739615,46.8236466 164.593171,46.8236466 C131.446727,46.8236466 33.1485035,102.783838 6.85994441,171.306522" id="Stroke-7"></path>
                    <path d="M83.4407834,171.306522 C83.4407834,113.279417 119.773719,66.238407 164.593358,66.238407 C209.412061,66.238407 245.745934,113.279417 245.745934,171.306522" id="Stroke-9"></path>
                    <path d="M164.593171,-0.000187220447 L164.593171,46.8236466" id="Stroke-11"></path>
                    <path d="M322.955365,171.129131 L327.580646,163.117032" id="Stroke-13"></path>
                    <path d="M325.845955,161.670286 L329.851537,163.983394" id="Stroke-15"></path>
                    <path d="M6.89654601,171.129131 L2.27126486,163.117032" id="Stroke-17"></path>
                    <path d="M4.00595591,161.670286 L0.000374440895,163.983394" id="Stroke-19"></path>
                    <path d="M164.593171,74.6630463 C134.29435,74.6630463 108.636724,99.9265735 99.9131872,134.798254 L229.273155,134.798254 C220.549619,99.9265735 194.891992,74.6630463 164.593171,74.6630463 Z" id="Stroke-21"></path>
                </g>
                <g id="Page-1" transform="translate(356.654952, 182.539936)" stroke-linecap="round" stroke-linejoin="round">
                    <path d="M109.390942,93.6297882 C109.390942,100.825606 120.454734,104.490446 128.701795,104.490446 C136.949791,104.490446 148.527504,102.048156 148.527504,93.6297882 L148.527504,10.8596284 C148.527504,2.44219712 136.949791,-9.36102236e-05 128.701795,-9.36102236e-05 C120.454734,-9.36102236e-05 109.390942,3.66381054 109.390942,10.8596284 L109.390942,93.6297882 Z" id="Stroke-1"></path>
                    <path d="M135.34447,91.0144121 L135.34447,94.3834441 C135.34447,95.7304952 132.645687,96.763016 128.260048,96.763016 C122.110792,96.763016 119.149901,95.6172268 119.149901,93.3724537 C119.149901,91.1276805 123.460652,89.9818914 129.608971,89.9818914 C135.757291,89.9818914 141.417901,91.6884058 141.417901,95.0565016 C141.417901,98.7615942 135.34447,100.446578 128.934042,100.446578 C120.176805,100.446578 113.752335,97.2788083 113.752335,93.3724537 C113.752335,89.4651629 120.851735,86.2983291 129.608971,86.2983291 C138.367144,86.2983291 145.546112,90.1850256 146.141473,94.0464473 C146.815466,98.4255335 145.002236,104.49054 128.701888,104.49054 L2.80830671,104.49054 C1.2571853,104.49054 0,103.233355 0,101.682233 L0,16.3406006 C0,14.7904153 1.2571853,13.5322939 2.80830671,13.5322939 L109.028764,13.5322939" id="Stroke-3"></path>
                    <path d="M110.140104,98.1786834 L8.89690288,98.1786834" id="Stroke-5"></path>
                </g>
            </g>
        </g>
    </g>
</svg>