<?xml version="1.0" encoding="UTF-8" standalone="no"?>
<svg width="445px" height="297px" viewBox="0 0 445 297" version="1.1" xmlns="http://www.w3.org/2000/svg" xmlns:xlink="http://www.w3.org/1999/xlink">
    <!-- Generator: Sketch 41.1 (35376) - http://www.bohemiancoding.com/sketch -->
    <title>Group 16</title>
    <desc>Created with Sketch.</desc>
    <defs>
        <polygon id="path-1" points="0 17 52.769 17 52.769 0 0 0"></polygon>
        <polygon id="path-3" points="0 17 52.769 17 52.769 0 0 0"></polygon>
        <polygon id="path-5" points="0 17 52.769 17 52.769 0 0 0"></polygon>
        <polygon id="path-7" points="0 12 35.846 12 35.846 0 0 0"></polygon>
        <polygon id="path-9" points="0 12 35.846 12 35.846 0 0 0"></polygon>
        <polygon id="path-11" points="0 12 35.846 12 35.846 0 0 0"></polygon>
        <polygon id="path-13" points="0 12 35.846 12 35.846 0 0 0"></polygon>
        <polygon id="path-15" points="0 43 38.107 43 38.107 0 0 0"></polygon>
        <polygon id="path-17" points="0 43 38.107 43 38.107 0 0 0"></polygon>
        <polygon id="path-19" points="0 74 65.3 74 65.3 0.122 0 0.122"></polygon>
        <polygon id="path-21" points="0 74 65.3 74 65.3 0.122 0 0.122"></polygon>
        <polygon id="path-23" points="0 59.3877551 24.4897959 59.3877551 24.4897959 0 0 0"></polygon>
        <polygon id="path-25" points="0 59.95 22 59.95 22 0 0 0"></polygon>
        <polygon id="path-27" points="0 54.5 20 54.5 20 -4.54747351e-13 0 -4.54747351e-13"></polygon>
        <polygon id="path-29" points="0 72 26 72 26 0 0 0"></polygon>
        <polygon id="path-31" points="0 76.3412698 24.2353238 76.3412698 24.2353238 0 0 0"></polygon>
        <polygon id="path-33" points="0 33.641 36.111 33.641 36.111 0 0 0"></polygon>
        <polygon id="path-35" points="0 33.641 36.111 33.641 36.111 0 0 0"></polygon>
        <polygon id="path-37" points="0 33.641 36.111 33.641 36.111 0 0 0"></polygon>
    </defs>
    <g id="Page-1" stroke="none" stroke-width="1" fill="none" fill-rule="evenodd">
        <g id="build-your-bag" transform="translate(-838.000000, -2890.000000)">
            <g id="Group-16" transform="translate(839.000000, 2891.000000)">
                <g id="Page-1" transform="translate(145.000000, 161.000000)" stroke="#626262" stroke-width="2" stroke-linecap="round" stroke-linejoin="round">
                    <path d="M29.6618,11.6769 C31.7748,11.6769 33.4888,16.1089 33.4888,21.5759 C33.4888,27.0439 31.7748,31.4759 29.6618,31.4759 L9.1528,31.4759 C7.0398,31.4759 5.3268,27.0439 5.3268,21.5759 C5.3268,16.1089 7.0398,11.6769 9.1528,11.6769 L29.6618,11.6769 Z" id="Stroke-1"></path>
                    <path d="M10.2048,15.9855 C10.8148,13.7355 12.6448,18.2355 12.3408,23.1115 C12.0348,27.9875 10.8148,29.4885 9.8988,26.8625" id="Stroke-3"></path>
                    <path d="M19.4997,11.6769 L19.4997,-0.0001 L-0.0003,-0.0001 L-0.0003,21.0369 C-0.0003,27.7629 4.9497,31.4759 8.6617,31.4759" id="Stroke-5"></path>
                </g>
                <g id="Page-1" transform="translate(2.000000, 222.000000)" stroke="#626262" stroke-width="2" stroke-linejoin="round">
                    <path d="M80.8395413,72.526552 L5.15954133,72.526552 C2.31122133,72.526552 -0.000458666666,70.2160187 -0.000458666666,67.366552 L-0.000458666666,19.206552 C-0.000458666666,16.3570853 2.31122133,14.046552 5.15954133,14.046552 L80.8395413,14.046552 C83.689008,14.046552 85.9995413,16.3570853 85.9995413,19.206552 L85.9995413,67.366552 C85.9995413,70.2160187 83.689008,72.526552 80.8395413,72.526552 Z" id="Stroke-1"></path>
                    <path d="M22.3595413,13.7598853 L22.3595413,4.466152 C22.3595413,1.999672 24.459088,-0.000114666667 27.049408,-0.000114666667 L58.9508213,-0.000114666667 C61.5411413,-0.000114666667 63.6395413,1.999672 63.6395413,4.466152 L63.6395413,13.7598853" id="Stroke-3"></path>
                    <polygon id="Stroke-5" points="58.4795413 37.8398853 48.1595413 37.8398853 48.1595413 27.5198853 37.8395413 27.5198853 37.8395413 37.8398853 27.5195413 37.8398853 27.5195413 48.1598853 37.8395413 48.1598853 37.8395413 58.4798853 48.1595413 58.4798853 48.1595413 48.1598853 58.4795413 48.1598853"></polygon>
                    <path d="M27.4612907,13.7598853 L27.4612907,5.93388533 C27.4612907,5.288312 27.9841707,4.765432 28.6308907,4.765432 L57.3697973,4.765432 C58.0153707,4.765432 58.5393973,5.288312 58.5393973,5.93388533 L58.5393973,13.7598853" id="Stroke-7"></path>
                </g>
                <g id="Page-1" transform="translate(83.000000, 155.000000)" stroke="#626262" stroke-width="2" stroke-linecap="round" stroke-linejoin="round">
                    <path d="M40.8181,14.1541 C43.3801,14.1541 45.4571,19.5271 45.4571,26.1541 C45.4571,32.7811 43.3801,38.1541 40.8181,38.1541 L11.0951,38.1541 C8.5341,38.1541 6.4571,32.7811 6.4571,26.1541 C6.4571,19.5271 8.5341,14.1541 11.0951,14.1541 L40.8181,14.1541 Z" id="Stroke-1"></path>
                    <path d="M12.3698,19.3773 C13.1088,16.6493 15.3288,22.1053 14.9588,28.0163 C14.5888,33.9263 13.1088,35.7453 11.9998,32.5623" id="Stroke-3"></path>
                    <path d="M28.4997,14.1541 L28.4997,0.0001 L-0.0003,0.0001 L-0.0003,25.5001 C-0.0003,33.6541 5.9997,38.1541 10.4997,38.1541" id="Stroke-5"></path>
                </g>
                <g id="Page-1" transform="translate(0.000000, 152.000000)" stroke="#626262" stroke-width="2" stroke-linecap="round" stroke-linejoin="round">
                    <path d="M55.9751,15.581 C58.7951,15.581 61.0811,21.495 61.0811,28.79 C61.0811,36.086 58.7951,42 55.9751,42 L13.2131,42 C10.3931,42 8.1071,36.086 8.1071,28.79 C8.1071,21.495 10.3931,15.581 13.2131,15.581 L55.9751,15.581 Z" id="Stroke-1"></path>
                    <path d="M14.6167,21.33 C15.4307,18.327 17.8737,24.333 17.4667,30.84 C17.0587,37.346 15.4307,39.348 14.2097,35.845" id="Stroke-3"></path>
                    <path d="M42.4165,15.581 L42.4165,0 L0.9995,0 L0.9995,28.07 C0.9995,37.046 7.6045,42 12.5585,42" id="Stroke-5"></path>
                </g>
                <g id="Page-1" transform="translate(167.000000, 9.000000)">
                    <path d="M8.5003,1.0001 L44.2693,1.0001 C48.4113,1.0001 51.7693,4.3581 51.7693,8.5001 C51.7693,12.6421 48.4113,16.0001 44.2693,16.0001 L8.5003,16.0001 C4.3573,16.0001 1.0003,12.6421 1.0003,8.5001 C1.0003,4.3581 4.3573,1.0001 8.5003,1.0001 Z" id="Stroke-1" stroke="#626262" stroke-width="2" stroke-linejoin="round"></path>
                    <mask id="mask-2" fill="white">
                        <use xlink:href="#path-1"></use>
                    </mask>
                    <g id="Clip-4"></g>
                    <polygon id="Stroke-3" stroke="#626262" stroke-width="2" stroke-linejoin="round" mask="url(#mask-2)" points="20.269 16 33.769 16 33.769 1 20.269 1"></polygon>
                </g>
                <g id="Page-1-Copy-5" transform="translate(167.000000, 45.000000)">
                    <path d="M8.5003,1.0001 L44.2693,1.0001 C48.4113,1.0001 51.7693,4.3581 51.7693,8.5001 C51.7693,12.6421 48.4113,16.0001 44.2693,16.0001 L8.5003,16.0001 C4.3573,16.0001 1.0003,12.6421 1.0003,8.5001 C1.0003,4.3581 4.3573,1.0001 8.5003,1.0001 Z" id="Stroke-1" stroke="#626262" stroke-width="2" stroke-linejoin="round"></path>
                    <mask id="mask-4" fill="white">
                        <use xlink:href="#path-3"></use>
                    </mask>
                    <g id="Clip-4"></g>
                    <polygon id="Stroke-3" stroke="#626262" stroke-width="2" stroke-linejoin="round" mask="url(#mask-4)" points="20.269 16 33.769 16 33.769 1 20.269 1"></polygon>
                </g>
                <g id="Page-1-Copy-6" transform="translate(167.000000, 78.000000)">
                    <path d="M8.5003,1.0001 L44.2693,1.0001 C48.4113,1.0001 51.7693,4.3581 51.7693,8.5001 C51.7693,12.6421 48.4113,16.0001 44.2693,16.0001 L8.5003,16.0001 C4.3573,16.0001 1.0003,12.6421 1.0003,8.5001 C1.0003,4.3581 4.3573,1.0001 8.5003,1.0001 Z" id="Stroke-1" stroke="#626262" stroke-width="2" stroke-linejoin="round"></path>
                    <mask id="mask-6" fill="white">
                        <use xlink:href="#path-5"></use>
                    </mask>
                    <g id="Clip-4"></g>
                    <polygon id="Stroke-3" stroke="#626262" stroke-width="2" stroke-linejoin="round" mask="url(#mask-6)" points="20.269 16 33.769 16 33.769 1 20.269 1"></polygon>
                </g>
                <g id="Page-1" transform="translate(233.000000, 10.000000)">
                    <path d="M6.0004,0.9999 L29.8464,0.9999 C32.6074,0.9999 34.8464,3.2389 34.8464,5.9999 C34.8464,8.7619 32.6074,10.9999 29.8464,10.9999 L6.0004,10.9999 C3.2384,10.9999 1.0004,8.7619 1.0004,5.9999 C1.0004,3.2389 3.2384,0.9999 6.0004,0.9999 Z" id="Stroke-1" stroke="#626262" stroke-width="2" stroke-linejoin="round"></path>
                    <mask id="mask-8" fill="white">
                        <use xlink:href="#path-7"></use>
                    </mask>
                    <g id="Clip-4"></g>
                    <polygon id="Stroke-3" stroke="#626262" stroke-width="2" stroke-linejoin="round" mask="url(#mask-8)" points="13.846 11 22.846 11 22.846 1 13.846 1"></polygon>
                </g>
                <g id="Page-1-Copy-13" transform="translate(233.000000, 35.000000)">
                    <path d="M6.0004,0.9999 L29.8464,0.9999 C32.6074,0.9999 34.8464,3.2389 34.8464,5.9999 C34.8464,8.7619 32.6074,10.9999 29.8464,10.9999 L6.0004,10.9999 C3.2384,10.9999 1.0004,8.7619 1.0004,5.9999 C1.0004,3.2389 3.2384,0.9999 6.0004,0.9999 Z" id="Stroke-1" stroke="#626262" stroke-width="2" stroke-linejoin="round"></path>
                    <mask id="mask-10" fill="white">
                        <use xlink:href="#path-9"></use>
                    </mask>
                    <g id="Clip-4"></g>
                    <polygon id="Stroke-3" stroke="#626262" stroke-width="2" stroke-linejoin="round" mask="url(#mask-10)" points="13.846 11 22.846 11 22.846 1 13.846 1"></polygon>
                </g>
                <g id="Page-1-Copy-7" transform="translate(233.000000, 59.000000)">
                    <path d="M6.0004,0.9999 L29.8464,0.9999 C32.6074,0.9999 34.8464,3.2389 34.8464,5.9999 C34.8464,8.7619 32.6074,10.9999 29.8464,10.9999 L6.0004,10.9999 C3.2384,10.9999 1.0004,8.7619 1.0004,5.9999 C1.0004,3.2389 3.2384,0.9999 6.0004,0.9999 Z" id="Stroke-1" stroke="#626262" stroke-width="2" stroke-linejoin="round"></path>
                    <mask id="mask-12" fill="white">
                        <use xlink:href="#path-11"></use>
                    </mask>
                    <g id="Clip-4"></g>
                    <polygon id="Stroke-3" stroke="#626262" stroke-width="2" stroke-linejoin="round" mask="url(#mask-12)" points="13.846 11 22.846 11 22.846 1 13.846 1"></polygon>
                </g>
                <g id="Page-1-Copy-8" transform="translate(233.000000, 83.000000)">
                    <path d="M6.0004,0.9999 L29.8464,0.9999 C32.6074,0.9999 34.8464,3.2389 34.8464,5.9999 C34.8464,8.7619 32.6074,10.9999 29.8464,10.9999 L6.0004,10.9999 C3.2384,10.9999 1.0004,8.7619 1.0004,5.9999 C1.0004,3.2389 3.2384,0.9999 6.0004,0.9999 Z" id="Stroke-1" stroke="#626262" stroke-width="2" stroke-linejoin="round"></path>
                    <mask id="mask-14" fill="white">
                        <use xlink:href="#path-13"></use>
                    </mask>
                    <g id="Clip-4"></g>
                    <polygon id="Stroke-3" stroke="#626262" stroke-width="2" stroke-linejoin="round" mask="url(#mask-14)" points="13.846 11 22.846 11 22.846 1 13.846 1"></polygon>
                </g>
                <g id="Page-1" transform="translate(388.000000, 93.000000)" stroke-width="2" stroke="#626262" stroke-linejoin="round">
                    <polyline id="Stroke-1" points="23.8115 10.7298 26.8395 4.0768 54.1445 16.5048 40.4725 46.5408 33.8455 43.5238"></polyline>
                    <polygon id="Stroke-3" points="32.9746 47.0208 3.8646 39.7698 11.8396 7.7478 40.9506 14.9998"></polygon>
                    <polyline id="Stroke-5" points="5.2607 34.3841 -0.0003 5.3481 29.5197 0.0001 30.5657 5.7721"></polyline>
                </g>
                <g id="Page-1" transform="translate(361.000000, 252.000000)" stroke-width="2" stroke="#626262" stroke-linejoin="round">
                    <polygon id="Stroke-1" points="0 36 30 36 30 15 0 15"></polygon>
                    <polygon id="Stroke-3" points="0 42 30 42 30 9 0 9"></polygon>
                    <polyline id="Stroke-4" points="1.4995 8.9999 25.4995 -0.0001 28.4995 8.9999"></polyline>
                </g>
                <g id="Page-1-Copy-12" transform="translate(303.000000, 242.000000)" stroke-width="2" stroke="#626262" stroke-linejoin="round">
                    <polygon id="Stroke-1" points="0 44.5714286 37 44.5714286 37 18.5714286 0 18.5714286"></polygon>
                    <polygon id="Stroke-3" points="0 52 37 52 37 11.1428571 0 11.1428571"></polygon>
                    <polyline id="Stroke-4" points="1.84938333 11.1427333 31.4493833 -0.000123809524 35.1493833 11.1427333"></polyline>
                </g>
                <g id="Page-1" transform="translate(192.000000, 252.000000)">
                    <g id="Group-7">
                        <polygon id="Stroke-1" stroke="#626262" stroke-width="2" stroke-linejoin="round" points="37.1058 36 1.1068 36 1.1068 42 20.1608 42 37.1068 42"></polygon>
                        <polygon id="Stroke-3" stroke="#626262" stroke-width="2" stroke-linejoin="round" points="37.0004 1 20.0594 1 1.0004 1 1.0004 7 36.9994 7"></polygon>
                        <mask id="mask-16" fill="white">
                            <use xlink:href="#path-15"></use>
                        </mask>
                        <g id="Clip-6"></g>
                        <polygon id="Stroke-5" stroke="#626262" stroke-width="2" stroke-linecap="round" stroke-linejoin="round" mask="url(#mask-16)" points="1 36 37 36 37 7 1 7"></polygon>
                    </g>
                    <polygon id="Stroke-8" stroke="#626262" stroke-width="2" stroke-linejoin="round" points="6.607 30.161 31.607 30.161 31.607 13.161 6.607 13.161"></polygon>
                </g>
                <g id="Page-1-Copy-10" transform="translate(245.000000, 252.000000)">
                    <g id="Group-7">
                        <polygon id="Stroke-1" stroke="#626262" stroke-width="2" stroke-linejoin="round" points="37.1058 36 1.1068 36 1.1068 42 20.1608 42 37.1068 42"></polygon>
                        <polygon id="Stroke-3" stroke="#626262" stroke-width="2" stroke-linejoin="round" points="37.0004 1 20.0594 1 1.0004 1 1.0004 7 36.9994 7"></polygon>
                        <mask id="mask-18" fill="white">
                            <use xlink:href="#path-17"></use>
                        </mask>
                        <g id="Clip-6"></g>
                        <polygon id="Stroke-5" stroke="#626262" stroke-width="2" stroke-linecap="round" stroke-linejoin="round" mask="url(#mask-18)" points="1 36 37 36 37 7 1 7"></polygon>
                    </g>
                    <polygon id="Stroke-8" stroke="#626262" stroke-width="2" stroke-linejoin="round" points="6.607 30.161 31.607 30.161 31.607 13.161 6.607 13.161"></polygon>
                </g>
                <g id="Page-1" transform="translate(109.000000, 220.000000)">
                    <g id="Group-7" transform="translate(0.000000, 0.877900)">
                        <polygon id="Stroke-1" stroke="#626262" stroke-width="2" stroke-linejoin="round" points="64.2979 62.4815 1.1879 62.4815 1.1879 72.9995 34.5909 73.0005 64.2999 72.9995"></polygon>
                        <polygon id="Stroke-3" stroke="#626262" stroke-width="2" stroke-linejoin="round" points="64.1124 1.1221 34.4124 1.1221 1.0004 1.1221 1.0004 11.6411 64.1104 11.6411"></polygon>
                        <mask id="mask-20" fill="white">
                            <use xlink:href="#path-19"></use>
                        </mask>
                        <g id="Clip-6"></g>
                        <polygon id="Stroke-5" stroke="#626262" stroke-width="2" stroke-linecap="round" stroke-linejoin="round" mask="url(#mask-20)" points="1 62.482 64.112 62.482 64.112 11.641 1 11.641"></polygon>
                    </g>
                    <polygon id="Stroke-8" stroke="#626262" stroke-width="2" stroke-linejoin="round" points="10.829 53.1229 54.657 53.1229 54.657 23.3199 10.829 23.3199"></polygon>
                </g>
                <g id="Page-1-Copy-9" transform="translate(199.000000, 117.000000)">
                    <g id="Group-7" transform="translate(0.000000, 0.877900)">
                        <polygon id="Stroke-1" stroke="#626262" stroke-width="2" stroke-linejoin="round" points="64.2979 62.4815 1.1879 62.4815 1.1879 72.9995 34.5909 73.0005 64.2999 72.9995"></polygon>
                        <polygon id="Stroke-3" stroke="#626262" stroke-width="2" stroke-linejoin="round" points="64.1124 1.1221 34.4124 1.1221 1.0004 1.1221 1.0004 11.6411 64.1104 11.6411"></polygon>
                        <mask id="mask-22" fill="white">
                            <use xlink:href="#path-21"></use>
                        </mask>
                        <g id="Clip-6"></g>
                        <polygon id="Stroke-5" stroke="#626262" stroke-width="2" stroke-linecap="round" stroke-linejoin="round" mask="url(#mask-22)" points="1 62.482 64.112 62.482 64.112 11.641 1 11.641"></polygon>
                    </g>
                    <polygon id="Stroke-8" stroke="#626262" stroke-width="2" stroke-linejoin="round" points="10.829 53.1229 54.657 53.1229 54.657 23.3199 10.829 23.3199"></polygon>
                </g>
                <g id="Page-1" transform="translate(291.000000, 153.000000)" stroke-linecap="round" stroke-width="2" stroke="#626262" stroke-linejoin="round">
                    <polygon id="Stroke-1" points="1.75 37.5 21 37.5 21 6 1.75 6"></polygon>
                    <polygon id="Stroke-3" points="0 6 22.5 6 22.5 0 0 0"></polygon>
                    <polygon id="Stroke-4" points="10.5 28.5 21 28.5 21 13.5 10.5 13.5"></polygon>
                </g>
                <g id="Page-1-Copy-3" transform="translate(375.000000, 153.000000)" stroke-linecap="round" stroke-width="2" stroke="#626262" stroke-linejoin="round">
                    <polygon id="Stroke-1" points="1.75 37.5 21 37.5 21 6 1.75 6"></polygon>
                    <polygon id="Stroke-3" points="0 6 22.5 6 22.5 0 0 0"></polygon>
                    <polygon id="Stroke-4" points="10.5 28.5 21 28.5 21 13.5 10.5 13.5"></polygon>
                </g>
                <g id="Page-1" transform="translate(419.000000, 158.000000)" stroke="#626262" stroke-width="2" stroke-linecap="round" stroke-linejoin="round">
                    <path d="M12.5,7 L3.5,7 C1.567,7 0,5.433 0,3.5 C0,1.567 1.567,0 3.5,0 L12.5,0 C14.433,0 16,1.567 16,3.5 C16,5.433 14.433,7 12.5,7 Z" id="Stroke-1"></path>
                    <path d="M8,0 L8,7" id="Stroke-3"></path>
                    <path d="M12.5,19.5 L3.5,19.5 C1.567,19.5 0,17.933 0,16 C0,14.067 1.567,12.5 3.5,12.5 L12.5,12.5 C14.433,12.5 16,14.067 16,16 C16,17.933 14.433,19.5 12.5,19.5 Z" id="Stroke-5"></path>
                    <path d="M8,12.5 L8,19.5" id="Stroke-7"></path>
                    <path d="M12.5,32 L3.5,32 C1.567,32 0,30.433 0,28.5 C0,26.567 1.567,25 3.5,25 L12.5,25 C14.433,25 16,26.567 16,28.5 C16,30.433 14.433,32 12.5,32 Z" id="Stroke-9"></path>
                    <path d="M8,25 L8,32" id="Stroke-11"></path>
                </g>
                <g id="Page-1-Copy-4" transform="translate(336.000000, 158.000000)" stroke="#626262" stroke-width="2" stroke-linecap="round" stroke-linejoin="round">
                    <path d="M12.5,7 L3.5,7 C1.567,7 0,5.433 0,3.5 C0,1.567 1.567,0 3.5,0 L12.5,0 C14.433,0 16,1.567 16,3.5 C16,5.433 14.433,7 12.5,7 Z" id="Stroke-1"></path>
                    <path d="M8,0 L8,7" id="Stroke-3"></path>
                    <path d="M12.5,19.5 L3.5,19.5 C1.567,19.5 0,17.933 0,16 C0,14.067 1.567,12.5 3.5,12.5 L12.5,12.5 C14.433,12.5 16,14.067 16,16 C16,17.933 14.433,19.5 12.5,19.5 Z" id="Stroke-5"></path>
                    <path d="M8,12.5 L8,19.5" id="Stroke-7"></path>
                    <path d="M12.5,32 L3.5,32 C1.567,32 0,30.433 0,28.5 C0,26.567 1.567,25 3.5,25 L12.5,25 C14.433,25 16,26.567 16,28.5 C16,30.433 14.433,32 12.5,32 Z" id="Stroke-9"></path>
                    <path d="M8,25 L8,32" id="Stroke-11"></path>
                </g>
                <g id="Page-1" transform="translate(228.744898, 221.500000) rotate(-270.000000) translate(-228.744898, -221.500000) translate(216.500000, 191.500000)">
                    <polygon id="Stroke-1" stroke="#626262" stroke-width="2" stroke-linecap="round" stroke-linejoin="round" points="23.2657959 58.1631429 1.22497959 58.1631429 3.06171429 12.2447755 21.4290612 12.2447755"></polygon>
                    <mask id="mask-24" fill="white">
                        <use xlink:href="#path-23"></use>
                    </mask>
                    <g id="Clip-4"></g>
                    <polygon id="Stroke-3" stroke="#626262" stroke-width="2" stroke-linecap="round" stroke-linejoin="round" mask="url(#mask-24)" points="6.73469388 12.244898 17.755102 12.244898 17.755102 1.2244898 6.73469388 1.2244898"></polygon>
                </g>
                <g id="Page-1" transform="translate(309.750000, 221.000000) rotate(-270.000000) translate(-309.750000, -221.000000) translate(298.750000, 190.750000)">
                    <polygon id="Stroke-1" stroke="#626262" stroke-width="2" stroke-linecap="round" stroke-linejoin="round" points="20.90044 52.24989 1.10044 52.24989 4.40044 10.99989 17.60044 10.99989"></polygon>
                    <polygon id="Stroke-3" stroke="#626262" stroke-width="2" stroke-linecap="round" stroke-linejoin="round" points="15.95044 10.99989 6.05044 10.99989 7.70044 1.09989 14.30044 1.09989"></polygon>
                    <mask id="mask-26" fill="white">
                        <use xlink:href="#path-25"></use>
                    </mask>
                    <g id="Clip-6"></g>
                    <polygon id="Stroke-5" stroke="#626262" stroke-width="2" stroke-linecap="round" stroke-linejoin="round" mask="url(#mask-26)" points="1.1 58.85 20.9 58.85 20.9 52.25 1.1 52.25"></polygon>
                </g>
                <g id="Page-1-Copy-17" transform="translate(406.500000, 66.000000) rotate(-270.000000) translate(-406.500000, -66.000000) translate(396.500000, 38.500000)">
                    <polygon id="Stroke-1" stroke="#626262" stroke-width="2" stroke-linecap="round" stroke-linejoin="round" points="19.0004 47.4999 1.0004 47.4999 4.0004 9.9999 16.0004 9.9999"></polygon>
                    <polygon id="Stroke-3" stroke="#626262" stroke-width="2" stroke-linecap="round" stroke-linejoin="round" points="14.5004 9.9999 5.5004 9.9999 7.0004 0.9999 13.0004 0.9999"></polygon>
                    <mask id="mask-28" fill="white">
                        <use xlink:href="#path-27"></use>
                    </mask>
                    <g id="Clip-6"></g>
                    <polygon id="Stroke-5" stroke="#626262" stroke-width="2" stroke-linecap="round" stroke-linejoin="round" mask="url(#mask-28)" points="1 53.5 19 53.5 19 47.5 1 47.5"></polygon>
                </g>
                <g id="Page-1" stroke="#626262" stroke-width="2" stroke-linejoin="round">
                    <path d="M140.9996,126.4999 L8.9996,126.4999 C4.0296,126.4999 -0.0004,122.4709 -0.0004,117.4999 L-0.0004,33.4999 C-0.0004,28.5299 4.0296,24.4999 8.9996,24.4999 L140.9996,24.4999 C145.9706,24.4999 149.9996,28.5299 149.9996,33.4999 L149.9996,117.4999 C149.9996,122.4709 145.9706,126.4999 140.9996,126.4999 Z" id="Stroke-1"></path>
                    <path d="M38.9996,23.9999 L38.9996,7.7889 C38.9996,3.4869 42.6616,-0.0001 47.1786,-0.0001 L102.8216,-0.0001 C107.3386,-0.0001 110.9996,3.4869 110.9996,7.7889 L110.9996,23.9999" id="Stroke-3"></path>
                    <polygon id="Stroke-5" points="101.9996 65.9999 84.0006 65.9999 84.0006 47.9999 65.9996 47.9999 65.9996 65.9999 47.9996 65.9999 47.9996 83.9999 65.9996 83.9999 65.9996 101.9999 84.0006 101.9999 84.0006 83.9999 101.9996 83.9999"></polygon>
                    <path d="M47.898,23.9999 L47.898,10.3509 C47.898,9.2249 48.81,8.3119 49.936,8.3119 L100.064,8.3119 C101.19,8.3119 102.102,9.2249 102.102,10.3509 L102.102,23.9999" id="Stroke-7"></path>
                </g>
                <g id="Page-1" transform="translate(412.000000, 224.000000)">
                    <path d="M25,65 L1,65 L4.922,18.915 C4.966,18.397 5.399,18 5.919,18 L20.081,18 C20.601,18 21.034,18.397 21.078,18.915 L25,65 Z" id="Stroke-1" stroke="#626262" stroke-width="2" stroke-linecap="round" stroke-linejoin="round"></path>
                    <mask id="mask-30" fill="white">
                        <use xlink:href="#path-29"></use>
                    </mask>
                    <g id="Clip-4"></g>
                    <polygon id="Stroke-3" stroke="#626262" stroke-width="2" stroke-linecap="round" stroke-linejoin="round" mask="url(#mask-30)" points="1 71 25 71 25 65 1 65"></polygon>
                    <path d="M17,13 L9,13 C8.447,13 8,13.448 8,14 L8,18 L18,18 L18,14 C18,13.448 17.553,13 17,13 Z" id="Stroke-5" stroke="#626262" stroke-width="2" stroke-linecap="round" stroke-linejoin="round" mask="url(#mask-30)"></path>
                    <polygon id="Stroke-6" stroke="#626262" stroke-width="2" stroke-linecap="round" stroke-linejoin="round" mask="url(#mask-30)" points="11.2998 1 9.9998 13 15.9998 13 14.6998 1"></polygon>
                </g>
                <g id="Page-1-Copy-16" transform="translate(325.500000, 66.841270) rotate(-270.000000) translate(-325.500000, -66.841270) translate(313.000000, 28.341270)">
                    <g id="Group-5" transform="translate(0.000000, 0.000000)">
                        <polygon id="Stroke-1" stroke="#626262" stroke-width="2" stroke-linecap="round" stroke-linejoin="round" points="23.0235576 67.8589065 1.21176619 67.8589065 4.84706475 21.8117914 19.388259 21.8117914"></polygon>
                        <mask id="mask-32" fill="white">
                            <use xlink:href="#path-31"></use>
                        </mask>
                        <g id="Clip-4"></g>
                        <polygon id="Stroke-3" stroke="#626262" stroke-width="2" stroke-linecap="round" stroke-linejoin="round" mask="url(#mask-32)" points="1.21176619 75.1295037 23.0235576 75.1295037 23.0235576 67.8589065 1.21176619 67.8589065"></polygon>
                    </g>
                    <polygon id="Stroke-6" stroke="#626262" stroke-width="2" stroke-linecap="round" stroke-linejoin="round" points="6.05883094 21.8117914 18.1764928 21.8117914 18.1764928 16.9647266 6.05883094 16.9647266"></polygon>
                    <polygon id="Stroke-7" stroke="#626262" stroke-width="2" stroke-linecap="round" stroke-linejoin="round" points="10.057417 1.21176619 8.48212096 16.9647266 15.7527181 16.9647266 14.177422 1.21176619"></polygon>
                </g>
                <g id="Page-1" transform="translate(360.000000, 207.000000)" stroke="#626262" stroke-width="2" stroke-linecap="round" stroke-linejoin="round">
                    <path d="M30,15 C30,23.2841667 23.2841667,30 15,30 C6.71583333,30 0,23.2841667 0,15 C0,6.71583333 6.71583333,0 15,0 C23.2841667,0 30,6.71583333 30,15 Z" id="Stroke-1"></path>
                    <path d="M22.5,15 C22.5,19.1425 19.1425,22.5 15,22.5 C10.8575,22.5 7.5,19.1425 7.5,15 C7.5,10.8575 10.8575,7.5 15,7.5 C19.1425,7.5 22.5,10.8575 22.5,15 Z" id="Stroke-3"></path>
                    <path d="M22.6603333,22.6603333 C20.6995,24.6211667 17.9911667,25.8336667 15.0003333,25.8336667" id="Stroke-5"></path>
                    <path d="M7.33966667,22.6603333 C5.37883333,20.6995 4.16633333,17.9911667 4.16633333,15.0003333" id="Stroke-7"></path>
                    <path d="M15,4.16666667 C20.9833333,4.16666667 25.8333333,9.01666667 25.8333333,15" id="Stroke-9"></path>
                </g>
                <g id="Page-1" transform="translate(290.000000, 96.000000)" stroke="#626262" stroke-width="2" stroke-linecap="round" stroke-linejoin="round">
                    <path d="M52,36 C42.059,36 34,27.941 34,18 C34,8.059 42.059,0 52,0 C61.941,0 70,8.059 70,18 C70,27.941 61.941,36 52,36 Z" id="Stroke-1"></path>
                    <path d="M52,27 C47.029,27 43,22.971 43,18 C43,13.029 47.029,9 52,9 C56.971,9 61,13.029 61,18 C61,22.971 56.971,27 52,27 Z" id="Stroke-3"></path>
                    <path d="M42.8076,27.1924 C40.4546,24.8394 38.9996,21.5894 38.9996,18.0004" id="Stroke-5"></path>
                    <path d="M42.8076,8.8076 C45.1606,6.4546 48.4106,4.9996 51.9996,4.9996" id="Stroke-7"></path>
                    <path d="M65,18 C65,25.18 59.18,31 52,31" id="Stroke-9"></path>
                    <path d="M45,35 L41,35 C31.808,35 31,28 24,28 C17,28 16,35 9,35 C6,35 3,34 0,31" id="Stroke-11"></path>
                </g>
                <g id="Page-1" transform="translate(287.000000, 6.000000)">
                    <path d="M29.502,1.7521 L20.519,8.8491 C19.074,9.9891 17.037,9.9891 15.593,8.8491 L6.609,1.7521 C4.339,-0.0419 1,1.5751 1,4.4691 L1,29.1711 C1,32.0651 4.339,33.6831 6.609,31.8891 L15.593,24.7921 C17.037,23.6511 19.074,23.6511 20.519,24.7921 L29.502,31.8891 C31.773,33.6831 35.111,32.0651 35.111,29.1711 L35.111,4.4691 C35.111,1.5751 31.773,-0.0419 29.502,1.7521 Z" id="Stroke-1" stroke="#626262" stroke-width="2" stroke-linecap="round" stroke-linejoin="round"></path>
                    <mask id="mask-34" fill="white">
                        <use xlink:href="#path-33"></use>
                    </mask>
                    <g id="Clip-4"></g>
                    <polygon id="Stroke-3" stroke="#626262" stroke-width="2" stroke-linecap="round" stroke-linejoin="round" mask="url(#mask-34)" points="10.111 21.32 26.111 21.32 26.111 12.32 10.111 12.32"></polygon>
                </g>
                <g id="Page-1-Copy-14" transform="translate(343.000000, 6.000000)">
                    <path d="M29.502,1.7521 L20.519,8.8491 C19.074,9.9891 17.037,9.9891 15.593,8.8491 L6.609,1.7521 C4.339,-0.0419 1,1.5751 1,4.4691 L1,29.1711 C1,32.0651 4.339,33.6831 6.609,31.8891 L15.593,24.7921 C17.037,23.6511 19.074,23.6511 20.519,24.7921 L29.502,31.8891 C31.773,33.6831 35.111,32.0651 35.111,29.1711 L35.111,4.4691 C35.111,1.5751 31.773,-0.0419 29.502,1.7521 Z" id="Stroke-1" stroke="#626262" stroke-width="2" stroke-linecap="round" stroke-linejoin="round"></path>
                    <mask id="mask-36" fill="white">
                        <use xlink:href="#path-35"></use>
                    </mask>
                    <g id="Clip-4"></g>
                    <polygon id="Stroke-3" stroke="#626262" stroke-width="2" stroke-linecap="round" stroke-linejoin="round" mask="url(#mask-36)" points="10.111 21.32 26.111 21.32 26.111 12.32 10.111 12.32"></polygon>
                </g>
                <g id="Page-1-Copy-15" transform="translate(399.000000, 6.000000)">
                    <path d="M29.502,1.7521 L20.519,8.8491 C19.074,9.9891 17.037,9.9891 15.593,8.8491 L6.609,1.7521 C4.339,-0.0419 1,1.5751 1,4.4691 L1,29.1711 C1,32.0651 4.339,33.6831 6.609,31.8891 L15.593,24.7921 C17.037,23.6511 19.074,23.6511 20.519,24.7921 L29.502,31.8891 C31.773,33.6831 35.111,32.0651 35.111,29.1711 L35.111,4.4691 C35.111,1.5751 31.773,-0.0419 29.502,1.7521 Z" id="Stroke-1" stroke="#626262" stroke-width="2" stroke-linecap="round" stroke-linejoin="round"></path>
                    <mask id="mask-38" fill="white">
                        <use xlink:href="#path-37"></use>
                    </mask>
                    <g id="Clip-4"></g>
                    <polygon id="Stroke-3" stroke="#626262" stroke-width="2" stroke-linecap="round" stroke-linejoin="round" mask="url(#mask-38)" points="10.111 21.32 26.111 21.32 26.111 12.32 10.111 12.32"></polygon>
                </g>
            </g>
        </g>
    </g>
</svg>