<?xml version="1.0" encoding="UTF-8" standalone="no"?>
<svg width="459px" height="343px" viewBox="0 0 459 343" version="1.1" xmlns="http://www.w3.org/2000/svg" xmlns:xlink="http://www.w3.org/1999/xlink">
    <!-- Generator: Sketch 41.1 (35376) - http://www.bohemiancoding.com/sketch -->
    <title>Group 15</title>
    <desc>Created with Sketch.</desc>
    <defs>
        <polygon id="path-1" points="0 114.907 45.9563289 114.907 45.9563289 0.9995 0 0.9995"></polygon>
        <polygon id="path-3" points="0 114.907 45.9563289 114.907 45.9563289 0.9995 0 0.9995"></polygon>
        <polygon id="path-5" points="0 53 97 53 97 0 0 0"></polygon>
    </defs>
    <g id="Page-1" stroke="none" stroke-width="1" fill="none" fill-rule="evenodd">
        <g id="build-your-bag" transform="translate(-145.000000, -3406.000000)">
            <g id="Group-15" transform="translate(146.000000, 3407.000000)">
                <g id="Page-1" transform="translate(124.000000, 4.000000)" stroke="#626262" stroke-width="2" stroke-linecap="round" stroke-linejoin="round">
                    <g id="Group-11" transform="translate(63.000000, 0.000000)">
                        <path d="M18.3545874,16.9386724 C23.3516218,11.9416379 30.2550701,8.85013218 37.8807253,8.85013218" id="Stroke-7"></path>
                        <g id="Group-10">
                            <path d="M38.7653402,76.4691425 C17.6496391,76.4691425 0.530857471,59.351246 0.530857471,38.2346598 C0.530857471,17.1180736 17.6496391,0.000177011494 38.7653402,0.000177011494 C59.8810414,0.000177011494 76.999823,17.1180736 76.999823,38.2346598 C76.999823,59.351246 59.8810414,76.4691425 38.7653402,76.4691425 Z" id="Stroke-1"></path>
                            <path d="M38.7653402,60.3609195 C26.5453517,60.3609195 16.6389034,50.4544713 16.6389034,38.2344828 C16.6389034,26.0144943 26.5453517,16.108046 38.7653402,16.108046 C50.9862138,16.108046 60.891777,26.0144943 60.891777,38.2344828 C60.891777,50.4544713 50.9862138,60.3609195 38.7653402,60.3609195 Z" id="Stroke-3"></path>
                            <path d="M17.4695299,58.6452356 C12.4724954,53.6482011 9.38098966,46.7447529 9.38098966,39.1190977" id="Stroke-5"></path>
                            <path d="M68.1494253,40.0045977 C68.1494253,55.255023 55.7860575,67.6183908 40.5356322,67.6183908" id="Stroke-9"></path>
                            <path d="M38.7653402,53.8051218 C30.1661218,53.8051218 23.1945241,46.8344092 23.1945241,38.2343057 C23.1945241,29.6350874 30.1661218,22.6634897 38.7653402,22.6634897 C47.3654437,22.6634897 54.3361563,29.6350874 54.3361563,38.2343057 C54.3361563,46.8344092 47.3654437,53.8051218 38.7653402,53.8051218 Z" id="Stroke-11"></path>
                        </g>
                    </g>
                    <path d="M92,75.3111111 L83.8222222,75.3111111 C65.0286667,75.3111111 63.3777778,61 49.0666667,61 C34.7555556,61 32.7111111,75.3111111 18.4,75.3111111 C12.2666667,75.3111111 6.13333333,73.2666667 0,67.1333333" id="Stroke-13"></path>
                </g>
                <g id="Page-1" transform="translate(345.000000, 142.000000)">
                    <path d="M26.6877882,113.656875 C16.7791566,113.656875 8.74699868,106.101875 8.74699868,96.781875 L8.74699868,62.751875 C8.74699868,55.658125 14.8614855,49.906875 22.4032618,49.906875 L30.9723145,49.906875 C38.5127618,49.906875 44.6285776,55.658125 44.6285776,62.751875 L44.6285776,96.781875 C44.6285776,106.101875 36.5950908,113.656875 26.6877882,113.656875 Z" id="Stroke-1" stroke="#626262" stroke-width="2" stroke-linejoin="round"></path>
                    <mask id="mask-2" fill="white">
                        <use xlink:href="#path-1"></use>
                    </mask>
                    <g id="Clip-4"></g>
                    <polygon id="Stroke-3" stroke="#626262" stroke-width="2" stroke-linejoin="round" mask="url(#mask-2)" points="15.3918684 73.657 37.9839737 73.657 37.9839737 59.907 15.3918684 59.907"></polygon>
                    <polyline id="Stroke-5" stroke="#626262" stroke-width="2" stroke-linejoin="round" mask="url(#mask-2)" points="31.3391039 49.906875 31.3391039 46.156875 40.6417355 46.156875 40.6417355 53.906875"></polyline>
                    <path d="M12.7338408,53.031875 L13.9179329,27.410625 C13.9976697,25.661875 15.5299461,24.281875 17.3918013,24.281875 C19.2470118,24.281875 20.7766303,25.653125 20.8643408,27.396875 L22.0364724,50.531875" id="Stroke-6" stroke="#626262" stroke-width="2" stroke-linejoin="round" mask="url(#mask-2)"></path>
                    <path d="M15.3917355,81.156875 L20.707525,81.156875" id="Stroke-7" stroke="#626262" stroke-width="2" stroke-linecap="round" stroke-linejoin="round" mask="url(#mask-2)"></path>
                    <path d="M33.9969987,81.156875 L39.3127882,81.156875" id="Stroke-8" stroke="#626262" stroke-width="2" stroke-linecap="round" stroke-linejoin="round" mask="url(#mask-2)"></path>
                    <path d="M24.6943671,81.156875 L30.0101566,81.156875" id="Stroke-9" stroke="#626262" stroke-width="2" stroke-linecap="round" stroke-linejoin="round" mask="url(#mask-2)"></path>
                    <path d="M37.3180382,88.847875 L37.3180382,98.102875 C37.3180382,102.449125 32.5590776,105.972875 26.6864592,105.972875 C20.8151697,105.972875 16.0548803,102.449125 16.0548803,98.102875 L16.0548803,88.847875 L37.3180382,88.847875 Z" id="Stroke-10" stroke="#626262" stroke-width="2" stroke-linecap="round" stroke-linejoin="round" mask="url(#mask-2)"></path>
                    <path d="M11.9032487,18.96875 C14.9305908,16.12125 19.8397224,16.12125 22.8657355,18.96875" id="Stroke-11" stroke="#626262" stroke-width="2" stroke-linejoin="round" mask="url(#mask-2)"></path>
                    <path d="M6.42134079,13.813 C12.476025,8.118 22.2929592,8.118 28.3476434,13.813" id="Stroke-12" stroke="#626262" stroke-width="2" stroke-linejoin="round" mask="url(#mask-2)"></path>
                    <path d="M0.939432895,8.65675 C10.0214592,0.11425 24.747525,0.11425 33.8295513,8.65675" id="Stroke-13" stroke="#626262" stroke-width="2" stroke-linejoin="round" mask="url(#mask-2)"></path>
                </g>
                <g id="Page-1-Copy-29" transform="translate(403.000000, 142.000000)">
                    <path d="M26.6877882,113.656875 C16.7791566,113.656875 8.74699868,106.101875 8.74699868,96.781875 L8.74699868,62.751875 C8.74699868,55.658125 14.8614855,49.906875 22.4032618,49.906875 L30.9723145,49.906875 C38.5127618,49.906875 44.6285776,55.658125 44.6285776,62.751875 L44.6285776,96.781875 C44.6285776,106.101875 36.5950908,113.656875 26.6877882,113.656875 Z" id="Stroke-1" stroke="#626262" stroke-width="2" stroke-linejoin="round"></path>
                    <mask id="mask-4" fill="white">
                        <use xlink:href="#path-3"></use>
                    </mask>
                    <g id="Clip-4"></g>
                    <polygon id="Stroke-3" stroke="#626262" stroke-width="2" stroke-linejoin="round" mask="url(#mask-4)" points="15.3918684 73.657 37.9839737 73.657 37.9839737 59.907 15.3918684 59.907"></polygon>
                    <polyline id="Stroke-5" stroke="#626262" stroke-width="2" stroke-linejoin="round" mask="url(#mask-4)" points="31.3391039 49.906875 31.3391039 46.156875 40.6417355 46.156875 40.6417355 53.906875"></polyline>
                    <path d="M12.7338408,53.031875 L13.9179329,27.410625 C13.9976697,25.661875 15.5299461,24.281875 17.3918013,24.281875 C19.2470118,24.281875 20.7766303,25.653125 20.8643408,27.396875 L22.0364724,50.531875" id="Stroke-6" stroke="#626262" stroke-width="2" stroke-linejoin="round" mask="url(#mask-4)"></path>
                    <path d="M15.3917355,81.156875 L20.707525,81.156875" id="Stroke-7" stroke="#626262" stroke-width="2" stroke-linecap="round" stroke-linejoin="round" mask="url(#mask-4)"></path>
                    <path d="M33.9969987,81.156875 L39.3127882,81.156875" id="Stroke-8" stroke="#626262" stroke-width="2" stroke-linecap="round" stroke-linejoin="round" mask="url(#mask-4)"></path>
                    <path d="M24.6943671,81.156875 L30.0101566,81.156875" id="Stroke-9" stroke="#626262" stroke-width="2" stroke-linecap="round" stroke-linejoin="round" mask="url(#mask-4)"></path>
                    <path d="M37.3180382,88.847875 L37.3180382,98.102875 C37.3180382,102.449125 32.5590776,105.972875 26.6864592,105.972875 C20.8151697,105.972875 16.0548803,102.449125 16.0548803,98.102875 L16.0548803,88.847875 L37.3180382,88.847875 Z" id="Stroke-10" stroke="#626262" stroke-width="2" stroke-linecap="round" stroke-linejoin="round" mask="url(#mask-4)"></path>
                    <path d="M11.9032487,18.96875 C14.9305908,16.12125 19.8397224,16.12125 22.8657355,18.96875" id="Stroke-11" stroke="#626262" stroke-width="2" stroke-linejoin="round" mask="url(#mask-4)"></path>
                    <path d="M6.42134079,13.813 C12.476025,8.118 22.2929592,8.118 28.3476434,13.813" id="Stroke-12" stroke="#626262" stroke-width="2" stroke-linejoin="round" mask="url(#mask-4)"></path>
                    <path d="M0.939432895,8.65675 C10.0214592,0.11425 24.747525,0.11425 33.8295513,8.65675" id="Stroke-13" stroke="#626262" stroke-width="2" stroke-linejoin="round" mask="url(#mask-4)"></path>
                </g>
                <g id="Page-1" transform="translate(278.000000, 272.000000)" stroke-width="2" stroke="#626262" stroke-linejoin="round">
                    <polyline id="Stroke-1" points="26.9087 29.6225 31.3507 29.6225 31.3507 39.9885 26.9087 39.9885"></polyline>
                    <g id="Group-8" transform="translate(0.000000, 0.642800)">
                        <path d="M26.9516,22.2428 C32.3156,19.0548 36.3316,12.8178 37.6136,5.2868 L0.0006,5.2868 C1.2826,12.8178 5.2986,19.0548 10.6626,22.2428 L10.6626,65.9998 L26.9516,65.9998 L26.9516,22.2428 Z" id="Stroke-2"></path>
                        <polyline id="Stroke-4" stroke-linecap="round" points="37.6138 5.2868 37.6138 0.3568 0.0008 0.3568 0.0008 5.2868"></polyline>
                        <path d="M26.9516,22.2428 L10.6626,22.2428" id="Stroke-6"></path>
                    </g>
                </g>
                <g id="Page-1" transform="translate(288.000000, 8.000000)" stroke="#626262" stroke-width="2" stroke-linejoin="round">
                    <polyline id="Stroke-1" stroke-linecap="round" points="40.7777 5.3438 40.7777 -0.0002 0.0007 -0.0002 0.0007 5.3438"></polyline>
                    <path d="M8.3256,28.0616 L8.3256,130.9646 C8.3256,134.2976 11.0276,136.9996 14.3596,136.9996 L26.4186,136.9996 C29.7516,136.9996 32.4526,134.2976 32.4526,130.9646 L32.4526,28.0616 L32.4716,28.0626 C38.2866,24.6056 40.7776,14.9846 40.7776,5.3436 L0.0006,5.3436 C0.0006,16.0686 2.4916,24.6056 8.3066,28.0626 L8.3256,28.0616 Z" id="Stroke-3"></path>
                    <path d="M8.4525,27.9996 L32.4525,27.9996" id="Stroke-5"></path>
                    <path d="M8.4525,121.9996 L32.4525,121.9996" id="Stroke-7"></path>
                    <path d="M26.4525,60.4996 C26.4525,63.5376 23.9895,65.9996 20.9525,65.9996 C17.9155,65.9996 15.4525,63.5376 15.4525,60.4996 C15.4525,57.4616 17.9155,54.9996 20.9525,54.9996 C23.9895,54.9996 26.4525,57.4616 26.4525,60.4996 Z" id="Stroke-9"></path>
                </g>
                <g id="Page-1" transform="translate(3.000000, 258.000000)" stroke="#626262" stroke-width="2" stroke-linecap="round" stroke-linejoin="round">
                    <path d="M98.4004,82.2001 L4.2004,82.2001 C1.8804,82.2001 0.0004,80.3201 0.0004,78.0001 L0.0004,22.8001 C0.0004,20.4801 1.8804,18.6001 4.2004,18.6001 L98.4004,18.6001 C100.7194,18.6001 102.5994,20.4801 102.5994,22.8001 L102.5994,78.0001 C102.5994,80.3201 100.7194,82.2001 98.4004,82.2001 Z" id="Stroke-1"></path>
                    <path d="M72,62.3998 C72,66.7078 68.508,70.1998 64.2,70.1998 C59.893,70.1998 56.4,66.7078 56.4,62.3998 C56.4,58.0918 59.893,54.5998 64.2,54.5998 C68.508,54.5998 72,58.0918 72,62.3998 Z" id="Stroke-3"></path>
                    <path d="M94.2002,62.3998 C94.2002,66.7078 90.7082,70.1998 86.4002,70.1998 C82.0922,70.1998 78.5992,66.7078 78.5992,62.3998 C78.5992,58.0918 82.0922,54.5998 86.4002,54.5998 C90.7082,54.5998 94.2002,58.0918 94.2002,62.3998 Z" id="Stroke-5"></path>
                    <path d="M44.3359,70.4633 L13.1359,70.4633 C11.1479,70.4633 9.5359,68.8513 9.5359,66.8633 L9.5359,32.0633 C9.5359,30.0753 11.1479,28.4633 13.1359,28.4633 L44.3359,28.4633 C46.3239,28.4633 47.9359,30.0753 47.9359,32.0633 L47.9359,66.8633 C47.9359,68.8513 46.3239,70.4633 44.3359,70.4633 Z" id="Stroke-7"></path>
                    <path d="M108.5996,58.2001 L102.5996,58.2001 L102.5996,37.2001 L108.5996,37.2001 C109.9256,37.2001 110.9996,38.2741 110.9996,39.6001 L110.9996,55.8001 C110.9996,57.1251 109.9256,58.2001 108.5996,58.2001 Z" id="Stroke-9"></path>
                    <polyline id="Stroke-11" points="135 10.8002 165 10.8002 165 18.6002 135 18.6002"></polyline>
                    <path d="M111,52.8002 L111.648,52.8002 C113.494,52.8002 115.22,51.8832 116.254,50.3552 L134.718,20.4002 L134.718,9.0002 L132.437,9.0002 C130.55,9.0002 129.028,10.5492 129.063,12.4372 L129.212,20.4002 L114.6,42.0002 L111,42.0002" id="Stroke-13"></path>
                    <path d="M89.7002,42.7499 L60.9002,42.7499 C57.7522,42.7499 55.2002,40.1979 55.2002,37.0499 C55.2002,33.9019 57.7522,31.3499 60.9002,31.3499 L89.7002,31.3499 C92.8472,31.3499 95.4002,33.9019 95.4002,37.0499 C95.4002,40.1979 92.8472,42.7499 89.7002,42.7499 Z" id="Stroke-15"></path>
                    <path d="M61.2002,37.0502 L90.0002,37.0502" id="Stroke-17"></path>
                    <path d="M80.7002,18.6 L21.9002,18.6 L26.0032,2.701 C26.4132,1.111 27.8462,0 29.4892,0 L73.1112,0 C74.7532,0 76.1862,1.111 76.5962,2.701 L80.7002,18.6 Z" id="Stroke-19"></path>
                    <path d="M74.2197,18.6 L28.3797,18.6 L31.1307,6.871 C31.2787,6.355 31.7487,6 32.2847,6 L70.3147,6 C70.8507,6 71.3217,6.355 71.4687,6.871 L74.2197,18.6 Z" id="Stroke-21"></path>
                    <path id="Stroke-23"></path>
                    <path id="Stroke-25"></path>
                    <path id="Stroke-27"></path>
                    <path id="Stroke-29"></path>
                    <path id="Stroke-31"></path>
                    <path id="Stroke-33"></path>
                    <path id="Stroke-35"></path>
                    <path id="Stroke-37"></path>
                    <path id="Stroke-39"></path>
                    <path id="Stroke-41"></path>
                    <path id="Stroke-43"></path>
                    <path id="Stroke-45"></path>
                    <path id="Stroke-47"></path>
                    <path id="Stroke-49"></path>
                    <path id="Stroke-51"></path>
                    <path id="Stroke-53"></path>
                    <path id="Stroke-55"></path>
                    <path id="Stroke-57"></path>
                    <path id="Stroke-59"></path>
                    <path id="Stroke-61"></path>
                    <path id="Stroke-63"></path>
                    <path id="Stroke-65"></path>
                    <path id="Stroke-67"></path>
                    <path id="Stroke-69"></path>
                    <path id="Stroke-71"></path>
                    <path id="Stroke-73"></path>
                    <path id="Stroke-75"></path>
                    <path id="Stroke-77"></path>
                    <path id="Stroke-79"></path>
                    <path id="Stroke-81"></path>
                    <path id="Stroke-83"></path>
                    <path id="Stroke-85"></path>
                    <path id="Stroke-87"></path>
                    <path id="Stroke-89"></path>
                    <path id="Stroke-91"></path>
                    <path id="Stroke-93"></path>
                    <path id="Stroke-95"></path>
                    <path id="Stroke-97"></path>
                    <path id="Stroke-99"></path>
                    <path id="Stroke-101"></path>
                    <path id="Stroke-103"></path>
                    <path id="Stroke-105"></path>
                    <path id="Stroke-107"></path>
                    <path id="Stroke-109"></path>
                    <path id="Stroke-111"></path>
                    <path id="Stroke-113"></path>
                    <path id="Stroke-115"></path>
                    <path id="Stroke-117"></path>
                    <path id="Stroke-119"></path>
                </g>
                <g id="Page-1" transform="translate(163.000000, 287.000000)">
                    <path d="M86.7949,33.6299 L42.6179,35.4229 C41.5839,35.4649 40.7229,34.6379 40.7229,33.6029 L40.7229,23.3979 C40.7229,22.3619 41.5839,21.5349 42.6179,21.5769 L86.7949,23.3699 C88.5859,23.4419 89.9999,24.9159 89.9999,26.7079 L89.9999,30.2919 C89.9999,32.0849 88.5859,33.5579 86.7949,33.6299 Z" id="Stroke-1" stroke="#626262" stroke-width="2" stroke-linejoin="round"></path>
                    <path d="M56.0459,35.4995 C53.6789,39.3965 49.3939,41.9995 44.4999,41.9995 C37.0439,41.9995 30.9999,35.9565 30.9999,28.4995 C30.9999,21.0435 37.0439,14.9995 44.4999,14.9995 C49.5779,14.9995 54.0019,17.8045 56.3069,21.9485" id="Stroke-3" stroke="#626262" stroke-width="2" stroke-linejoin="round"></path>
                    <path d="M80,23 L80,20.074 C80,18.376 81.376,17 83.074,17 L86.926,17 C88.624,17 90,18.376 90,20.074 L90,35.926 C90,37.624 88.624,39 86.926,39 L83.074,39 C81.376,39 80,37.624 80,35.926 L80,34" id="Stroke-5" stroke="#626262" stroke-width="2" stroke-linejoin="round"></path>
                    <path d="M84.1064,5 L26.0004,5 C26.0004,5 13.0004,5 1.0004,10 L1.0004,47 C13.0004,52 26.0004,52 26.0004,52 L84.1064,52 C90.6744,52 96.0004,46.675 96.0004,40.106 L96.0004,16.894 C96.0004,10.325 90.6744,5 84.1064,5 Z" id="Stroke-7" stroke="#626262" stroke-width="2" stroke-linejoin="round"></path>
                    <path d="M27.25,5 C17.75,5 17.75,23 17.75,28.5 C17.75,34 17.75,52 27.25,52" id="Stroke-9" stroke="#626262" stroke-width="2" stroke-linejoin="round"></path>
                    <mask id="mask-6" fill="white">
                        <use xlink:href="#path-5"></use>
                    </mask>
                    <g id="Clip-12"></g>
                    <polygon id="Stroke-11" stroke="#626262" stroke-width="2" stroke-linejoin="round" mask="url(#mask-6)" points="39 5 64 5 64 1 39 1"></polygon>
                </g>
                <g id="Page-1" transform="translate(399.000000, 272.000000)" stroke="#626262" stroke-width="2" stroke-linejoin="round">
                    <path d="M50.6744,37 C50.6744,48.874 41.0484,58.5 29.1744,58.5 C17.3004,58.5 7.6744,48.874 7.6744,37 C7.6744,25.126 17.3004,15.5 29.1744,15.5 C41.0484,15.5 50.6744,25.126 50.6744,37 Z" id="Stroke-1"></path>
                    <polyline id="Stroke-3" points="33.1031 37.354 43.3161 22.828 28.7911 33.041"></polyline>
                    <polyline id="Stroke-5" points="25.2447 36.5864 15.0317 51.1124 29.5577 40.8994"></polyline>
                    <path d="M32.0025,39.7988 C30.4405,41.3608 27.9075,41.3608 26.3455,39.7988 C24.7835,38.2368 24.7835,35.7038 26.3455,34.1418 C27.9075,32.5798 30.4405,32.5798 32.0025,34.1418 C33.5645,35.7038 33.5645,38.2368 32.0025,39.7988 Z" id="Stroke-7"></path>
                    <path d="M57.3482,36.7964 C57.3482,52.3564 44.7342,64.9704 29.1742,64.9704 C13.6142,64.9704 0.9992,52.3564 0.9992,36.7964 C0.9992,21.2364 13.6142,8.6224 29.1742,8.6224 C44.7342,8.6224 57.3482,21.2364 57.3482,36.7964 Z" id="Stroke-9"></path>
                    <path d="M50.3482,37 L45.3482,37" id="Stroke-11" stroke-linecap="round"></path>
                    <path d="M13.3482,37 L8.3482,37" id="Stroke-13" stroke-linecap="round"></path>
                    <path d="M29.3482,58 L29.3482,53" id="Stroke-15" stroke-linecap="round"></path>
                    <path d="M29.3482,21 L29.3482,16" id="Stroke-17" stroke-linecap="round"></path>
                    <path d="M35.3482,9 L35.3482,5.5 C35.3482,2.462 32.8862,0 29.8482,0 C26.8112,0 24.3482,2.462 24.3482,5.5 L24.3482,9" id="Stroke-19"></path>
                </g>
                <g id="Page-1" transform="translate(305.000000, 171.000000)">
                    <path d="M22.9766,76 L-0.0004,76 L-0.0004,37.349 C-0.0004,36.244 0.8956,35.349 1.9996,35.349 L20.9766,35.349 C22.0806,35.349 22.9766,36.244 22.9766,37.349 L22.9766,76 Z" id="Stroke-1" stroke="#626262" stroke-width="2" stroke-linejoin="round"></path>
                    <path d="M23.7442,25.5 C23.7442,27.985 21.7292,30 19.2442,30 C16.7592,30 14.7442,27.985 14.7442,25.5 C14.7442,23.015 16.7592,21 19.2442,21 C21.7292,21 23.7442,23.015 23.7442,25.5 Z" id="Stroke-3" stroke="#626262" stroke-width="2" stroke-linejoin="round"></path>
                    <path d="M14.3487,24.7441 L5.7447,24.7441 C4.6397,24.7441 3.7447,25.6401 3.7447,26.7441 L3.7447,35.3481 L19.6517,35.3481 L19.6517,30.0461 C16.7227,30.0461 14.3487,27.6721 14.3487,24.7441 Z" id="Stroke-5" stroke="#626262" stroke-width="2" stroke-linejoin="round"></path>
                    <path d="M9.1758,21.1689 C5.4128,21.1689 1.6498,18.8169 1.6498,14.5829 C1.6498,11.2899 3.0608,9.8789 3.5308,8.4679 C4.0008,7.0559 4.0008,5.6449 4.0008,4.7039 C5.4128,5.6449 5.8828,7.5269 5.8828,8.4679 C7.2938,6.1159 8.2358,3.2929 7.2938,-0.0001 C10.1168,2.3519 13.4098,6.5859 12.4688,11.2899 C13.4098,10.3489 14.3508,9.4089 14.3508,7.9969 C15.7618,9.4089 16.7028,12.7009 16.2328,15.5239 C15.7618,18.3469 13.4098,21.1689 9.1758,21.1689" id="Fill-7"></path>
                    <path d="M9.1758,21.1689 C5.4128,21.1689 1.6498,18.8169 1.6498,14.5829 C1.6498,11.2899 3.0608,9.8789 3.5308,8.4679 C4.0008,7.0559 4.0008,5.6449 4.0008,4.7039 C5.4128,5.6449 5.8828,7.5269 5.8828,8.4679 C7.2938,6.1159 8.2358,3.2929 7.2938,-0.0001 C10.1168,2.3519 13.4098,6.5859 12.4688,11.2899 C13.4098,10.3489 14.3508,9.4089 14.3508,7.9969 C15.7618,9.4089 16.7028,12.7009 16.2328,15.5239 C15.7618,18.3469 13.4098,21.1689 9.1758,21.1689 Z" id="Stroke-9" stroke="#626262" stroke-width="2" stroke-linecap="round" stroke-linejoin="round"></path>
                </g>
                <g id="Page-1" transform="translate(159.000000, 196.000000)" stroke-width="2" stroke="#626262" stroke-linejoin="round">
                    <polyline id="Stroke-1" points="91.1047 34.0774 96.8057 34.0324 96.8497 28.3324 102.5487 28.2904 102.5927 22.5894 108.2917 22.5484 108.3337 16.8484 114.0297 16.8084 114.0737 11.1084 119.7727 11.0664 124.0157 15.3084 93.9457 50.3904"></polyline>
                    <path d="M76.8107,40.5373 L76.8107,14.4773 C76.8107,6.4813 83.2927,0.0003 91.2887,0.0003 L91.2887,43.5373" id="Stroke-3"></path>
                    <path d="M30.0021,34.7146 L26.5191,31.2316 L22.6821,31.6766 L24.9081,35.5246 C25.4531,36.4656 25.2971,37.6556 24.5281,38.4246 C23.5911,39.3616 22.0701,39.3616 21.1331,38.4246 L13.8271,31.1186 L20.0571,24.7706 C14.5191,19.2316 5.5381,19.2316 0.0001,24.7706 L25.7671,50.5376" id="Stroke-5"></path>
                    <polyline id="Stroke-7" points="41.3927 40.5373 41.3927 17.0423 37.8517 10.8063 33.3777 10.8063 29.8107 17.0423 29.8107 42.5373"></polyline>
                    <path d="M84.2785,60.8059 L35.9455,60.8059 C30.3485,60.8059 25.8105,56.2689 25.8105,50.6719 C25.8105,45.0749 30.3485,40.5369 35.9455,40.5369 L84.2785,40.5369 C89.8755,40.5369 94.4125,45.0749 94.4125,50.6719 C94.4125,56.2689 89.8755,60.8059 84.2785,60.8059 Z" id="Stroke-9"></path>
                    <path d="M88.4972,50.6716 C88.4972,53.0706 86.5532,55.0146 84.1542,55.0146 C81.7562,55.0146 79.8102,53.0706 79.8102,50.6716 C79.8102,48.2736 81.7562,46.3286 84.1542,46.3286 C86.5532,46.3286 88.4972,48.2736 88.4972,50.6716 Z" id="Stroke-11"></path>
                    <path d="M40.4972,50.6716 C40.4972,53.0706 38.5532,55.0146 36.1542,55.0146 C33.7562,55.0146 31.8102,53.0706 31.8102,50.6716 C31.8102,48.2736 33.7562,46.3286 36.1542,46.3286 C38.5532,46.3286 40.4972,48.2736 40.4972,50.6716 Z" id="Stroke-13"></path>
                    <path d="M29.8107,17.0427 L41.3927,17.0427" id="Stroke-15"></path>
                    <path d="M90.8107,28.8059 C88.6017,28.8059 86.8107,25.6719 86.8107,21.8059 C86.8107,17.9399 88.6017,14.8059 90.8107,14.8059" id="Stroke-17"></path>
                </g>
                <g id="Page-1" transform="translate(413.000000, 21.000000)" stroke="#626262" stroke-width="2" stroke-linejoin="round">
                    <path d="M20,0 L0,0 L2,9 L11,9 C11,13.971 15.029,18 20,18 C24.971,18 29,13.971 29,9 C29,4.029 24.971,0 20,0 Z" id="Stroke-1"></path>
                    <path d="M13.25,4 L10.75,0" id="Stroke-3" stroke-linecap="round"></path>
                    <path d="M35,9 C35,10.657 33.657,12 32,12 C30.343,12 29,10.657 29,9 C29,7.343 30.343,6 32,6 C33.657,6 35,7.343 35,9 Z" id="Stroke-5" stroke-linecap="round"></path>
                </g>
                <g id="Page-1" transform="translate(83.000000, 97.000000)" stroke="#626262" stroke-width="2" stroke-linecap="round" stroke-linejoin="round">
                    <polyline id="Stroke-1" points="18.0558 88.4154 18.0558 29.5734 30.2688 29.5734 30.2688 88.4154"></polyline>
                    <g id="Group-12" transform="translate(0.000000, 0.229000)">
                        <path d="M6.6925,11.1611 L6.6925,13.0901 C6.6925,18.3871 9.2985,23.3451 13.6635,26.3481 L18.0165,29.3441 L30.2295,29.3441 L34.6195,26.3441 C39.0065,23.3451 41.6305,18.3721 41.6305,13.0571 L41.6305,11.1611" id="Stroke-2"></path>
                        <path d="M41.3175,11.1611 L7.0055,11.1611 C4.6485,11.1611 2.7385,9.2501 2.7385,6.8931 L2.7385,5.0371 C2.7385,2.6811 4.6485,0.7701 7.0055,0.7701 L41.3175,0.7701 C43.6745,0.7701 45.5855,2.6811 45.5855,5.0371 L45.5855,6.8931 C45.5855,9.2501 43.6745,11.1611 41.3175,11.1611 Z" id="Stroke-4"></path>
                        <polygon id="Stroke-6" points="0.0001 134.5043 0.0001 95.1493 48.3231 95.1493 48.3231 134.5043 24.1621 152.0003"></polygon>
                        <path d="M24.1622,96.3207 L24.1622,113.3757" id="Stroke-8"></path>
                        <path d="M38.5431,95.1488 L38.5431,94.5738 C38.5431,91.0928 35.7211,88.2708 32.2391,88.2708 L16.0841,88.2708 C12.6041,88.2708 9.7811,91.0928 9.7811,94.5738 L9.7811,95.1488" id="Stroke-10"></path>
                    </g>
                </g>
                <g id="Page-1" transform="translate(3.000000, 105.000000)" stroke="#626262" stroke-width="2" stroke-linecap="round" stroke-linejoin="round">
                    <path d="M36.5177,54.1906 C36.5177,45.1586 47.4157,40.0756 47.4157,24.2706 C47.4157,6.2066 34.2907,0.0006 23.7077,0.0006 C13.1247,0.0006 -0.0003,6.2066 -0.0003,24.2706 C-0.0003,40.0756 10.8987,45.1586 10.8987,54.1906" id="Stroke-1"></path>
                    <path d="M29.9181,54.1906 C29.9181,43.2106 40.5631,38.3786 40.5631,25.6186 C40.5631,11.0356 29.2911,8.0896 23.7081,8.0896 C18.1251,8.0896 6.8541,11.0356 6.8541,25.6186 C6.8541,38.3786 17.4991,43.2106 17.4991,54.1906" id="Stroke-3"></path>
                    <path d="M35.3556,76.8097 L11.1256,76.8097 C9.0436,76.8097 7.3556,75.1217 7.3556,73.0397 C7.3556,70.9577 9.0436,69.2697 11.1256,69.2697 L35.3556,69.2697 C37.4376,69.2697 39.1256,70.9577 39.1256,73.0397 C39.1256,75.1217 37.4376,76.8097 35.3556,76.8097 Z" id="Stroke-5"></path>
                    <path d="M35.3556,69.2697 L11.1256,69.2697 C9.0436,69.2697 7.3556,67.5827 7.3556,65.4997 C7.3556,63.4177 9.0436,61.7297 11.1256,61.7297 L35.3556,61.7297 C37.4376,61.7297 39.1256,63.4177 39.1256,65.4997 C39.1256,67.5827 37.4376,69.2697 35.3556,69.2697 Z" id="Stroke-7"></path>
                    <path d="M35.3556,61.7301 L11.1256,61.7301 C9.0436,61.7301 7.3556,60.0421 7.3556,57.9601 C7.3556,55.8781 9.0436,54.1901 11.1256,54.1901 L35.3556,54.1901 C37.4376,54.1901 39.1256,55.8781 39.1256,57.9601 C39.1256,60.0421 37.4376,61.7301 35.3556,61.7301 Z" id="Stroke-9"></path>
                    <path d="M23.7082,49.8888 C23.7082,40.4508 33.8202,35.0568 33.8202,26.9668 C33.8202,21.2718 29.7752,16.1798 23.7082,16.1798 C17.6412,16.1798 13.5962,21.2718 13.5962,26.9668 C13.5962,35.0568 23.7082,40.4508 23.7082,49.8888 Z" id="Stroke-11"></path>
                    <path d="M23.7082,47.0002 L23.7082,54.0002" id="Stroke-13"></path>
                    <path d="M10.8986,76.8097 C10.8986,85.8417 0.0006,90.9247 0.0006,106.7297 C0.0006,124.7927 13.1256,130.9997 23.7086,130.9997 C34.2916,130.9997 47.4166,124.7927 47.4166,106.7297 C47.4166,90.9247 36.5176,85.8417 36.5176,76.8097" id="Stroke-15"></path>
                    <path d="M17.4992,76.8097 C17.4992,87.7887 6.8532,92.6217 6.8532,105.3817 C6.8532,119.9647 18.1252,122.9097 23.7082,122.9097 C29.2912,122.9097 40.5622,119.9647 40.5622,105.3817 C40.5622,92.6217 29.9182,87.7887 29.9182,76.8097" id="Stroke-17"></path>
                    <path d="M23.7082,81.1115 C23.7082,90.5495 13.5962,95.9435 13.5962,104.0335 C13.5962,109.7285 17.6412,114.8195 23.7082,114.8195 C29.7752,114.8195 33.8202,109.7285 33.8202,104.0335 C33.8202,95.9435 23.7082,90.5495 23.7082,81.1115 Z" id="Stroke-19"></path>
                    <path d="M23.7082,84.0002 L23.7082,77.0002" id="Stroke-21"></path>
                    <path d="M39.1252,60.0002 C46.1252,60.0002 53.1252,59.0002 58.1252,48.0002 L62.1252,51.0002 C62.1252,51.0002 60.1252,65.0002 39.1252,65.5002" id="Stroke-23"></path>
                </g>
                <g id="Page-1" transform="translate(163.000000, 99.000000)" stroke="#626262" stroke-width="2" stroke-linejoin="round">
                    <polygon id="Stroke-1" points="99.0002 65.9999 66.0002 82.4999 66.0002 16.4999 99.0002 -0.0001"></polygon>
                    <polygon id="Stroke-3" points="33.0002 65.9999 0.0002 82.4999 0.0002 16.4999 33.0002 -0.0001"></polygon>
                    <polygon id="Stroke-5" points="33.0002 65.9999 66.0002 82.4999 66.0002 16.4999 33.0002 -0.0001"></polygon>
                    <path d="M12.1301,54.3749 C12.1301,45.1629 13.0971,38.3709 15.0011,34.5629 C19.5011,25.5629 25.5011,17.6629 37.5011,20.6629 C49.5011,23.6629 52.7041,52.9419 57.7501,59.2499 C63.7501,66.7499 75.7501,65.2499 78.7501,50.2499 C81.7501,35.2499 78.7501,26.2499 86.2501,23.2499 C93.7501,20.2499 98.2501,23.2499 98.2501,23.2499" id="Stroke-7" stroke-linecap="round" stroke-dasharray="4,5"></path>
                    <path d="M16.3791,54.2651 L10.9051,64.7021" id="Stroke-9" stroke-linecap="round"></path>
                    <path d="M18.8605,62.2206 L8.4235,56.7466" id="Stroke-11" stroke-linecap="round"></path>
                </g>
                <g id="Page-1" transform="translate(129.000000, 6.000000)" stroke="#626262" stroke-width="2" stroke-linecap="round" stroke-linejoin="round">
                    <path d="M23.299,15.332 C23.299,16.288 23.208,17.248 23.028,18.186 L20.144,33.274 C20.111,33.444 20.095,33.617 20.095,33.79 L20.095,36.27 C20.095,39.562 17.508,42.24 14.328,42.24 C14.235,42.24 14.141,42.238 14.046,42.233 C11.022,42.086 8.562,39.302 8.562,36.027 L8.562,33.79 C8.562,33.617 8.545,33.444 8.513,33.274 L5.628,18.185 C5.448,17.248 5.358,16.288 5.358,15.332 C5.358,10.233 9.235,5.941 13.999,5.766 C14.109,5.762 14.22,5.76 14.329,5.76 C19.275,5.76 23.299,9.926 23.299,15.046 L23.299,15.332 Z M24.277,4.017 C21.454,1.293 17.75,-0.131 13.807,0.01 C6.194,0.28 0,6.842 0,14.638 C0,15.949 0.129,17.267 0.384,18.554 L3.582,34.714 L3.582,36.991 C3.582,42.887 8.075,47.718 13.811,47.988 C13.986,47.996 14.16,48 14.334,48 C17.112,48 19.726,46.957 21.745,45.03 C23.892,42.982 25.074,40.22 25.074,37.254 L25.074,34.714 L28.273,18.554 C28.528,17.267 28.656,15.949 28.656,14.638 L28.656,14.329 C28.656,10.405 27.102,6.743 24.277,4.017 Z" id="Stroke-1"></path>
                    <path d="M25.2082,33.9199 C25.2082,35.3339 24.0622,36.4799 22.6482,36.4799 C21.2342,36.4799 20.0882,35.3339 20.0882,33.9199 C20.0882,32.5059 21.2342,31.3599 22.6482,31.3599 C24.0622,31.3599 25.2082,32.5059 25.2082,33.9199 Z" id="Stroke-3"></path>
                    <path d="M23.2883,16.6401 L28.4083,17.2801" id="Stroke-5"></path>
                </g>
                <g id="Page-1" transform="translate(69.000000, 1.000000)" stroke="#626262" stroke-width="2" stroke-linecap="round" stroke-linejoin="round">
                    <path d="M29.1233,19.165 C29.1233,20.36 29.0103,21.56 28.7863,22.731 L25.1803,41.593 C25.1393,41.805 25.1183,42.021 25.1183,42.237 L25.1183,45.338 C25.1183,49.453 21.8853,52.8 17.9103,52.8 C17.7933,52.8 17.6763,52.797 17.5583,52.791 C13.7773,52.607 10.7023,49.127 10.7023,45.034 L10.7023,42.237 C10.7023,42.021 10.6823,41.805 10.6413,41.593 L7.0343,22.731 C6.8113,21.56 6.6973,20.36 6.6973,19.165 C6.6973,12.791 11.5433,7.427 17.4983,7.207 C17.6363,7.203 17.7743,7.2 17.9113,7.2 C24.0943,7.2 29.1233,12.407 29.1233,18.807 L29.1233,19.165 Z M30.3463,5.021 C26.8183,1.616 22.1873,-0.164 17.2593,0.012 C7.7423,0.35 0.0003,8.553 0.0003,18.297 C0.0003,19.936 0.1613,21.583 0.4793,23.192 L4.4773,43.393 L4.4773,46.238 C4.4773,53.609 10.0943,59.647 17.2633,59.985 C17.4823,59.995 17.7003,60 17.9183,60 C21.3893,60 24.6573,58.696 27.1813,56.288 C29.8653,53.728 31.3433,50.275 31.3433,46.567 L31.3433,43.393 L35.3413,23.192 C35.6593,21.583 35.8203,19.936 35.8203,18.297 L35.8203,17.911 C35.8203,13.006 33.8773,8.428 30.3463,5.021 Z" id="Stroke-1"></path>
                    <path d="M31.51,42.3998 C31.51,44.1678 30.077,45.5998 28.311,45.5998 C26.543,45.5998 25.111,44.1678 25.111,42.3998 C25.111,40.6328 26.543,39.1998 28.311,39.1998 C30.077,39.1998 31.51,40.6328 31.51,42.3998 Z" id="Stroke-3"></path>
                    <path d="M29.1106,20.7997 L35.5096,21.5997" id="Stroke-5"></path>
                </g>
                <g id="Page-1" stroke="#626262" stroke-width="2" stroke-linecap="round" stroke-linejoin="round">
                    <path d="M36.4046,23.956 C36.4046,25.45 36.2626,26.95 35.9826,28.414 L31.4746,51.991 C31.4246,52.256 31.3986,52.526 31.3986,52.796 L31.3986,56.673 C31.3986,61.816 27.3556,66 22.3876,66 C22.2416,66 22.0946,65.997 21.9466,65.989 C17.2216,65.759 13.3776,61.409 13.3776,56.292 L13.3776,52.796 C13.3776,52.526 13.3516,52.256 13.3006,51.991 L8.7936,28.414 C8.5126,26.95 8.3716,25.45 8.3716,23.956 C8.3716,15.989 14.4276,9.284 21.8736,9.01 C22.0456,9.003 22.2176,9 22.3886,9 C30.1176,9 36.4046,15.509 36.4046,23.509 L36.4046,23.956 Z M37.9326,6.276 C33.5226,2.02 27.7346,-0.205 21.5736,0.015 C9.6776,0.437 0.0006,10.691 0.0006,22.871 C0.0006,24.92 0.2026,26.979 0.5996,28.99 L5.5966,54.241 L5.5966,57.798 C5.5966,67.011 12.6176,74.559 21.5796,74.981 C21.8536,74.994 22.1256,75 22.3976,75 C26.7366,75 30.8216,73.37 33.9766,70.359 C37.3316,67.159 39.1786,62.844 39.1786,58.209 L39.1786,54.241 L44.1756,28.99 C44.5736,26.979 44.7756,24.92 44.7756,22.871 L44.7756,22.388 C44.7756,16.257 42.3456,10.536 37.9326,6.276 Z" id="Stroke-1"></path>
                    <path d="M39.388,53 C39.388,55.209 37.597,57 35.388,57 C33.179,57 31.388,55.209 31.388,53 C31.388,50.791 33.179,49 35.388,49 C37.597,49 39.388,50.791 39.388,53 Z" id="Stroke-3"></path>
                    <path d="M36.388,26 L44.388,27" id="Stroke-5"></path>
                </g>
                <g id="Page-1" transform="translate(350.000000, 28.000000)" stroke-linecap="round" stroke-width="2" stroke="#626262" stroke-linejoin="round">
                    <polygon id="Stroke-1" points="12 22 28 22 28 9 12 9"></polygon>
                    <g id="Group-6">
                        <polygon id="Stroke-2" points="15 9 25 9 25 0 15 0"></polygon>
                        <path d="M28,97 L12,97 C5.4,97 0,91.6 0,85 L0,34 C0,27.4 5.4,22 12,22 L28,22 C34.6,22 40,27.4 40,34 L40,85 C40,91.6 34.6,97 28,97 Z" id="Stroke-4"></path>
                        <polygon id="Stroke-5" points="0 71 40 71 40 44 0 44"></polygon>
                    </g>
                </g>
                <g id="Page-1" transform="translate(414.000000, 95.000000)" stroke="#626262" stroke-width="2" stroke-linecap="round" stroke-linejoin="round">
                    <polygon id="Stroke-1" points="0 28.4366 12.993 28.4366 12.993 3.3086 0 3.3086"></polygon>
                    <path d="M12.9936,12 L0.0006,12" id="Stroke-3"></path>
                    <polyline id="Stroke-4" points="3.228 3.3081 3.228 0.0001 10.061 0.0001 10.061 3.3081"></polyline>
                </g>
                <g id="Page-1-Copy-31" transform="translate(414.000000, 52.000000)" stroke="#626262" stroke-width="2" stroke-linecap="round" stroke-linejoin="round">
                    <polygon id="Stroke-1" points="0 28.4366 12.993 28.4366 12.993 3.3086 0 3.3086"></polygon>
                    <path d="M12.9936,12 L0.0006,12" id="Stroke-3"></path>
                    <polyline id="Stroke-4" points="3.228 3.3081 3.228 0.0001 10.061 0.0001 10.061 3.3081"></polyline>
                </g>
                <g id="Page-1-Copy-30" transform="translate(437.000000, 95.000000)" stroke="#626262" stroke-width="2" stroke-linecap="round" stroke-linejoin="round">
                    <polygon id="Stroke-1" points="0 28.4366 12.993 28.4366 12.993 3.3086 0 3.3086"></polygon>
                    <path d="M12.9936,12 L0.0006,12" id="Stroke-3"></path>
                    <polyline id="Stroke-4" points="3.228 3.3081 3.228 0.0001 10.061 0.0001 10.061 3.3081"></polyline>
                </g>
                <g id="Page-1-Copy-32" transform="translate(437.000000, 52.000000)" stroke="#626262" stroke-width="2" stroke-linecap="round" stroke-linejoin="round">
                    <polygon id="Stroke-1" points="0 28.4366 12.993 28.4366 12.993 3.3086 0 3.3086"></polygon>
                    <path d="M12.9936,12 L0.0006,12" id="Stroke-3"></path>
                    <polyline id="Stroke-4" points="3.228 3.3081 3.228 0.0001 10.061 0.0001 10.061 3.3081"></polyline>
                </g>
                <g id="Page-1" transform="translate(333.000000, 274.000000)" stroke="#626262" stroke-width="2" stroke-linecap="round">
                    <path d="M43.7822,53.539 C42.8702,51.654 40.9582,50.344 38.7232,50.344 C35.6112,50.344 33.0892,52.866 33.0892,55.978 C33.0892,56.048 30.7662,55.161 28.7662,56.161 C26.7662,57.161 25.7662,59.161 26.0462,62.317 L52.7662,62.317 C54.7662,55.161 48.7662,51.161 43.7822,53.539 Z" id="Stroke-1"></path>
                    <path d="M21.4619,21.1289 C21.4619,24.2409 18.9399,26.7629 15.8279,26.7629 C12.7159,26.7629 10.1929,24.2409 10.1929,21.1289 C10.1929,18.0179 12.7159,15.4939 15.8279,15.4939 C18.9399,15.4939 21.4619,18.0179 21.4619,21.1289 Z" id="Stroke-3"></path>
                    <path d="M43.292,52.7441 C43.85,48.2021 44,43.2101 44,41.2151 C44,38.8901 43.796,32.5001 42.982,27.4901 C42.286,23.2101 38.549,20.0861 34.212,20.0861 L24.18,20.0861 C23.226,20.0861 22.3,20.2371 21.429,20.5181" id="Stroke-5"></path>
                    <path d="M15.5605,26.7597 C15.5045,26.9847 15.4575,27.2117 15.4185,27.4447 C14.6215,32.2597 14.4185,38.4477 14.4185,41.2147 C14.4185,43.9827 14.6215,50.1697 15.4185,54.9867 C16.1245,59.2467 19.8595,62.3437 24.1795,62.3437 L34.2115,62.3437" id="Stroke-7"></path>
                    <path d="M24.2793,26.7637 C20.0533,28.1727 20.0533,33.8067 20.0533,45.0757" id="Stroke-9"></path>
                    <path d="M29.9141,8.4521 C29.9141,10.7861 28.0221,12.6781 25.6881,12.6781 C23.3541,12.6781 21.4621,10.7861 21.4621,8.4521 C21.4621,6.1181 23.3541,4.2251 25.6881,4.2251 C28.0221,4.2251 29.9141,6.1181 29.9141,8.4521 Z" id="Stroke-11"></path>
                    <path d="M15.8281,2.8174 C15.8281,4.3734 14.5661,5.6334 13.0111,5.6334 C11.4551,5.6334 10.1931,4.3734 10.1931,2.8174 C10.1931,1.2604 11.4551,0.0004 13.0111,0.0004 C14.5661,0.0004 15.8281,1.2604 15.8281,2.8174 Z" id="Stroke-13"></path>
                    <path d="M14,47.3437 C10,47.3437 6,50.3437 6,54.3437 C3,54.3437 0,56.3437 0,60.3437 L18,60.3437" id="Stroke-15"></path>
                </g>
            </g>
        </g>
    </g>
</svg>