<?xml version="1.0" encoding="UTF-8" standalone="no"?>
<svg width="199px" height="266px" viewBox="0 0 199 266" version="1.1" xmlns="http://www.w3.org/2000/svg" xmlns:xlink="http://www.w3.org/1999/xlink">
    <!-- Generator: Sketch 41.1 (35376) - http://www.bohemiancoding.com/sketch -->
    <title>5 copy 2</title>
    <desc>Created with Sketch.</desc>
    <defs></defs>
    <g id="Page-1" stroke="none" stroke-width="1" fill="none" fill-rule="evenodd">
        <path d="M0,186.8 C3.2,227.6 42.4,266 98.8,266 C161.2,266 198.4,224 198.4,175.6 C198.4,120 161.6,88.8 109.6,88.8 C92.4,88.8 74,94.4 62.8,104.8 L75.6,47.6 L184.4,47.6 L184.4,0 L38,0 L7.2,133.2 C12.8,134.8 52.4,148.4 57.6,150.4 C66,140.8 80,132.8 97.6,132.8 C121.6,132.8 143.6,146.8 143.6,176.4 C143.6,202.4 123.6,218.8 98.8,218.8 C71.2,218.8 52.8,199.2 51.6,175.2 L0,186.8 Z" id="5-copy-2" fill="#EEEFF1"></path>
    </g>
</svg>