<?xml version="1.0" encoding="UTF-8" standalone="no"?>
<svg width="151px" height="107px" viewBox="0 0 151 107" version="1.1" xmlns="http://www.w3.org/2000/svg" xmlns:xlink="http://www.w3.org/1999/xlink">
    <!-- Generator: Sketch 40.2 (33826) - http://www.bohemiancoding.com/sketch -->
    <title>Logo</title>
    <desc>Created with Sketch.</desc>
    <defs>
        <polygon id="path-1" points="122.786292 0.022 0 0.022 0 106.9999 122.786292 106.9999 122.786292 0.022"></polygon>
        <polygon id="path-3" points="56.844 46.3751 56.844 0.0224194197 0.804208294 0.0224194197 0.804208294 46.3751 56.844 46.3751"></polygon>
    </defs>
    <g id="Symbols" stroke="none" stroke-width="1" fill="none" fill-rule="evenodd">
        <g id="Logo" transform="translate(0.000000, -1.000000)">
            <g>
                <g id="Group-3" transform="translate(0.000000, 0.978000)">
                    <mask id="mask-2" fill="white">
                        <use xlink:href="#path-1"></use>
                    </mask>
                    <g id="Clip-2"></g>
                    <path d="M34.0795,90.1519 L11.5515,61.7959 L39.9435,39.3439 L34.0795,90.1519 Z M121.7495,1.8439 C120.1035,-0.2361 117.0835,-0.5861 115.0065,1.0589 L77.6675,30.6099 L80.6285,5.3819 C80.8545,3.4539 79.8975,1.5789 78.2015,0.6319 C76.5065,-0.3171 74.4085,-0.1441 72.8835,1.0579 L52.1335,17.4659 L53.5295,5.3739 C53.7515,3.4449 52.7905,1.5719 51.0955,0.6289 C49.3945,-0.3181 47.2995,-0.1461 45.7795,1.0609 L21.5975,20.2219 C19.5205,21.8669 19.1705,24.8869 20.8175,26.9639 C22.4615,29.0409 25.4805,29.3909 27.5605,27.7449 L42.6645,15.7779 L41.4985,25.8759 L1.8225,57.2489 C0.8225,58.0399 0.1785,59.1969 0.0315,60.4629 C-0.1145,61.7289 0.2485,63.0019 1.0415,63.9999 L33.7615,105.1859 C34.6865,106.3509 36.0795,106.9999 37.5205,106.9999 C37.9595,106.9999 38.4025,106.9399 38.8385,106.8159 C40.7045,106.2829 42.0655,104.6789 42.2885,102.7509 L50.5785,30.9349 L69.7425,15.7809 L66.7805,41.0159 C66.5545,42.9449 67.5135,44.8199 69.2085,45.7669 C70.9035,46.7139 73.0035,46.5439 74.5265,45.3389 L120.9645,8.5869 C123.0435,6.9419 123.3955,3.9229 121.7495,1.8439 L121.7495,1.8439 Z" id="Fill-1" fill="#FFFFFF" mask="url(#mask-2)"></path>
                </g>
                <g id="Group-6" transform="translate(94.000000, 0.978000)">
                    <mask id="mask-4" fill="white">
                        <use xlink:href="#path-3"></use>
                    </mask>
                    <g id="Clip-5"></g>
                    <path d="M55.808,1.8441 C54.162,-0.2359 51.143,-0.5859 49.065,1.0591 L2.626,37.8111 C0.547,39.4571 0.195,42.4751 1.841,44.5541 C2.789,45.7521 4.192,46.3751 5.608,46.3751 C6.651,46.3751 7.703,46.0371 8.584,45.3391 L55.023,8.5871 C57.102,6.9421 57.453,3.9231 55.808,1.8441" id="Fill-4" fill="#FFFFFF" mask="url(#mask-4)"></path>
                </g>
            </g>
        </g>
    </g>
</svg>