<?xml version="1.0" encoding="UTF-8" standalone="no"?>
<svg width="46px" height="65px" viewBox="0 0 46 65" version="1.1" xmlns="http://www.w3.org/2000/svg" xmlns:xlink="http://www.w3.org/1999/xlink">
    <!-- Generator: Sketch 41.1 (35376) - http://www.bohemiancoding.com/sketch -->
    <title>Group 2</title>
    <desc>Created with Sketch.</desc>
    <defs></defs>
    <g id="Page-1" stroke="none" stroke-width="1" fill="none" fill-rule="evenodd">
        <g id="have-a-plan" transform="translate(-738.000000, -947.000000)">
            <g id="Group-2" transform="translate(739.000000, 948.000000)">
                <g id="Page-1">
                    <path d="M22.3996,63 C11.2006,63 0.0006,56 0.0006,43.4 C0.0006,33.6 4.2006,29.4 5.5996,25.2 C7.0006,21 7.0006,16.8 7.0006,14 C11.2006,16.8 12.5996,22.4 12.5996,25.2 C16.7996,18.2 19.5996,9.8 16.7996,0 C25.2006,7 35.0006,19.6 32.2006,33.6 C35.0006,30.8 37.7996,28 37.7996,23.8 C42.0006,28 44.7996,37.8 43.3996,46.2 C42.0006,54.6 35.0006,63 22.3996,63" id="Fill-1" fill="#FFFFFF"></path>
                    <path d="M22.3996,63 C11.2006,63 0.0006,56 0.0006,43.4 C0.0006,33.6 4.2006,29.4 5.5996,25.2 C7.0006,21 7.0006,16.8 7.0006,14 C11.2006,16.8 12.5996,22.4 12.5996,25.2 C16.7996,18.2 19.5996,9.8 16.7996,0 C25.2006,7 35.0006,19.6 32.2006,33.6 C35.0006,30.8 37.7996,28 37.7996,23.8 C42.0006,28 44.7996,37.8 43.3996,46.2 C42.0006,54.6 35.0006,63 22.3996,63 L22.3996,63 Z" id="Stroke-3" stroke="#626262" stroke-width="2" stroke-linecap="round" stroke-linejoin="round"></path>
                    <path d="M22.3996,63 C15.2606,63 7.9396,56.241 9.0996,46.375 C9.7996,40.425 15.3996,36.4 18.2006,33.6 C21.0006,30.8 22.3996,28 22.3996,23.8 C25.2006,28 28.0006,35 28.0006,42 C30.6886,41.604 33.5996,39.2 35.0006,37.8 C35.4436,42.792 37.8206,46.358 37.5886,50.611 C37.2336,57.118 33.0666,63 22.3996,63 L22.3996,63 Z" id="Stroke-5" stroke="#626262" stroke-width="2" stroke-linecap="round" stroke-linejoin="round"></path>
                </g>
            </g>
        </g>
    </g>
</svg>