<?xml version="1.0" encoding="UTF-8" standalone="no"?>
<svg width="66px" height="64px" viewBox="0 0 66 64" version="1.1" xmlns="http://www.w3.org/2000/svg" xmlns:xlink="http://www.w3.org/1999/xlink">
    <!-- Generator: Sketch 41.1 (35376) - http://www.bohemiancoding.com/sketch -->
    <title>Group 5</title>
    <desc>Created with Sketch.</desc>
    <defs></defs>
    <g id="Page-1" stroke="none" stroke-width="1" fill="none" fill-rule="evenodd" stroke-linecap="round">
        <g id="have-a-plan" transform="translate(-731.000000, -1318.000000)" stroke-width="2" stroke="#626262">
            <g id="Group-5" transform="translate(732.000000, 1318.000000)">
                <g id="Page-1">
                    <path d="M54.9746,16.4995 C54.9806,16.3325 54.9996,16.1685 54.9996,15.9995 C54.9996,7.7155 48.2846,0.9995 39.9996,0.9995 C34.5406,0.9995 29.7786,3.9255 27.1546,8.2845 C25.6166,7.4665 23.8636,6.9995 21.9996,6.9995 C15.9246,6.9995 10.9996,11.9245 10.9996,17.9995 C10.9996,18.3985 11.0236,18.7925 11.0656,19.1805 C5.9136,20.0965 1.9996,24.5855 1.9996,29.9995 C1.9996,36.0755 6.9246,40.9995 12.9996,40.9995 L51.4996,40.9995 C58.4036,40.9995 63.9996,35.4035 63.9996,28.4995 C63.9996,22.8035 60.1856,18.0065 54.9746,16.4995 L54.9746,16.4995 Z" id="Stroke-1"></path>
                    <path d="M43,34 L30,60" id="Stroke-3"></path>
                    <path d="M50,41 L42,57" id="Stroke-5"></path>
                    <path d="M24,53 L19,63" id="Stroke-7"></path>
                    <path d="M20.5,41 L14,54" id="Stroke-9"></path>
                    <path d="M12.5,35 L0,60" id="Stroke-11"></path>
                </g>
            </g>
        </g>
    </g>
</svg>