<?xml version="1.0" encoding="UTF-8" standalone="no"?>
<svg width="52px" height="60px" viewBox="0 0 52 60" version="1.1" xmlns="http://www.w3.org/2000/svg" xmlns:xlink="http://www.w3.org/1999/xlink">
    <!-- Generator: Sketch 41.1 (35376) - http://www.bohemiancoding.com/sketch -->
    <title>Group 7</title>
    <desc>Created with Sketch.</desc>
    <defs></defs>
    <g id="Page-1" stroke="none" stroke-width="1" fill="none" fill-rule="evenodd" stroke-linecap="round">
        <g id="have-a-plan" transform="translate(-734.000000, -1654.000000)" stroke-width="2" stroke="#626262">
            <g id="Group-7" transform="translate(735.000000, 1655.000000)">
                <g id="Page-1">
                    <path d="M9.1747,2.064 C-1.8593,9.058 -4.3923,27.683 9.6977,32.276 C26.8617,37.871 48.4047,25.563 49.6317,12.135 C50.8617,-1.339 34.9197,-2.412 22.6597,3.183 C10.4007,8.778 8.4247,20.751 16.5297,23.324 C23.5797,25.563 33.6937,21.086 37.3717,15.492 C41.4097,9.348 32.0357,6.047 23.6977,12 C18.2837,15.865 21.6977,18 24.6977,17" id="Stroke-1"></path>
                    <path d="M14.6982,39 C23.1982,41.5 39.6982,40 47.6982,28" id="Stroke-3"></path>
                    <path d="M21.6982,46 C28.6982,48 37.6982,46 43.6982,41" id="Stroke-5"></path>
                    <path d="M25.6982,52 C30.6982,53 34.6982,53 38.6982,51" id="Stroke-7"></path>
                    <path d="M27.6982,57 C29.6982,58 31.6982,58 33.6982,57" id="Stroke-9"></path>
                </g>
            </g>
        </g>
    </g>
</svg>