<?xml version="1.0" encoding="UTF-8" standalone="no"?>
<svg width="89px" height="57px" viewBox="0 0 89 57" version="1.1" xmlns="http://www.w3.org/2000/svg" xmlns:xlink="http://www.w3.org/1999/xlink">
    <!-- Generator: Sketch 41.1 (35376) - http://www.bohemiancoding.com/sketch -->
    <title>Group 7</title>
    <desc>Created with Sketch.</desc>
    <defs></defs>
    <g id="Page-1" stroke="none" stroke-width="1" fill="none" fill-rule="evenodd" stroke-linecap="round">
        <g id="have-a-plan" transform="translate(-731.000000, -1680.000000)" stroke-width="2" stroke="#626262">
            <g id="Group-7" transform="translate(732.000000, 1681.000000)">
                <g id="Page-1">
                    <path d="M0,0 L60.633,0" id="Stroke-1"></path>
                    <path d="M5.7998,8.1426 L56.5998,8.1426" id="Stroke-3"></path>
                    <path d="M14,17.2861 L52,17.2861" id="Stroke-4"></path>
                    <path d="M18.2998,25.4287 L49.6998,25.4287" id="Stroke-5"></path>
                    <path d="M18.5,33.5713 L43.5,33.5713" id="Stroke-6"></path>
                    <path d="M19.8999,41.7139 L37.9999,41.7139" id="Stroke-7"></path>
                    <path d="M25.8999,48.8574 L35.9999,48.8574" id="Stroke-8"></path>
                    <g id="Group-14" transform="translate(31.000000, 36.900000)">
                        <g id="Group-11" transform="translate(0.000000, 18.000000)">
                            <path d="M0.7002,0.0004 L9.8902,0.0004" id="Stroke-9"></path>
                        </g>
                        <path d="M42.25,5.3959 C40.94,2.6889 38.195,0.8079 34.986,0.8079 C30.518,0.8079 26.896,4.4289 26.896,8.8979 C24.154,8.0629 20.471,8.5569 17.667,9.6369 C13.324,11.3109 10.307,15.1249 9.89,17.9999 L55.15,17.9999 C58.022,7.7249 49.406,1.9809 42.25,5.3959 Z" id="Stroke-12" stroke-linejoin="round"></path>
                    </g>
                </g>
            </g>
        </g>
    </g>
</svg>