<?xml version="1.0" encoding="UTF-8" standalone="no"?>
<svg width="67px" height="68px" viewBox="0 0 67 68" version="1.1" xmlns="http://www.w3.org/2000/svg" xmlns:xlink="http://www.w3.org/1999/xlink">
    <!-- Generator: Sketch 41.1 (35376) - http://www.bohemiancoding.com/sketch -->
    <title>Group 8</title>
    <desc>Created with Sketch.</desc>
    <defs></defs>
    <g id="Page-1" stroke="none" stroke-width="1" fill="none" fill-rule="evenodd" stroke-linecap="round">
        <g id="have-a-plan" transform="translate(-158.000000, -1998.000000)" stroke-width="2" stroke="#626262">
            <g id="Group-8" transform="translate(159.000000, 1998.000000)">
                <g id="Page-1">
                    <path d="M55.25,35 L36,54.25" id="Stroke-1"></path>
                    <path d="M38,15.5 L11,42.5" id="Stroke-2"></path>
                    <g id="Group-15" transform="translate(0.000000, 0.250000)">
                        <path d="M65,5.75 L39.25,31.5" id="Stroke-3"></path>
                        <path d="M34,0.75 L20,14.75" id="Stroke-5"></path>
                        <path d="M35,61 C35,63.761 32.761,66 30,66 C27.239,66 25,63.761 25,61 C25,58.239 27.239,56 30,56 C32.761,56 35,58.239 35,61 L35,61 Z" id="Stroke-7"></path>
                        <path d="M38,37.75 C38,40.511 35.761,42.75 33,42.75 C30.239,42.75 28,40.511 28,37.75 C28,34.989 30.239,32.75 33,32.75 C35.761,32.75 38,34.989 38,37.75 L38,37.75 Z" id="Stroke-9"></path>
                        <path d="M18,20.75 C18,23.511 15.761,25.75 13,25.75 C10.239,25.75 8,23.511 8,20.75 C8,17.989 10.239,15.75 13,15.75 C15.761,15.75 18,17.989 18,20.75 L18,20.75 Z" id="Stroke-11"></path>
                        <path d="M10,48.75 C10,51.511 7.761,53.75 5,53.75 C2.239,53.75 0,51.511 0,48.75 C0,45.989 2.239,43.75 5,43.75 C7.761,43.75 10,45.989 10,48.75 L10,48.75 Z" id="Stroke-13"></path>
                    </g>
                </g>
            </g>
        </g>
    </g>
</svg>