<svg xmlns="http://www.w3.org/2000/svg" viewBox="0 0 426.56 390.86"><defs><style>.cls-1,.cls-3,.cls-4,.cls-5{fill:none;stroke:#fff;stroke-width:1.52px;}.cls-1,.cls-3,.cls-4{stroke-linejoin:round;}.cls-2{isolation:isolate;}.cls-3,.cls-4,.cls-5{stroke-linecap:round;}.cls-4{stroke-dasharray:3.05 3.81;}.cls-5{stroke-miterlimit:10;}</style></defs><title>Asset 2</title><g id="Layer_2" data-name="Layer 2"><g id="Designs"><rect class="cls-1" x="245.76" y="344.51" width="65.53" height="44.56" rx="3.93" ry="3.93"/><path class="cls-1" d="M262.8,344.29v-7.08a3.49,3.49,0,0,1,3.57-3.4h24.31a3.49,3.49,0,0,1,3.57,3.4v7.08"/><polygon class="cls-1" points="290.32 362.64 282.45 362.64 282.45 354.77 274.59 354.77 274.59 362.64 266.73 362.64 266.73 370.5 274.59 370.5 274.59 378.36 282.45 378.36 282.45 370.5 290.32 370.5 290.32 362.64"/><path class="cls-1" d="M266.68,344.29v-6a.89.89,0,0,1,.89-.89h21.9a.89.89,0,0,1,.89.89v6"/><path class="cls-1" d="M386.8,302.48l-33.66,1.37a1.39,1.39,0,0,1-1.44-1.39v-7.78a1.39,1.39,0,0,1,1.44-1.39l33.66,1.37a2.55,2.55,0,0,1,2.44,2.54v2.73A2.54,2.54,0,0,1,386.8,302.48Z"/><path class="cls-1" d="M363.37,303.91a10.29,10.29,0,1,1,.2-10.33"/><path class="cls-1" d="M381.62,294.38v-2.23a2.34,2.34,0,0,1,2.34-2.34h2.94a2.34,2.34,0,0,1,2.34,2.34v12.08a2.34,2.34,0,0,1-2.34,2.34H384a2.34,2.34,0,0,1-2.34-2.34v-1.47"/><path class="cls-1" d="M384.75,280.67H340.48a56.13,56.13,0,0,0-19,3.81v28.19a56.13,56.13,0,0,0,19,3.81h44.28a9.06,9.06,0,0,0,9.06-9.06V289.73A9.06,9.06,0,0,0,384.75,280.67Z"/><path class="cls-1" d="M341.43,280.67c-7.24,0-7.24,13.72-7.24,17.91s0,17.91,7.24,17.91"/><g class="cls-2"><rect class="cls-1" x="350.38" y="277.62" width="19.05" height="3.05"/></g><circle class="cls-1" cx="356.86" cy="105.77" r="19.77"/><polyline class="cls-1" points="360.47 106.09 369.86 92.74 356.51 102.13"/><polyline class="cls-1" points="353.25 105.39 343.86 118.75 357.21 109.36"/><circle class="cls-1" cx="356.86" cy="105.74" r="3.68" transform="translate(29.75 283.31) rotate(-45)"/><circle class="cls-1" cx="356.86" cy="105.58" r="25.91"/><line class="cls-3" x1="376.33" y1="105.77" x2="371.73" y2="105.77"/><line class="cls-3" x1="342.31" y1="105.77" x2="337.71" y2="105.77"/><line class="cls-3" x1="357.02" y1="125.08" x2="357.02" y2="120.48"/><line class="cls-3" x1="357.02" y1="91.06" x2="357.02" y2="86.46"/><path class="cls-1" d="M362.54,80V76.8a5.06,5.06,0,0,0-10.11,0V80"/><polyline class="cls-1" points="180.09 26.73 184.44 26.69 184.47 22.35 188.81 22.32 188.84 17.98 193.19 17.94 193.22 13.6 197.56 13.57 197.59 9.23 201.94 9.19 205.17 12.43 182.26 39.16"/><path class="cls-1" d="M169.2,31.65V11.79a11,11,0,0,1,11-11V33.94"/><path class="cls-1" d="M133.53,27.21l-2.65-2.65L128,24.9l1.7,2.93A1.83,1.83,0,0,1,126.77,30l-5.57-5.57L126,19.64a10.81,10.81,0,0,0-15.28,0l19.63,19.63"/><polyline class="cls-1" points="142.21 31.65 142.21 13.75 139.51 9 136.1 9 133.39 13.75 133.39 33.17"/><path class="cls-1" d="M174.89,47.1H138.06a7.72,7.72,0,1,1,0-15.44h36.83a7.72,7.72,0,0,1,0,15.44Z"/><circle class="cls-1" cx="174.8" cy="39.37" r="3.31"/><circle class="cls-1" cx="138.22" cy="39.37" r="3.31"/><line class="cls-1" x1="133.39" y1="13.75" x2="142.21" y2="13.75"/><path class="cls-1" d="M179.87,22.71c-1.68,0-3-2.39-3-5.33s1.36-5.33,3-5.33"/><polygon class="cls-1" points="96.66 122.76 71.51 135.34 71.51 85.04 96.66 72.47 96.66 122.76"/><polygon class="cls-1" points="46.37 122.76 21.22 135.34 21.22 85.04 46.37 72.47 46.37 122.76"/><polygon class="cls-1" points="46.37 122.76 71.51 135.34 71.51 85.04 46.37 72.47 46.37 122.76"/><path class="cls-4" d="M30.46,113.9c0-7,.74-12.19,2.19-15.1,3.43-6.86,8-12.88,17.14-10.59s11.58,24.6,15.43,29.4c4.57,5.71,13.72,4.57,16-6.86s0-18.29,5.71-20.57,9.14,0,9.14,0"/><line class="cls-3" x1="33.7" y1="113.82" x2="29.53" y2="121.77"/><line class="cls-3" x1="35.59" y1="119.88" x2="27.64" y2="115.71"/><path class="cls-3" d="M155.13,352h36.32a3.81,3.81,0,1,1,0,7.62H155.63a7.62,7.62,0,0,1,0-15.24h35.81a3.81,3.81,0,1,1,0,7.62H155.12"/><path class="cls-3" d="M154.87,359.62H137.35a7.62,7.62,0,1,1,0-15.24h17.53"/><path class="cls-3" d="M155.13,367.24h36.32a3.81,3.81,0,1,1,0,7.62H155.63a7.62,7.62,0,0,1,0-15.24h35.81a3.81,3.81,0,1,1,0,7.62H155.12"/><path class="cls-3" d="M154.87,374.86H137.35a7.62,7.62,0,1,1,0-15.24h17.53"/><path class="cls-3" d="M155.13,382.48h36.32a3.81,3.81,0,1,1,0,7.62H155.63a7.62,7.62,0,0,1,0-15.24h35.81a3.81,3.81,0,0,1,0,7.62H155.12"/><path class="cls-3" d="M154.87,390.1H137.35a7.62,7.62,0,1,1,0-15.24h17.53"/><path class="cls-3" d="M31.76,297.72c2.68,4.67,2,15.21,2,15.21"/><path class="cls-3" d="M104.17,297.67c-7.66,0-15.32,5.08-15.32,15.25"/><path class="cls-3" d="M52.52,297.72c2.68,4.67,2,15.21,2,15.21"/><path class="cls-1" d="M88,285v-4.67s-1.34-4.67-12.72-4.67c0,.95,2,10-1.76,14.33s-23,7.63-23,7.63a12.74,12.74,0,0,0-12.77,12.71v2.54h66.29V287.72"/><line class="cls-3" x1="75.83" y1="285.56" x2="81.98" y2="287.05"/><line class="cls-3" x1="71.58" y1="292.38" x2="74.62" y2="297.05"/><line class="cls-3" x1="67.92" y1="294.38" x2="69.93" y2="299.05"/><line class="cls-3" x1="63.32" y1="295.8" x2="64.57" y2="300.38"/><path class="cls-1" d="M37.79,312.93v5.46h8l2.14-1.7a3,3,0,0,1,3.75,0l2.14,1.7h6l2.14-1.7a3,3,0,0,1,3.75,0l2.14,1.7h6l2.35-1.79a3,3,0,0,1,3.67,0l2.3,1.78h5.95l2.08-1.67a3,3,0,0,1,3.78,0l2.08,1.67h7.93v-5.46"/><line class="cls-3" x1="73.95" y1="289.72" x2="79.12" y2="292.58"/><path class="cls-1" d="M88,285c0,6.67-5.36,17.34-27.45,18.67-1.34-4.67-2.18-7.36-2.18-7.36"/><path class="cls-1" d="M88,281.72h16a1.39,1.39,0,0,1,1.39,1.39v3.23a1.39,1.39,0,0,1-1.39,1.39H88"/><path class="cls-1" d="M67.25,285v-4.67s-1.34-4.67-12.72-4.67c0,.95,2,10-1.76,14.33s-23,7.63-23,7.63A12.74,12.74,0,0,0,17,310.39v2.54H41.3"/><line class="cls-3" x1="55.07" y1="285.56" x2="61.22" y2="287.05"/><line class="cls-3" x1="50.83" y1="292.38" x2="53.86" y2="297.05"/><line class="cls-3" x1="47.16" y1="294.38" x2="48.64" y2="297.82"/><line class="cls-3" x1="42.56" y1="295.8" x2="43.63" y2="299.71"/><path class="cls-1" d="M17,312.93v5.46h8l2.14-1.7a3,3,0,0,1,3.75,0l2.14,1.7h6"/><line class="cls-3" x1="53.19" y1="289.72" x2="58.36" y2="292.58"/><path class="cls-1" d="M39.8,303.72c-1.34-4.67-2.18-7.36-2.18-7.36"/><path class="cls-1" d="M67.25,285a14.89,14.89,0,0,1-3.93,9.82"/><line class="cls-1" x1="74.91" y1="287.72" x2="67.25" y2="287.72"/><line class="cls-1" x1="67.25" y1="281.72" x2="75.82" y2="281.72"/><path class="cls-5" d="M10.67,204.06,12,232.74a3.64,3.64,0,1,1-7.26,0L6.1,204.06"/><path class="cls-5" d="M16,194.92c0,6.31-3.41,9.14-7.62,9.14S.76,201.23.76,194.92,4.17,181.2,8.38,181.2,16,188.61,16,194.92Z"/><path class="cls-5" d="M31.43,236.83H28.88a3.7,3.7,0,0,1-3.69-3.92l2.06-23.52h5.33v26.29A1.14,1.14,0,0,1,31.43,236.83Z"/><path class="cls-5" d="M32.57,209.4H27.24l-1.91-2.19a4.64,4.64,0,0,1-1.14-3V184.25c0-6.86,3.41-11.43,7.62-11.43a.76.76,0,0,1,.76.76V209.4Z"/><path class="cls-3" d="M41.72,180.44,40.19,197.2c0,6.31,4.17,6.86,8.38,6.86S57,203.52,57,197.2l-1.52-16.76"/><path class="cls-5" d="M50.86,204.06l1.35,28.67a3.64,3.64,0,1,1-7.26,0l1.35-28.67"/><line class="cls-3" x1="40.47" y1="194.16" x2="56.68" y2="194.16"/><line class="cls-3" x1="45.91" y1="194.16" x2="45.91" y2="180.44"/><line class="cls-3" x1="50.86" y1="194.16" x2="50.86" y2="180.44"/><polyline class="cls-3" points="419.42 223.97 419.42 237.78 400.28 237.78 400.28 227.57"/><polyline class="cls-3" points="400.28 214.33 400.28 191.84 419.42 191.84 419.42 214.33"/><polygon class="cls-1" points="399.01 214.33 420.7 214.33 425.8 226.97 417.9 223.26 411.58 230.12 406.66 222.22 397.73 229.64 397.73 222.22 390.07 224.53 399.01 214.33"/><line class="cls-5" x1="416.36" y1="199.76" x2="414.32" y2="198.22"/><line class="cls-5" x1="406.66" y1="204.6" x2="404.22" y2="205.34"/><line class="cls-5" x1="414.08" y1="209.71" x2="411.77" y2="208.64"/><line class="cls-5" x1="406.66" y1="199.05" x2="404.78" y2="200.77"/><rect class="cls-3" x="352.29" y="171.87" width="24.69" height="8.01"/><path class="cls-3" d="M374.77,237.78H354.5a4.43,4.43,0,0,1-4.43-4.43v-46.2a3.29,3.29,0,0,1,3.29-3.29h22.54a3.29,3.29,0,0,1,3.29,3.29v46.2A4.43,4.43,0,0,1,374.77,237.78Z"/><line class="cls-1" x1="355.08" y1="179.88" x2="355.08" y2="184.07"/><line class="cls-1" x1="374.2" y1="179.88" x2="374.2" y2="184.07"/><path class="cls-1" d="M376.72,174.24c11.13-3.76,12.67,10,1.57,10.74"/><line class="cls-3" x1="350.37" y1="197.37" x2="357.66" y2="197.37"/><line class="cls-3" x1="350.37" y1="204.84" x2="357.66" y2="204.84"/><line class="cls-3" x1="350.37" y1="212.3" x2="357.66" y2="212.3"/><line class="cls-3" x1="350.37" y1="219.76" x2="357.66" y2="219.76"/><line class="cls-3" x1="350.37" y1="227.22" x2="357.66" y2="227.22"/><line class="cls-3" x1="356.9" y1="178.97" x2="356.9" y2="175.96"/><line class="cls-3" x1="360.77" y1="178.97" x2="360.77" y2="175.96"/><line class="cls-3" x1="364.64" y1="178.97" x2="364.64" y2="175.96"/><line class="cls-3" x1="368.51" y1="178.97" x2="368.51" y2="175.96"/><line class="cls-3" x1="372.37" y1="178.97" x2="372.37" y2="175.96"/><path class="cls-1" d="M350.07,192c4.55-2.45,9.92-.64,14.57.91,5.46,1.82,10,1.82,14.57-1.82"/><rect class="cls-3" x="248" y="10.88" width="65.61" height="40.01" rx="4.33" ry="4.33"/><circle class="cls-3" cx="266.03" cy="28.19" r="4.33"/><path class="cls-3" d="M257.38,41.16a8.65,8.65,0,1,1,17.3,0"/><g class="cls-2"><rect class="cls-3" x="254.85" y="19.17" width="22.35" height="22.35"/><line class="cls-3" x1="284.41" y1="19.17" x2="306.04" y2="19.17"/><line class="cls-3" x1="284.41" y1="25.66" x2="306.04" y2="25.66"/><line class="cls-3" x1="284.41" y1="41.52" x2="293.07" y2="41.52"/><line class="cls-3" x1="297.39" y1="41.52" x2="306.04" y2="41.52"/><line class="cls-3" x1="284.41" y1="33.59" x2="293.07" y2="33.59"/><line class="cls-3" x1="297.39" y1="33.59" x2="306.04" y2="33.59"/></g><path class="cls-3" d="M158.42,245.36H151a7.87,7.87,0,0,1-7.87-7.87l-.06-21.78a9.87,9.87,0,0,1,4.79-8.46L158.35,201Z"/><line class="cls-3" x1="143.18" y1="230.12" x2="158.42" y2="230.12"/><path class="cls-3" d="M249.85,225.05v30.13a12.28,12.28,0,0,1-12.28,12.28H189a12.28,12.28,0,0,1-12.28-12.28V225.05"/><path class="cls-3" d="M251.38,224.79h-76.2l1.24-18.59a4.57,4.57,0,0,1,4.56-4.27h64.6a4.57,4.57,0,0,1,4.56,4.27Z"/><path class="cls-3" d="M249.85,179.07v4.76a9,9,0,0,1-9,9H185.66a9,9,0,0,1-9-9v-4.76"/><path class="cls-3" d="M251.38,179.07h-76.2l1.24-18.59a4.57,4.57,0,0,1,4.56-4.27h64.6a4.57,4.57,0,0,1,4.56,4.27Z"/><line class="cls-3" x1="143.11" y1="215.58" x2="151.5" y2="215.58"/><line class="cls-3" x1="268.14" y1="230.12" x2="283.38" y2="230.12"/><line class="cls-3" x1="268.08" y1="220.15" x2="283.32" y2="220.15"/><path class="cls-3" d="M198.22,122.6c-1.25-2.24-2.62-4.59-4-6.84-4.1-6.43-21-5.06-25.94-2.37-1.48.81-1.2,1.89,0,3.13,5.33,5.33,4.57,17.5,4.57,17.5h31.24s-.84-1.81-2.21-4.54"/><path class="cls-3" d="M243.5,134h10c6.86,0,14.42,25.93,14.42,48.79v63.24c0,19-15.18,30.55-34.23,30.55h-41c-19,0-34.23-11.5-34.23-30.55V182.81C158.42,160,166,134,172.83,134H243.5Z"/><line class="cls-3" x1="158.42" y1="236.53" x2="176.7" y2="236.53"/><line class="cls-3" x1="249.79" y1="236.91" x2="268.08" y2="236.91"/><path class="cls-3" d="M267.88,201.17l15.5,9v28.56a6.61,6.61,0,0,1-6.61,6.61h-8.89Z"/><line class="cls-3" x1="196" y1="126.43" x2="191.83" y2="133.66"/><line class="cls-3" x1="234.47" y1="133.66" x2="230.29" y2="126.43"/><line class="cls-3" x1="203.62" y1="126.43" x2="199.45" y2="133.66"/><line class="cls-3" x1="226.85" y1="133.66" x2="222.67" y2="126.43"/><polygon class="cls-3" points="230.29 126.43 196 126.43 199.53 120.33 226.77 120.33 230.29 126.43"/><path class="cls-3" d="M168.22,113.39c-10.67,8.38-8.35,30.56-8.35,50.37"/><path class="cls-3" d="M228,122.58c1.24-2.24,2.62-4.58,4-6.82,4.09-6.43,21-5.06,25.94-2.37,1.48.81,1.2,1.89,0,3.13-5.33,5.33-4.57,17.5-4.57,17.5H222.15s.85-1.84,2.25-4.61"/><path class="cls-3" d="M258,113.39c10.67,8.38,8.35,30.56,8.35,50.37"/><line class="cls-4" x1="171.64" y1="60.09" x2="182.61" y2="99.42"/><line class="cls-4" x1="266.03" y1="322.57" x2="254.85" y2="284.72"/><line class="cls-4" x1="327.91" y1="123.38" x2="277.2" y2="151.12"/><path class="cls-4" d="M68.93,207.89c4.48-.38,53.18,0,53.18,0"/></g></g></svg>