<?xml version="1.0" encoding="UTF-8" standalone="no"?>
<svg width="523px" height="240px" viewBox="0 0 523 240" version="1.1" xmlns="http://www.w3.org/2000/svg" xmlns:xlink="http://www.w3.org/1999/xlink">
    <!-- Generator: Sketch 41 (35326) - http://www.bohemiancoding.com/sketch -->
    <title>Page 1</title>
    <desc>Created with Sketch.</desc>
    <defs></defs>
    <g id="Page-1" stroke="none" stroke-width="1" fill="none" fill-rule="evenodd">
        <g id="have-a-plan" transform="translate(-779.000000, -178.000000)" stroke="#FFFFFF" stroke-width="2">
            <g id="Page-1" transform="translate(780.000000, 179.000000)">
                <path d="M298.400934,112.75 L298.400934,112.75 C289.649437,112.75 282.555278,105.669039 282.555278,96.9338235 L282.555278,65.0390392 C282.555278,58.3903873 287.955713,53 294.616757,53 L302.185112,53 C308.846156,53 314.246591,58.3903873 314.246591,65.0390392 L314.246591,96.9338235 C314.246591,105.669039 307.152432,112.75 298.400934,112.75 L298.400934,112.75 Z" id="Stroke-12" stroke-linejoin="round"></path>
                <polygon id="Stroke-13" stroke-linejoin="round" points="287.555278 74.8872549 307.509067 74.8872549 307.509067 62 287.555278 62"></polygon>
                <polyline id="Stroke-14" stroke-linejoin="round" points="299.555278 52.5147059 299.555278 49 307.771544 49 307.771544 54.8578431"></polyline>
                <polyline id="Stroke-15" stroke-linejoin="round" points="285.555278 56.9460784 286.72903 30 292.597792 30 293.771544 54.6029412"></polyline>
                <path d="M292.555278,87 L303.119049,87" id="Stroke-16" stroke-linecap="round" stroke-linejoin="round"></path>
                <path d="M287.555278,82 L292.250287,82" id="Stroke-17" stroke-linecap="round" stroke-linejoin="round"></path>
                <path d="M304.555278,82 L309.250287,82" id="Stroke-18" stroke-linecap="round" stroke-linejoin="round"></path>
                <path d="M296.555278,82 L301.250287,82" id="Stroke-19" stroke-linecap="round" stroke-linejoin="round"></path>
                <path d="M308.335315,99.6151961 C308.335315,103.821127 304.130934,107.230392 298.945297,107.230392 C293.759659,107.230392 289.555278,103.821127 289.555278,99.6151961 C289.555278,95.4092647 293.759659,92 298.945297,92 C304.130934,92 308.335315,95.4092647 308.335315,99.6151961 L308.335315,99.6151961 Z" id="Stroke-20" stroke-linecap="round" stroke-linejoin="round"></path>
                <path d="M448.495928,114.493154 C448.495928,114.493154 452.466732,140.258291 452.466732,152.149713 C452.466732,164.041134 448.495928,175.931384 448.495928,175.931384 L428.63956,175.931384 L408.784366,175.931384 C408.784366,175.931384 404.812388,164.041134 404.812388,152.149713 C404.812388,140.258291 408.784366,114.493154 408.784366,114.493154 L448.495928,114.493154 L448.495928,114.493154 Z" id="Stroke-21" stroke-linejoin="round"></path>
                <polygon id="Stroke-22" stroke-linejoin="round" points="408.784131 114.493623 448.495693 114.493623 448.495693 102.602201 408.784131 102.602201"></polygon>
                <polygon id="Stroke-23" stroke-linejoin="round" points="444.524185 150.167067 412.755405 150.167067 414.74022 132.329935 442.53937 132.329935"></polygon>
                <path d="M377.843686,126.463422 C377.843686,126.463422 384.679619,148.638873 384.679619,158.873697 C384.679619,169.10852 379.552669,175.931736 379.552669,175.931736 L360.753852,175.931736 L341.956209,175.931736 C341.956209,175.931736 336.829259,169.10852 336.829259,158.873697 C336.829259,148.638873 343.665192,126.463422 343.665192,126.463422 L377.843686,126.463422 L377.843686,126.463422 Z" id="Stroke-24" stroke-linejoin="round"></path>
                <polygon id="Stroke-25" stroke-linejoin="round" points="343.664723 126.463539 377.843216 126.463539 377.843216 116.228716 343.664723 116.228716"></polygon>
                <polygon id="Stroke-26" stroke-linejoin="round" points="374.426658 157.167893 347.082924 157.167893 348.791908 141.815657 372.717675 141.815657"></polygon>
                <path d="M210.707262,178.421569 L164.908621,178.421569 L164.908621,162.678029 C164.908621,157.444632 169.161126,153.201211 174.404277,153.201211 L201.211606,153.201211 C206.455932,153.201211 210.707262,157.444632 210.707262,162.678029 L210.707262,178.421569 L210.707262,178.421569 Z" id="Stroke-27" stroke-linejoin="round"></path>
                <path d="M158.59219,178.421569 L217.023928,178.421569" id="Stroke-28" stroke-linejoin="round"></path>
                <polygon id="Stroke-29" stroke-linejoin="round" points="175.962551 153.201211 199.65122 153.201211 199.65122 142.167377 175.962551 142.167377"></polygon>
                <path d="M199.651689,146.895594 L207.548695,146.895594" id="Stroke-30" stroke-linejoin="round"></path>
                <path d="M207.548226,143.27451 L207.548226,150.303922" id="Stroke-31" stroke-linecap="round" stroke-linejoin="round"></path>
                <path d="M180.700872,142.167026 L180.700872,134.284712 C180.700872,129.932335 184.237387,126.40357 188.597877,126.40357 C192.958367,126.40357 196.493709,129.932335 196.493709,134.284712 L196.493709,142.167026" id="Stroke-32" stroke-linejoin="round"></path>
                <polyline id="Stroke-33" stroke-linejoin="round" points="169.64659 123.251465 180.700989 134.285298 196.493826 134.285298 207.548226 123.251465"></polyline>
                <path d="M161.750054,123.251465 L213.864656,123.251465" id="Stroke-34" stroke-linejoin="round"></path>
                <path d="M209.662975,118.522311 L165.953613,118.522311 C165.357347,118.522311 164.856154,118.078286 164.788077,117.487816 L161.750406,91.7250216 L213.865008,91.7250216 L210.828511,117.487816 C210.75926,118.078286 210.258067,118.522311 209.662975,118.522311 L209.662975,118.522311 Z" id="Stroke-35" stroke-linejoin="round"></path>
                <polygon id="Stroke-36" stroke-linejoin="round" points="214.870445 86.9969221 160.746378 86.9969221 158.592543 91.725373 217.02428 91.725373"></polygon>
                <path d="M213.865126,98.0306382 L245.449627,98.0306382 C245.449627,98.0306382 245.449627,102.759089 237.553795,102.759089 C229.657963,102.759089 226.499396,101.183329 212.285255,101.183329" id="Stroke-37" stroke-linejoin="round"></path>
                <path d="M179.122527,86.9969221 L179.122527,84.2062456 C179.122527,82.2649564 180.698876,80.6915397 182.643784,80.6915397 L192.972804,80.6915397 C194.917712,80.6915397 196.494061,82.2649564 196.494061,84.2062456 L196.494061,86.9969221" id="Stroke-38" stroke-linejoin="round"></path>
                <path d="M260.5665,178.208812 L240.896759,178.208812 C238.225299,178.208812 236.059726,176.047268 236.059726,173.380777 L236.059726,146.576459 L265.403533,146.576459 L265.403533,173.380777 C265.403533,176.047268 263.23796,178.208812 260.5665,178.208812 L260.5665,178.208812 Z" id="Stroke-39" stroke-linecap="round" stroke-linejoin="round"></path>
                <path d="M232.538586,146.576459 L268.924908,146.576459" id="Stroke-40" stroke-linecap="round" stroke-linejoin="round"></path>
                <path d="M265.403651,153.605871 L270.466044,153.605871 C272.207893,153.605871 273.619917,155.015268 273.619917,156.753875 L273.619917,166.859826 C273.619917,168.598434 272.207893,170.007831 270.466044,170.007831 L265.403651,170.007831" id="Stroke-41" stroke-linecap="round" stroke-linejoin="round"></path>
                <path d="M243.178064,124.039696 C244.232093,124.994525 245.398803,125.778304 245.696936,127.908216 C246.22982,131.684181 242.160421,132.254735 242.69213,136.031873 C243.003175,138.239108 244.242657,139.000627 245.32603,140.005833" id="Stroke-42" stroke-linecap="round"></path>
                <path d="M256.499683,124.039696 C257.553713,124.994525 258.720422,125.778304 259.018555,127.908216 C259.551439,131.684181 255.48204,132.254735 256.01375,136.031873 C256.324794,138.239108 257.564276,139.000627 258.64765,140.005833" id="Stroke-43" stroke-linecap="round"></path>
                <path d="M313.841109,232.399039 L294.171368,232.399039 C291.499908,232.399039 289.334335,230.237495 289.334335,227.571005 L289.334335,163 L318.678142,163 L318.678142,227.571005 C318.678142,230.237495 316.512569,232.399039 313.841109,232.399039 L313.841109,232.399039 Z" id="Stroke-44" stroke-linecap="round" stroke-linejoin="round"></path>
                <path d="M312.334335,151 C315.922495,153.670005 318.245351,157.938029 318.245351,162.74849" id="Stroke-45" stroke-linecap="round" stroke-linejoin="round"></path>
                <path d="M289.334335,162.716858 C289.334335,157.925142 291.639584,153.671176 295.203096,151" id="Stroke-46" stroke-linecap="round" stroke-linejoin="round"></path>
                <path d="M298.244067,136 L310.071969,136 C311.678835,136 312.981701,137.29927 312.981701,138.903147 L312.981701,151.506882 L295.334335,151.506882 L295.334335,138.903147 C295.334335,137.29927 296.638373,136 298.244067,136 L298.244067,136 Z" id="Stroke-47" stroke-linecap="round" stroke-linejoin="round"></path>
                <polyline id="Stroke-48" stroke-linejoin="round" points="436.180825 55.925924 442.873561 55.8732034 442.924032 49.1952623 449.613247 49.1448848 449.664892 42.4669436 456.354106 42.4189093 456.403404 35.7409681 463.090271 35.6941054 463.140742 29.0161642 469.83113 28.9657868 474.810188 33.9367525 439.515456 75.037723"></polyline>
                <path d="M419.404384,63.4941402 L419.404384,32.9630618 C419.404384,23.595199 427.011472,16.0010912 436.39797,16.0010912 L436.39797,67.0088461" id="Stroke-49" stroke-linejoin="round"></path>
                <path d="M364.461507,56.6724475 L360.373328,52.591874 L355.86964,53.1132221 L358.482413,57.6214181 C359.122108,58.7238642 358.939003,60.1180309 358.036387,61.0189672 C356.936581,62.116727 355.152478,62.116727 354.052672,61.0189672 L345.476064,52.4594868 L352.789714,45.0223691 C346.2883,38.5330505 335.748005,38.5330505 329.246591,45.0223691 L359.49184,75.2101779" id="Stroke-50" stroke-linejoin="round"></path>
                <polyline id="Stroke-51" stroke-linejoin="round" points="377.832424 63.4941402 377.832424 35.9681353 373.674994 28.6622333 368.424799 28.6622333 364.238025 35.9681353 364.238025 65.8372775"></polyline>
                <path d="M428.168557,87.2401961 L371.437587,87.2401961 C364.868095,87.2401961 359.542781,81.9247892 359.542781,75.3675196 C359.542781,68.81025 364.868095,63.4936716 371.437587,63.4936716 L428.168557,63.4936716 C434.738049,63.4936716 440.064537,68.81025 440.064537,75.3675196 C440.064537,81.9247892 434.738049,87.2401961 428.168557,87.2401961 L428.168557,87.2401961 Z" id="Stroke-52" stroke-linejoin="round"></path>
                <path d="M433.12144,75.3671681 C433.12144,78.1765897 430.838492,80.4552907 428.02266,80.4552907 C425.208002,80.4552907 422.925054,78.1765897 422.925054,75.3671681 C422.925054,72.556575 425.208002,70.2790456 428.02266,70.2790456 C430.838492,70.2790456 433.12144,72.556575 433.12144,75.3671681 L433.12144,75.3671681 Z" id="Stroke-53" stroke-linejoin="round"></path>
                <path d="M376.781329,75.3671681 C376.781329,78.1765897 374.498381,80.4552907 371.682549,80.4552907 C368.867891,80.4552907 366.584943,78.1765897 366.584943,75.3671681 C366.584943,72.556575 368.867891,70.2790456 371.682549,70.2790456 C374.498381,70.2790456 376.781329,72.556575 376.781329,75.3671681 L376.781329,75.3671681 Z" id="Stroke-54" stroke-linejoin="round"></path>
                <path d="M364.238025,35.9680181 L377.832424,35.9680181" id="Stroke-55" stroke-linejoin="round"></path>
                <path d="M435.836916,49.75 C433.242923,49.75 431.141907,46.0783039 431.141907,41.5490196 C431.141907,37.0197353 433.242923,33.3480392 435.836916,33.3480392" id="Stroke-56" stroke-linejoin="round"></path>
                <polyline id="Stroke-57" stroke-linecap="round" stroke-linejoin="round" points="490.688276 75.3885147 490.688276 24 502.425799 24 502.425799 75.3885147"></polyline>
                <polyline id="Stroke-58" stroke-linecap="round" stroke-linejoin="round" points="481.688276 9 481.688276 17.5653382 490.215586 23.9878775 501.953109 23.9878775 510.542629 17.5653382 510.542629 9"></polyline>
                <polygon id="Stroke-59" stroke-linecap="round" stroke-linejoin="round" points="478.688276 8.56533824 514.072213 8.56533824 514.072213 0 478.688276 0"></polygon>
                <polygon id="Stroke-60" stroke-linecap="round" stroke-linejoin="round" points="476.688276 107.440735 476.688276 75 516.595854 75 516.595854 107.440735 496.642065 121.862745"></polygon>
                <path d="M495.688276,76 L495.688276,90.0588235" id="Stroke-61" stroke-linecap="round" stroke-linejoin="round"></path>
                <polyline id="Stroke-62" stroke-linejoin="round" points="32.2977264 190.001052 37.5115342 190.001052 37.5115342 202.144361 32.2977264 202.144361"></polyline>
                <path d="M32.3481978,182.107843 C38.6442052,178.372882 43.3579945,171.065809 44.8639187,162.242725 L0.714399261,162.242725 C2.21914972,171.065809 6.932939,178.372882 13.2289464,182.107843 L13.2289464,233.372172 L32.3481978,233.372172 L32.3481978,182.107843 L32.3481978,182.107843 Z" id="Stroke-63" stroke-linejoin="round"></path>
                <polyline id="Stroke-64" stroke-linecap="round" stroke-linejoin="round" points="44.864036 162.242608 44.864036 156.466775 0.714516636 156.466775 0.714516636 162.242608"></polyline>
                <path d="M32.3481978,182.107843 L13.2289464,182.107843" id="Stroke-65" stroke-linejoin="round"></path>
                <polygon id="Stroke-78" stroke-linejoin="round" points="139.159658 216.710784 113.337107 229.598039 113.337107 178.04902 139.159658 165.161765"></polygon>
                <polygon id="Stroke-79" stroke-linejoin="round" points="87.5145564 216.710784 61.6920055 229.598039 61.6920055 178.04902 87.5145564 165.161765"></polygon>
                <polygon id="Stroke-80" stroke-linejoin="round" points="87.5145564 216.710784 113.337107 229.598039 113.337107 178.04902 87.5145564 165.161765"></polygon>
                <path d="M70.4951479,214.953431 C70.4951479,212.610294 69.9047505,203.243603 72.8426525,197.379902 C76.3639094,190.35049 81.0589187,183.321078 90.4489372,185.664216 C99.8389556,188.007353 102.932967,206.512279 106.88147,211.438725 C111.576479,217.296569 120.966497,216.125 123.314002,204.409314 C125.661506,192.693627 123.314002,185.664216 129.182763,183.321078 C135.051525,180.977941 138.572782,183.321078 138.572782,183.321078" id="Stroke-81" stroke-linecap="round" stroke-linejoin="round" stroke-dasharray="4,5"></path>
                <polygon id="Stroke-82" stroke-linecap="round" stroke-linejoin="round" points="479.642065 158.372549 508.985873 158.372549 508.985873 149 479.642065 149"></polygon>
                <path d="M507.484791,232.399039 L481.358239,232.399039 C478.202019,232.399039 475.642065,229.843848 475.642065,226.692328 L475.642065,167.237564 C475.642065,164.89677 477.54237,163 479.887527,163 L508.955503,163 C511.30066,163 513.202139,164.89677 513.202139,167.237564 L513.202139,226.692328 C513.202139,229.843848 510.641011,232.399039 507.484791,232.399039 L507.484791,232.399039 Z" id="Stroke-83" stroke-linecap="round" stroke-linejoin="round"></path>
                <path d="M481.642065,158 L481.642065,162.686275" id="Stroke-84" stroke-linejoin="round"></path>
                <path d="M506.642065,158 L506.642065,162.686275" id="Stroke-85" stroke-linejoin="round"></path>
                <path d="M507.642065,151.408527 C523.284662,144.902807 525.877481,162.988311 511.104634,163.981802" id="Stroke-86" stroke-linejoin="round"></path>
                <path d="M475.642065,185 L485.032083,185" id="Stroke-87" stroke-linecap="round" stroke-linejoin="round"></path>
                <path d="M475.642065,193 L485.032083,193" id="Stroke-88" stroke-linecap="round" stroke-linejoin="round"></path>
                <path d="M475.642065,202 L485.032083,202" id="Stroke-89" stroke-linecap="round" stroke-linejoin="round"></path>
                <path d="M475.642065,210 L485.032083,210" id="Stroke-90" stroke-linecap="round" stroke-linejoin="round"></path>
                <path d="M475.642065,217 L485.032083,217" id="Stroke-91" stroke-linecap="round" stroke-linejoin="round"></path>
                <path d="M484.642065,156.686275 L484.642065,152" id="Stroke-92" stroke-linecap="round" stroke-linejoin="round"></path>
                <path d="M489.642065,156.686275 L489.642065,152" id="Stroke-93" stroke-linecap="round" stroke-linejoin="round"></path>
                <path d="M494.642065,156.686275 L494.642065,152" id="Stroke-94" stroke-linecap="round" stroke-linejoin="round"></path>
                <path d="M498.642065,156.686275 L498.642065,152" id="Stroke-95" stroke-linecap="round" stroke-linejoin="round"></path>
                <path d="M503.642065,156.686275 L503.642065,152" id="Stroke-96" stroke-linecap="round" stroke-linejoin="round"></path>
                <path d="M475.642065,172.543215 C481.510826,169.39521 488.425401,171.719602 494.422102,173.714783 C501.464616,176.057921 507.333377,176.057921 513.202139,171.371646" id="Stroke-97" stroke-linejoin="round"></path>
                <path d="M210.323095,41.5490196 C212.327864,41.5490196 213.953511,45.7455784 213.953511,50.9215686 C213.953511,56.0975588 212.327864,60.2941176 210.323095,60.2941176 L187.066367,60.2941176 C185.061598,60.2941176 183.435951,56.0975588 183.435951,50.9215686 C183.435951,45.7455784 185.061598,41.5490196 187.066367,41.5490196 L210.323095,41.5490196 L210.323095,41.5490196 Z" id="Stroke-110" stroke-linecap="round" stroke-linejoin="round"></path>
                <path d="M188.063117,45.6283044 C188.641777,43.4972211 190.378931,47.7593877 190.089014,52.3753681 C189.799097,56.9925201 188.641777,58.4124613 187.773201,55.9263926" id="Stroke-111" stroke-linecap="round" stroke-linejoin="round"></path>
                <path d="M200.684359,41.5490196 L200.684359,30.494098 L178.383065,30.494098 L178.383065,50.4107647 C178.383065,56.7794118 183.078074,60.2941176 186.599331,60.2941176" id="Stroke-112" stroke-linecap="round" stroke-linejoin="round"></path>
                <path d="M257.616548,45 C259.269191,45 260.61079,48.4619853 260.61079,52.7323529 C260.61079,57.0027206 259.269191,60.4635343 257.616548,60.4635343 L241.567833,60.4635343 C239.914016,60.4635343 238.573591,57.0027206 238.573591,52.7323529 C238.573591,48.4619853 239.914016,45 241.567833,45 L257.616548,45 L257.616548,45 Z" id="Stroke-113" stroke-linecap="round" stroke-linejoin="round"></path>
                <path d="M242.811862,48.4656316 C243.288406,46.7082787 244.721557,50.2229846 244.483286,54.0317542 C244.245014,57.8405238 243.288406,59.0120924 242.573591,56.9618473" id="Stroke-114" stroke-linecap="round" stroke-linejoin="round"></path>
                <path d="M249.832371,45.1206618 L249.832371,36 L234.573591,36 L234.573591,52.43125 C234.573591,57.6845637 238.448147,60.5841961 241.35201,60.5841961" id="Stroke-115" stroke-linecap="round" stroke-linejoin="round"></path>
                <path d="M155.34592,39.6595137 C157.552574,39.6595137 159.340199,44.2790088 159.340199,49.9775186 C159.340199,55.6748569 157.552574,60.294352 155.34592,60.294352 L121.883415,60.294352 C119.676761,60.294352 117.889136,55.6748569 117.889136,49.9775186 C117.889136,44.2790088 119.676761,39.6595137 121.883415,39.6595137 L155.34592,39.6595137 L155.34592,39.6595137 Z" id="Stroke-116" stroke-linecap="round" stroke-linejoin="round"></path>
                <path d="M122.981812,44.1501363 C123.61916,41.8046559 125.531202,46.4956167 125.211942,51.5767098 C124.893855,56.6589745 123.61916,58.2230186 122.663726,55.4862343" id="Stroke-117" stroke-linecap="round" stroke-linejoin="round"></path>
                <path d="M144.735199,39.6595137 L144.735199,27.4904304 L112.327897,27.4904304 L112.327897,49.4139941 C112.327897,56.4258324 117.494755,60.294352 121.371659,60.294352" id="Stroke-118" stroke-linecap="round" stroke-linejoin="round"></path>
                <g id="Group" transform="translate(10.000000, 10.000000)" stroke-linejoin="round">
                    <path d="M74.0565006,66.8541338 L4.90458478,66.8541338 C2.30038649,66.8541338 0.189681428,64.7457554 0.189681428,62.1444279 L0.189681428,18.187173 C0.189681428,15.5858454 2.30038649,13.4774671 4.90458478,13.4774671 L74.0565006,13.4774671 C76.6591272,13.4774671 78.7714039,15.5858454 78.7714039,18.187173 L78.7714039,62.1444279 C78.7714039,64.7457554 76.6591272,66.8541338 74.0565006,66.8541338 L74.0565006,66.8541338 Z" id="Stroke-119"></path>
                    <path d="M20.6209293,13.2160784 L20.6209293,4.73389814 C20.6209293,2.48265873 22.5383233,0.656862745 24.9052048,0.656862745 L54.0543089,0.656862745 C56.4211904,0.656862745 58.3401561,2.48265873 58.3401561,4.73389814 L58.3401561,13.2160784" id="Stroke-120"></path>
                    <polygon id="Stroke-121" points="53.6252527 35.1947059 44.195446 35.1947059 44.195446 25.7752941 34.7656393 25.7752941 34.7656393 35.1947059 25.3358326 35.1947059 25.3358326 44.6141176 34.7656393 44.6141176 34.7656393 54.0335294 44.195446 54.0335294 44.195446 44.6141176 53.6252527 44.6141176"></polygon>
                </g>
                <path d="M109.906347,73.0915132 L137.895644,73.0915132 C141.136374,73.0915132 143.764406,75.7134838 143.764406,78.9493564 L143.764406,78.9493564 C143.764406,82.1840574 141.136374,84.8071995 137.895644,84.8071995 L109.906347,84.8071995 C106.664443,84.8071995 104.037585,82.1840574 104.037585,78.9493564 L104.037585,78.9493564 C104.037585,75.7134838 106.664443,73.0915132 109.906347,73.0915132 L109.906347,73.0915132 Z" id="Stroke-122" stroke-linejoin="round"></path>
                <polygon id="Stroke-123" stroke-linejoin="round" points="119.11549 84.806848 129.679261 84.806848 129.679261 73.0911618 119.11549 73.0911618"></polygon>
                <path d="M83.7539279,110.29902 L73.1901571,110.29902 C70.9212939,110.29902 69.082024,108.463172 69.082024,106.198529 C69.082024,103.933887 70.9212939,102.098039 73.1901571,102.098039 L83.7539279,102.098039 C86.0227911,102.098039 87.862061,103.933887 87.862061,106.198529 C87.862061,108.463172 86.0227911,110.29902 83.7539279,110.29902 L83.7539279,110.29902 Z" id="Stroke-124" stroke-linecap="round" stroke-linejoin="round"></path>
                <path d="M78.4720425,102.098039 L78.4720425,110.29902" id="Stroke-125" stroke-linecap="round" stroke-linejoin="round"></path>
                <path d="M83.7539279,124.357843 L73.1901571,124.357843 C70.9212939,124.357843 69.082024,122.521995 69.082024,120.257353 C69.082024,117.992711 70.9212939,116.156863 73.1901571,116.156863 L83.7539279,116.156863 C86.0227911,116.156863 87.862061,117.992711 87.862061,120.257353 C87.862061,122.521995 86.0227911,124.357843 83.7539279,124.357843 L83.7539279,124.357843 Z" id="Stroke-126" stroke-linecap="round" stroke-linejoin="round"></path>
                <path d="M78.4720425,116.156863 L78.4720425,124.357843" id="Stroke-127" stroke-linecap="round" stroke-linejoin="round"></path>
                <path d="M83.7539279,139.588235 L73.1901571,139.588235 C70.9212939,139.588235 69.082024,137.752387 69.082024,135.487745 C69.082024,133.223103 70.9212939,131.387255 73.1901571,131.387255 L83.7539279,131.387255 C86.0227911,131.387255 87.862061,133.223103 87.862061,135.487745 C87.862061,137.752387 86.0227911,139.588235 83.7539279,139.588235 L83.7539279,139.588235 Z" id="Stroke-128" stroke-linecap="round" stroke-linejoin="round"></path>
                <path d="M78.4720425,131.387255 L78.4720425,139.588235" id="Stroke-129" stroke-linecap="round" stroke-linejoin="round"></path>
                <polygon id="Stroke-130" stroke-linecap="round" stroke-linejoin="round" points="144.464649 139.446078 130.379621 139.446078 131.553373 110.156863 143.290896 110.156863"></polygon>
                <polygon id="Stroke-131" stroke-linecap="round" stroke-linejoin="round" points="133.900878 110.156863 140.943392 110.156863 140.943392 103.127451 133.900878 103.127451"></polygon>
                <polygon id="Stroke-132" stroke-linecap="round" stroke-linejoin="round" points="117.684612 135.588235 103.599584 135.588235 105.947089 106.29902 115.337107 106.29902"></polygon>
                <polygon id="Stroke-133" stroke-linecap="round" stroke-linejoin="round" points="114.163355 106.29902 107.120841 106.29902 108.294593 99.2696078 112.989603 99.2696078"></polygon>
                <polygon id="Stroke-134" stroke-linecap="round" stroke-linejoin="round" points="103.599584 140.27451 117.684612 140.27451 117.684612 135.588235 103.599584 135.588235"></polygon>
                <polygon id="Stroke-135" stroke-linecap="round" stroke-linejoin="round" points="42.2817375 139.588235 57.3445009 139.588235 57.3445009 114.985294 42.2817375 114.985294"></polygon>
                <polygon id="Stroke-136" stroke-linecap="round" stroke-linejoin="round" points="40.9119686 114.985294 58.5182532 114.985294 58.5182532 110.29902 40.9119686 110.29902"></polygon>
                <polygon id="Stroke-137" stroke-linecap="round" stroke-linejoin="round" points="49.1282348 132.558824 57.3445009 132.558824 57.3445009 120.843137 49.1282348 120.843137"></polygon>
                <polygon id="Stroke-141" stroke-linejoin="round" points="25.3056839 135.931373 5.35189464 135.931373 5.35189464 141.789216 15.9133179 141.789216 25.3056839 141.789216"></polygon>
                <polygon id="Stroke-142" stroke-linejoin="round" points="25.3056839 94.9264706 15.9156654 94.9264706 5.35189464 94.9264706 5.35189464 100.784314 25.3056839 100.784314"></polygon>
                <polygon id="Stroke-143" stroke-linecap="round" stroke-linejoin="round" points="5.35189464 135.931373 25.3056839 135.931373 25.3056839 100.784314 5.35189464 100.784314"></polygon>
                <polygon id="Stroke-144" stroke-linejoin="round" points="11.2206562 130.073529 19.4369224 130.073529 19.4369224 106.642157 11.2206562 106.642157"></polygon>
                <path d="M260.752359,200 C264.05902,200 266.740472,207.080986 266.740472,215.815471 C266.740472,224.551367 264.05902,231.632353 260.752359,231.632353 L161.578915,231.632353 C158.272253,231.632353 155.59219,224.551367 155.59219,215.815471 C155.59219,207.080986 158.272253,200 161.578915,200 L260.752359,200 L260.752359,200 Z" id="Stroke-145" stroke-linecap="round" stroke-linejoin="round"></path>
                <path d="M174.59219,200 L174.59219,231.038391" id="Stroke-146" stroke-linecap="round" stroke-linejoin="round"></path>
                <path d="M184.59219,200 L184.59219,231.038391" id="Stroke-147" stroke-linecap="round" stroke-linejoin="round"></path>
                <path d="M237.59219,200 L237.59219,231.038391" id="Stroke-148" stroke-linecap="round" stroke-linejoin="round"></path>
                <path d="M246.59219,200 L246.59219,231.038391" id="Stroke-149" stroke-linecap="round" stroke-linejoin="round"></path>
                <path d="M416.188309,194.480392 L377.454482,194.480392" id="Stroke-150" stroke-linecap="round" stroke-linejoin="round"></path>
                <path d="M377.452135,231.970588 L416.188309,231.970588" id="Stroke-151" stroke-linecap="round" stroke-linejoin="round"></path>
                <path d="M368.070215,194.480392 L357.376158,194.480392 C349.28431,194.480392 346.936805,205.571632 346.936805,213.47152 C346.936805,221.372578 350.458062,231.970588 357.376158,231.970588 L368.059652,231.970588" id="Stroke-152" stroke-linecap="round" stroke-linejoin="round"></path>
                <path d="M425.572576,231.970588 L435.679757,231.970588 C442.597853,231.970588 446.11911,221.372578 446.11911,213.47152 C446.11911,205.571632 443.771605,194.480392 435.679757,194.480392 L425.578445,194.480392" id="Stroke-153" stroke-linecap="round" stroke-linejoin="round"></path>
                <path d="M368.357902,217.911765 L368.357902,194.480392 C368.357902,193.18698 369.409584,192.137255 370.705407,192.137255 L374.226664,192.137255 C375.522486,192.137255 376.574168,193.18698 376.574168,194.480392 L376.574168,217.911765" id="Stroke-154" stroke-linecap="round" stroke-linejoin="round"></path>
                <path d="M376.574168,228.455882 L376.574168,233.727941 C376.574168,235.992583 374.734898,237.828431 372.466035,237.828431 C370.197172,237.828431 368.357902,235.992583 368.357902,233.727941 L368.357902,228.455882" id="Stroke-155" stroke-linecap="round" stroke-linejoin="round"></path>
                <polygon id="Stroke-156" stroke-linecap="round" stroke-linejoin="round" points="366.010397 228.455882 378.921673 228.455882 378.921673 217.911765 366.010397 217.911765"></polygon>
                <path d="M416.481747,217.911765 L416.481747,194.480392 C416.481747,193.18698 417.533429,192.137255 418.829251,192.137255 L422.350508,192.137255 C423.646331,192.137255 424.698013,193.18698 424.698013,194.480392 L424.698013,217.911765" id="Stroke-157" stroke-linecap="round" stroke-linejoin="round"></path>
                <path d="M424.698013,228.455882 L424.698013,233.727941 C424.698013,235.992583 422.858743,237.828431 420.58988,237.828431 C418.321017,237.828431 416.481747,235.992583 416.481747,233.727941 L416.481747,228.455882" id="Stroke-158" stroke-linecap="round" stroke-linejoin="round"></path>
                <polygon id="Stroke-159" stroke-linecap="round" stroke-linejoin="round" points="414.134242 228.455882 427.045518 228.455882 427.045518 217.911765 414.134242 217.911765"></polygon>
            </g>
        </g>
    </g>
</svg>