<?xml version="1.0" encoding="UTF-8" standalone="no"?>
<svg width="64px" height="63px" viewBox="0 0 64 63" version="1.1" xmlns="http://www.w3.org/2000/svg" xmlns:xlink="http://www.w3.org/1999/xlink">
    <!-- Generator: Sketch 41.1 (35376) - http://www.bohemiancoding.com/sketch -->
    <title>Page 1</title>
    <desc>Created with Sketch.</desc>
    <defs></defs>
    <g id="Page-1" stroke="none" stroke-width="1" fill="none" fill-rule="evenodd" stroke-linecap="round" stroke-linejoin="round">
        <g id="have-a-plan" transform="translate(-159.000000, -946.000000)" stroke="#626262" stroke-width="2">
            <g id="Page-1" transform="translate(160.000000, 946.000000)">
                <polygon id="Stroke-1" points="0 4.3335 11.712 4.3335 21.959 14.5815 17.568 26.2925 23.424 36.5415 38.063 37.2725 40.991 51.1805 57.095 52.6445 61.487 61.4285 0 61.4285"></polygon>
                <polygon id="Stroke-3" points="31 13 27 23 29 28 40 30 46 20 40 12"></polygon>
                <polygon id="Stroke-4" points="52 36 46 38 46 45 56 47 59 42"></polygon>
                <g id="Group-9" transform="translate(23.000000, 0.428600)">
                    <polygon id="Stroke-5" points="37 18.5714 31 17.5714 29 23.5714 35 27.5714 39 24.0714"></polygon>
                    <polygon id="Stroke-7" points="6 0.5714 0 2.5714 1 7.5714 8 5.5714"></polygon>
                </g>
            </g>
        </g>
    </g>
</svg>