<?xml version="1.0" encoding="UTF-8" standalone="no"?>
<svg width="46px" height="65px" viewBox="0 0 46 65" version="1.1" xmlns="http://www.w3.org/2000/svg" xmlns:xlink="http://www.w3.org/1999/xlink">
    <!-- Generator: Sketch 41.1 (35376) - http://www.bohemiancoding.com/sketch -->
    <title>Group 2</title>
    <desc>Created with Sketch.</desc>
    <defs></defs>
    <g id="Page-1" stroke="none" stroke-width="1" fill="none" fill-rule="evenodd" stroke-linecap="round" stroke-linejoin="round">
        <g id="have-a-plan" transform="translate(-742.000000, -945.000000)" stroke-width="2" stroke="#626262">
            <g id="Group-2" transform="translate(743.000000, 946.000000)">
                <g id="Page-1">
                    <path d="M22.3988,63 C11.1998,63 -0.0002,56 -0.0002,43.4 C-0.0002,33.6 4.1998,29.4 5.5988,25.2 C6.9998,21 6.9998,16.8 6.9998,14 C11.1998,16.8 12.5988,22.4 12.5988,25.2 C16.7988,18.2 19.5988,9.8 16.7988,0 C25.1998,7 34.9998,19.6 32.1998,33.6 C34.9998,30.8 37.7988,28 37.7988,23.8 C41.9998,28 44.7988,37.8 43.3988,46.2 C41.9998,54.6 34.9998,63 22.3988,63 Z" id="Stroke-1"></path>
                    <path d="M22.3988,63 C15.2598,63 7.9388,56.241 9.0988,46.375 C9.7988,40.425 15.3988,36.4 18.1998,33.6 C20.9998,30.8 22.3988,28 22.3988,23.8 C25.1998,28 27.9998,35 27.9998,42 C30.6878,41.604 33.5988,39.2 34.9998,37.8 C35.4428,42.792 36.8198,46.358 36.5878,50.611 C36.2328,57.118 33.0658,63 22.3988,63 Z" id="Stroke-3"></path>
                </g>
            </g>
        </g>
    </g>
</svg>