<?xml version="1.0" encoding="UTF-8" standalone="no"?>
<svg width="65px" height="54px" viewBox="0 0 65 54" version="1.1" xmlns="http://www.w3.org/2000/svg" xmlns:xlink="http://www.w3.org/1999/xlink">
    <!-- Generator: Sketch 41.1 (35376) - http://www.bohemiancoding.com/sketch -->
    <title>Group 3</title>
    <desc>Created with Sketch.</desc>
    <defs></defs>
    <g id="Page-1" stroke="none" stroke-width="1" fill="none" fill-rule="evenodd" stroke-linecap="round">
        <g id="have-a-plan" transform="translate(-158.000000, -1324.000000)" stroke-width="2" stroke="#626262">
            <g id="Group-3" transform="translate(159.000000, 1325.000000)">
                <g id="Page-1">
                    <path d="M0,31 C3.937,31 3.937,35.064 7.874,35.064 C11.811,35.064 11.811,31 15.747,31 C19.684,31 19.684,35.064 23.619,35.064 C27.556,35.064 27.556,31 31.492,31 C35.431,31 35.431,35.064 39.368,35.064 C43.305,35.064 43.305,31 47.242,31 C51.182,31 51.182,35.064 55.121,35.064 C59.061,35.064 59.061,31 63,31" id="Stroke-1"></path>
                    <path d="M0,39.4678 C3.937,39.4678 3.937,43.5318 7.874,43.5318 C11.811,43.5318 11.811,39.4678 15.747,39.4678 C19.684,39.4678 19.684,43.5318 23.619,43.5318 C27.556,43.5318 27.556,39.4678 31.492,39.4678 C35.431,39.4678 35.431,43.5318 39.368,43.5318 C43.305,43.5318 43.305,39.4678 47.242,39.4678 C51.182,39.4678 51.182,43.5318 55.121,43.5318 C59.061,43.5318 59.061,39.4678 63,39.4678" id="Stroke-3"></path>
                    <path d="M0,47.9355 C3.937,47.9355 3.937,51.9995 7.874,51.9995 C11.811,51.9995 11.811,47.9355 15.747,47.9355 C19.684,47.9355 19.684,51.9995 23.619,51.9995 C27.556,51.9995 27.556,47.9355 31.492,47.9355 C35.431,47.9355 35.431,51.9995 39.368,51.9995 C43.305,51.9995 43.305,47.9355 47.242,47.9355 C51.182,47.9355 51.182,51.9995 55.121,51.9995 C59.061,51.9995 59.061,47.9355 63,47.9355" id="Stroke-5"></path>
                    <polyline id="Stroke-7" stroke-linejoin="round" points="8.0322 35.0645 8.0322 15.0005 37.1582 15.0005 37.1582 34.0005"></polyline>
                    <polyline id="Stroke-9" stroke-linejoin="round" points="2.8418 19.7539 22.5958 -0.0001 42.3498 19.7539"></polyline>
                    <polyline id="Stroke-11" stroke-linejoin="round" points="17 31 17 23 27 23 27 33"></polyline>
                </g>
            </g>
        </g>
    </g>
</svg>