<?xml version="1.0" encoding="UTF-8" standalone="no"?>
<svg width="57px" height="62px" viewBox="0 0 57 62" version="1.1" xmlns="http://www.w3.org/2000/svg" xmlns:xlink="http://www.w3.org/1999/xlink">
    <!-- Generator: Sketch 41.1 (35376) - http://www.bohemiancoding.com/sketch -->
    <title>Group 6</title>
    <desc>Created with Sketch.</desc>
    <defs></defs>
    <g id="Page-1" stroke="none" stroke-width="1" fill="none" fill-rule="evenodd" stroke-linecap="round">
        <g id="have-a-plan" transform="translate(-158.000000, -1649.000000)" stroke-width="2" stroke="#626262">
            <g id="Group-6" transform="translate(159.000000, 1650.000000)">
                <g id="Page-1">
                    <path d="M14.138,41.7447 C15.036,42.5597 16.03,43.2287 16.284,45.0467 C16.738,48.2697 13.271,48.7577 13.724,51.9807 C13.989,53.8647 15.045,54.5157 15.968,55.3727" id="Stroke-1"></path>
                    <path d="M2.7884,41.7447 C3.6864,42.5597 4.6804,43.2287 4.9344,45.0467 C5.3884,48.2697 1.9214,48.7577 2.3744,51.9807 C2.6394,53.8647 3.6954,54.5157 4.6184,55.3727" id="Stroke-3"></path>
                    <path d="M25.4876,41.7447 C26.3856,42.5597 27.3796,43.2287 27.6336,45.0467 C28.0876,48.2697 24.6206,48.7577 25.0736,51.9807 C25.3386,53.8647 26.3946,54.5157 27.3176,55.3727" id="Stroke-5"></path>
                    <path d="M36.8372,41.7447 C37.7352,42.5597 38.7292,43.2287 38.9832,45.0467 C39.4372,48.2697 35.9702,48.7577 36.4232,51.9807 C36.6882,53.8647 37.7442,54.5157 38.6672,55.3727" id="Stroke-7"></path>
                    <path d="M48.1868,41.7447 C49.0848,42.5597 50.0788,43.2287 50.3328,45.0467 C50.7868,48.2697 47.3198,48.7577 47.7728,51.9807 C48.0378,53.8647 49.0938,54.5157 50.0168,55.3727" id="Stroke-9"></path>
                    <path d="M25.514,28.3853 C19.708,28.3853 15.001,23.6783 15.001,17.8723 C15.001,12.0663 19.708,7.3593 25.514,7.3593 C31.321,7.3593 36.028,12.0663 36.028,17.8723 C36.028,23.6783 31.321,28.3853 25.514,28.3853 L25.514,28.3853 Z" id="Stroke-11"></path>
                    <path d="M36.0277,17.8721 L43.3857,17.8721" id="Stroke-13"></path>
                    <path d="M7.6419,17.8721 L15.0009,17.8721" id="Stroke-15"></path>
                    <path d="M25.514,7.3594 L25.514,0.0004" id="Stroke-17"></path>
                    <path d="M25.514,35.7447 L25.514,28.3857" id="Stroke-19"></path>
                    <path d="M32.8734,25.2315 L38.1514,30.5095" id="Stroke-21"></path>
                    <path d="M12.8763,5.2349 L18.1543,10.5129" id="Stroke-23"></path>
                    <path d="M32.8734,10.5133 L38.1514,5.2353" id="Stroke-25"></path>
                    <path d="M12.8763,30.5098 L18.1543,25.2318" id="Stroke-27"></path>
                    <path d="M0.0003,59.7447 L54.3333,59.7447" id="Stroke-29"></path>
                </g>
            </g>
        </g>
    </g>
</svg>