<svg xmlns="http://www.w3.org/2000/svg" viewBox="0 0 615.76 364"><defs><style>.cls-1,.cls-2,.cls-3,.cls-4,.cls-5{fill:none;stroke:#fff;}.cls-1,.cls-2,.cls-3,.cls-4{stroke-linejoin:round;}.cls-1{stroke-width:2.24px;}.cls-2,.cls-3,.cls-4,.cls-5{stroke-width:2px;}.cls-3,.cls-4,.cls-5{stroke-linecap:round;}.cls-3{stroke-dasharray:4 5;}.cls-5{stroke-miterlimit:10;}.cls-6{isolation:isolate;}</style></defs><title>Asset 3</title><g id="Layer_2" data-name="Layer 2"><g id="Designs"><rect class="cls-1" x="475.36" y="87.45" width="96.4" height="65.55" rx="5.78" ry="5.78"/><path class="cls-1" d="M500.42,87.13V76.71a5.14,5.14,0,0,1,5.26-5h35.76a5.14,5.14,0,0,1,5.26,5V87.13"/><polygon class="cls-1" points="540.91 114.12 529.35 114.12 529.35 102.55 517.78 102.55 517.78 114.12 506.21 114.12 506.21 125.69 517.78 125.69 517.78 137.26 529.35 137.26 529.35 125.69 540.91 125.69 540.91 114.12"/><path class="cls-1" d="M506.14,87.13V78.35A1.31,1.31,0,0,1,507.45,77h32.22A1.31,1.31,0,0,1,541,78.35v8.77"/><polyline class="cls-2" points="259.19 35.08 264.89 35.03 264.93 29.33 270.63 29.29 270.68 23.59 276.38 23.55 276.42 17.85 282.11 17.81 282.16 12.11 287.86 12.07 292.1 16.31 262.03 51.39"/><path class="cls-2" d="M244.9,41.54V15.48A14.48,14.48,0,0,1,259.37,1V44.54"/><path class="cls-2" d="M198.09,35.71l-3.48-3.48-3.84.44L193,36.52a2.4,2.4,0,0,1-3.77,2.9l-7.31-7.31,6.23-6.35a14.18,14.18,0,0,0-20.06,0l25.77,25.77"/><polyline class="cls-2" points="209.48 41.54 209.48 18.04 205.94 11.81 201.46 11.81 197.9 18.04 197.9 43.54"/><path class="cls-2" d="M252.36,61.81H204a10.13,10.13,0,1,1,0-20.27h48.33a10.13,10.13,0,0,1,0,20.27Z"/><circle class="cls-2" cx="252.24" cy="51.67" r="4.34"/><circle class="cls-2" cx="204.24" cy="51.67" r="4.34"/><line class="cls-2" x1="197.9" y1="18.04" x2="209.48" y2="18.04"/><path class="cls-2" d="M258.9,29.81c-2.21,0-4-3.13-4-7s1.79-7,4-7"/><polygon class="cls-2" points="160.68 146.96 127.68 163.46 127.68 97.46 160.68 80.96 160.68 146.96"/><polygon class="cls-2" points="94.68 146.96 61.68 163.46 61.68 97.46 94.68 80.96 94.68 146.96"/><polygon class="cls-2" points="94.68 146.96 127.68 163.46 127.68 97.46 94.68 80.96 94.68 146.96"/><path class="cls-3" d="M73.81,135.34c0-9.21,1-16,2.87-19.81,4.5-9,10.5-16.9,22.5-13.9s15.2,32.28,20.25,38.59c6,7.5,18,6,21-9s0-24,7.5-27,12,0,12,0"/><line class="cls-4" x1="78.06" y1="135.23" x2="72.59" y2="145.67"/><line class="cls-4" x1="80.54" y1="143.19" x2="70.11" y2="137.71"/><path class="cls-4" d="M562.1,232.1h47.67a5,5,0,0,1,0,10h-47a10,10,0,0,1,0-20h47a5,5,0,0,1,0,10H562.09"/><path class="cls-4" d="M561.76,242.1h-23a10,10,0,0,1,0-20h23"/><path class="cls-4" d="M562.1,252.1h47.67a5,5,0,0,1,0,10h-47a10,10,0,1,1,0-20h47a5,5,0,0,1,0,10H562.09"/><path class="cls-4" d="M561.76,262.1h-23a10,10,0,1,1,0-20h23"/><path class="cls-4" d="M562.1,272.1h47.67a5,5,0,0,1,0,10h-47a10,10,0,0,1,0-20h47a5,5,0,0,1,0,10H562.09"/><path class="cls-4" d="M561.76,282.1h-23a10,10,0,0,1,0-20h23"/><polyline class="cls-4" points="92.02 286.54 92.02 304.67 66.9 304.67 66.9 291.27"/><polyline class="cls-4" points="66.9 273.89 66.9 244.38 92.02 244.38 92.02 273.89"/><polygon class="cls-2" points="65.22 273.89 93.69 273.89 100.39 290.48 90.02 285.61 81.73 294.62 75.27 284.26 63.55 293.99 63.55 284.26 53.5 287.29 65.22 273.89"/><line class="cls-5" x1="88" y1="254.77" x2="85.32" y2="252.76"/><line class="cls-5" x1="75.27" y1="261.13" x2="72.06" y2="262.1"/><line class="cls-5" x1="85.01" y1="267.83" x2="81.97" y2="266.43"/><line class="cls-5" x1="75.27" y1="253.84" x2="72.81" y2="256.11"/><rect class="cls-4" x="3.92" y="218.17" width="32.4" height="10.51"/><path class="cls-4" d="M33.41,304.67H6.82A5.82,5.82,0,0,1,1,298.85V238.22a4.32,4.32,0,0,1,4.32-4.32H34.91a4.32,4.32,0,0,1,4.32,4.32v60.63A5.82,5.82,0,0,1,33.41,304.67Z"/><line class="cls-2" x1="7.57" y1="228.68" x2="7.57" y2="234.18"/><line class="cls-2" x1="32.66" y1="228.68" x2="32.66" y2="234.18"/><path class="cls-2" d="M36,221.28c14.61-4.94,16.62,13.11,2.06,14.09"/><line class="cls-4" x1="1.4" y1="251.64" x2="10.96" y2="251.64"/><line class="cls-4" x1="1.4" y1="261.44" x2="10.96" y2="261.44"/><line class="cls-4" x1="1.4" y1="271.23" x2="10.96" y2="271.23"/><line class="cls-4" x1="1.4" y1="281.02" x2="10.96" y2="281.02"/><line class="cls-4" x1="1.4" y1="290.81" x2="10.96" y2="290.81"/><line class="cls-4" x1="9.96" y1="227.49" x2="9.96" y2="223.55"/><line class="cls-4" x1="15.04" y1="227.49" x2="15.04" y2="223.55"/><line class="cls-4" x1="20.12" y1="227.49" x2="20.12" y2="223.55"/><line class="cls-4" x1="25.19" y1="227.49" x2="25.19" y2="223.55"/><line class="cls-4" x1="30.27" y1="227.49" x2="30.27" y2="223.55"/><path class="cls-2" d="M1,244.56c6-3.21,13-.84,19.12,1.19,7.17,2.39,13.14,2.39,19.12-2.39"/><rect class="cls-4" x="348.31" y="14.28" width="86.1" height="52.51" rx="5.68" ry="5.68"/><circle class="cls-4" cx="371.97" cy="36.99" r="5.68"/><path class="cls-4" d="M360.61,54a11.35,11.35,0,1,1,22.71,0"/><g class="cls-6"><rect class="cls-4" x="357.3" y="25.16" width="29.33" height="29.33"/><line class="cls-4" x1="396.1" y1="25.16" x2="424.48" y2="25.16"/><line class="cls-4" x1="396.1" y1="33.68" x2="424.48" y2="33.68"/><line class="cls-4" x1="396.1" y1="54.49" x2="407.45" y2="54.49"/><line class="cls-4" x1="413.13" y1="54.49" x2="424.48" y2="54.49"/><line class="cls-4" x1="396.1" y1="44.09" x2="407.45" y2="44.09"/><line class="cls-4" x1="413.13" y1="44.09" x2="424.48" y2="44.09"/></g><path class="cls-4" d="M230.74,322h-9.67a10.33,10.33,0,0,1-10.33-10.33l-.08-28.59a13,13,0,0,1,6.29-11.1l13.71-8.23Z"/><line class="cls-4" x1="210.74" y1="302" x2="230.74" y2="302"/><path class="cls-4" d="M350.74,295.35v39.54A16.11,16.11,0,0,1,334.63,351H270.85a16.11,16.11,0,0,1-16.11-16.11V295.35"/><path class="cls-4" d="M352.74,295h-100l1.63-24.4a6,6,0,0,1,6-5.6h84.77a6,6,0,0,1,6,5.6Z"/><path class="cls-4" d="M350.74,235v6.24A11.76,11.76,0,0,1,339,253H266.5a11.76,11.76,0,0,1-11.76-11.76V235"/><path class="cls-4" d="M352.74,235h-100l1.63-24.4a6,6,0,0,1,6-5.6h84.77a6,6,0,0,1,6,5.6Z"/><line class="cls-4" x1="210.66" y1="282.92" x2="221.66" y2="282.92"/><line class="cls-4" x1="374.74" y1="302" x2="394.74" y2="302"/><line class="cls-4" x1="374.66" y1="288.92" x2="394.66" y2="288.92"/><path class="cls-4" d="M283,160.89c-1.64-2.94-3.44-6-5.31-9-5.37-8.44-27.62-6.64-34-3.1-1.95,1.07-1.58,2.48,0,4.1,7,7,6,23,6,23h41s-1.1-2.37-2.91-6"/><path class="cls-4" d="M342.41,175.88h13.08c9,0,18.92,34,18.92,64v83c0,25-19.92,40.09-44.92,40.09H275.66c-25,0-44.92-15.09-44.92-40.09v-83c0-30,9.92-64,18.92-64h92.75Z"/><line class="cls-4" x1="230.74" y1="310.42" x2="254.74" y2="310.42"/><line class="cls-4" x1="350.66" y1="310.92" x2="374.66" y2="310.92"/><path class="cls-4" d="M374.4,264l20.34,11.85v37.48a8.67,8.67,0,0,1-8.68,8.67H374.4Z"/><line class="cls-4" x1="280.07" y1="165.92" x2="274.59" y2="175.42"/><line class="cls-4" x1="330.55" y1="175.42" x2="325.07" y2="165.92"/><line class="cls-4" x1="290.07" y1="165.92" x2="284.59" y2="175.42"/><line class="cls-4" x1="320.55" y1="175.42" x2="315.07" y2="165.92"/><polygon class="cls-4" points="325.07 165.92 280.07 165.92 284.69 157.92 320.45 157.92 325.07 165.92"/><path class="cls-4" d="M243.61,148.81c-14,11-11,40.1-11,66.1"/><path class="cls-4" d="M322.08,160.87c1.63-2.93,3.43-6,5.3-9,5.37-8.44,27.62-6.64,34-3.1,1.94,1.07,1.58,2.48,0,4.1-7,7-6,23-6,23h-41s1.12-2.42,3-6"/><path class="cls-4" d="M361.43,148.81c14,11,11,40.1,11,66.1"/><line class="cls-3" x1="248.09" y1="78.86" x2="262.5" y2="130.47"/><line class="cls-3" x1="453.18" y1="161.92" x2="386.64" y2="198.33"/><line class="cls-3" x1="116.87" y1="272.1" x2="193.89" y2="280"/><line class="cls-3" x1="506.21" y1="261.44" x2="410.29" y2="281.02"/></g></g></svg>