<?xml version="1.0" encoding="UTF-8" standalone="no"?>
<svg width="374px" height="418px" viewBox="0 0 374 418" version="1.1" xmlns="http://www.w3.org/2000/svg" xmlns:xlink="http://www.w3.org/1999/xlink">
    <!-- Generator: Sketch 41 (35326) - http://www.bohemiancoding.com/sketch -->
    <title>Page 1</title>
    <desc>Created with Sketch.</desc>
    <defs></defs>
    <g id="Page-1" stroke="none" stroke-width="1" fill="none" fill-rule="evenodd" stroke-linecap="round" stroke-linejoin="round">
        <g id="home" transform="translate(-900.000000, -920.000000)" stroke-width="2">
            <g id="Page-1" transform="translate(901.000000, 920.000000)">
                <path d="M370.6981,118.6367 L332.4881,118.6367" id="Stroke-1" stroke="#626262"></path>
                <polyline id="Stroke-3" stroke="#626262" points="24.7626 163.7124 24.7626 73.0604 51.8466 73.0604 51.8466 63.5534 85.3306 63.5534 85.3306 56.4884"></polyline>
                <g id="Group-120" transform="translate(0.000000, 0.394000)">
                    <polyline id="Stroke-4" stroke="#626262" points="332.4881 159.6299 332.4881 193.7919 332.4881 193.8559 371.5721 193.8559 371.5721 63.1589 116.6811 63.1589 116.6811 56.0949"></polyline>
                    <path d="M332.4881,290.0333 L332.4881,257.5113 L371.5721,257.5113 L371.5721,369.9023 C371.5721,375.4253 367.0941,379.9023 361.5721,379.9023 L286.8031,379.9023 L286.8031,305.7313 L297.6261,305.7313" id="Stroke-6" stroke="#626262"></path>
                    <path d="M242.7128,316.0572 L242.7128,339.4322" id="Stroke-8" stroke="#626262"></path>
                    <path d="M195.3583,306.4444 L195.3583,334.1314" id="Stroke-10" stroke="#626262"></path>
                    <polyline id="Stroke-12" stroke="#626262" points="311.7215 306.4444 332.4885 306.4444 332.4885 299.5074"></polyline>
                    <polyline id="Stroke-14" stroke="#626262" points="265.2655 152.4722 265.2655 171.8712 289.0185 171.8712 289.0185 153.8912 282.2045 153.8912 282.2045 121.4322 265.2655 121.4322 265.2655 125.9752"></polyline>
                    <path d="M265.2655,146.0372 L265.2655,132.5042" id="Stroke-16" stroke="#626262"></path>
                    <polyline id="Stroke-18" stroke="#626262" points="302.8582 126.3799 306.0002 149.7559 307.7602 162.3739 310.3732 180.6999 292.2032 183.0199 295.7402 210.0839 281.9842 210.0839"></polyline>
                    <polyline id="Stroke-20" stroke="#626262" points="198.7098 103.7022 198.7098 163.6362 173.2228 163.6362 173.2228 202.2462"></polyline>
                    <polyline id="Stroke-22" stroke="#626262" points="126.537 147.6334 156.405 147.6334 156.405 154.7064"></polyline>
                    <path d="M332.4881,63.1592 L332.4881,87.0472" id="Stroke-24" stroke="#626262"></path>
                    <polyline id="Stroke-26" stroke="#626262" points="230.409 79.2427 168.869 84.7317 138.192 81.4607"></polyline>
                    <path d="M168.5848,84.5289 L168.5848,63.1749" id="Stroke-28" stroke="#626262"></path>
                    <polyline id="Stroke-30" stroke="#626262" points="126.537 147.2476 126.537 108.7116 136.664 108.7116"></polyline>
                    <polyline id="Stroke-32" stroke="#626262" points="156.4051 148.1558 156.4051 108.7118 146.2521 108.7118"></polyline>
                    <path d="M213.4725,115.2471 L213.4725,121.1481" id="Stroke-34" stroke="#626262"></path>
                    <polyline id="Stroke-36" stroke="#626262" points="302.8582 126.3799 298.8312 97.2409 213.4722 103.7019 213.4722 121.1489"></polyline>
                    <path d="M265.2655,139.2867 L282.2045,139.2867" id="Stroke-38" stroke="#626262"></path>
                    <path d="M234.746,264.5772 L234.746,277.2452" id="Stroke-40" stroke="#626262"></path>
                    <polyline id="Stroke-42" stroke="#626262" points="234.746 284.4371 234.746 290.0331 211.277 290.0331 211.277 235.9981 237.017 235.9981 237.017 241.8651 234.746 241.8651 234.746 257.4801"></polyline>
                    <path d="M234.5253,271.2017 L211.2773,271.2017" id="Stroke-44" stroke="#626262"></path>
                    <polyline id="Stroke-46" stroke="#626262" points="126.537 147.2476 126.537 164.0756 157.612 164.0756 157.612 202.1866"></polyline>
                    <path d="M24.7626,257.8223 L24.7626,357.5733" id="Stroke-48" stroke="#626262"></path>
                    <path d="M24.7626,236.1597 L24.7626,163.0577" id="Stroke-50" stroke="#626262"></path>
                    <polyline id="Stroke-52" stroke="#626262" points="195.4686 306.4444 195.4686 287.4494 195.4686 261.4404 195.4686 210.4384 189.7366 210.4384 189.7366 202.1874 126.6556 202.1874 126.6556 163.7704"></polyline>
                    <polyline id="Stroke-54" stroke="#626262" points="250.4208 126.1959 250.4208 121.4329 226.9518 121.4329 226.9518 175.4679 252.6918 175.4679 252.6918 164.1119 250.4208 164.1119 250.4208 159.9479"></polyline>
                    <path d="M250.4208,160.7999 L250.4208,132.5049" id="Stroke-56" stroke="#626262"></path>
                    <path d="M194.7987,357.8111 L9.9997,357.8111 C4.4777,357.8111 -0.0003,353.3331 -0.0003,347.8111 L-0.0003,308.4051 L-0.0003,214.0181 L-0.0003,10.6051 C-0.0003,5.0821 4.4777,0.6051 9.9997,0.6051 L361.7607,0.6051 C367.2827,0.6051 371.7607,5.0821 371.7607,10.6051 L371.7607,63.3071" id="Stroke-58" stroke="#626262"></path>
                    <polyline id="Stroke-60" stroke="#626262" points="42.3456 72.6666 24.7626 72.6666 24.7626 163.3186 -0.0004 163.3186"></polyline>
                    <path d="M243.8182,306.4444 L195.3582,306.4444" id="Stroke-62" stroke="#626262"></path>
                    <polyline id="Stroke-64" stroke="#626262" points="24.7674 202.2466 99.1144 202.2466 99.1144 147.2476 95.0354 147.2476 95.0354 139.5066 95.0154 129.1206 95.0154 104.6326 55.4054 104.6326"></polyline>
                    <path d="M332.4881,104.5855 L332.4881,141.1765" id="Stroke-66" stroke="#626262"></path>
                    <path d="M184.6454,114.8516 L184.6454,151.0986" id="Stroke-68" stroke="#626262"></path>
                    <path d="M286.8231,379.9024 L286.8231,390.3574" id="Stroke-70" stroke="#626262"></path>
                    <path d="M264.0164,390.3575 L264.0164,379.9025 L205.5124,379.9025 C200.0064,379.9025 195.5364,375.4515 195.5124,369.9455 L195.3584,334.1315 L242.7774,334.1315 L242.7774,352.4785 L252.0904,352.4785 L252.0904,361.0285" id="Stroke-72" stroke="#626262"></path>
                    <path d="M252.0907,379.9024 L252.0907,369.8634" id="Stroke-74" stroke="#626262"></path>
                    <path d="M371.5721,193.7921 L371.5721,257.8221" id="Stroke-76" stroke="#626262"></path>
                    <path d="M24.7626,103.7022 L39.0176,103.7022" id="Stroke-78" stroke="#626262"></path>
                    <path d="M311.1971,379.6617 C311.1971,399.7307 294.9271,415.9997 274.8591,415.9997 C254.7901,415.9997 238.5211,399.7307 238.5211,379.6617" id="Stroke-80" stroke="#626262"></path>
                    <path d="M195.7704,210.084 L258.4714,210.084" id="Stroke-82" stroke="#626262"></path>
                    <polyline id="Stroke-84" stroke="#626262" points="58.9676 63.1592 58.9676 43.3562 184.3696 43.3562 184.3696 63.1592"></polyline>
                    <polyline id="Stroke-86" stroke="#626262" points="332.5721 306.273 332.5721 339.049 286.9711 339.049"></polyline>
                    <path d="M150.1698,175.171 L134.1378,191.203" id="Stroke-88" stroke="#FC8E19"></path>
                    <path d="M134.1376,175.171 L150.1696,191.203" id="Stroke-90" stroke="#FC8E19"></path>
                    <path d="M318.3221,314.8233 L302.2911,330.8553" id="Stroke-92" stroke="#FC8E19"></path>
                    <path d="M302.2909,314.8233 L318.3219,330.8553" id="Stroke-94" stroke="#FC8E19"></path>
                    <path d="M98.7606,330.8028 L43.7606,330.8028 L43.7606,251.7168 C43.7606,242.3758 51.3326,234.8028 60.6746,234.8028 L81.8466,234.8028 C91.1886,234.8028 98.7606,242.3758 98.7606,251.7168 L98.7606,330.8028 Z" id="Stroke-96" stroke="#626262"></path>
                    <path d="M169.7606,330.8028 L114.7606,330.8028 L114.7606,251.7168 C114.7606,242.3758 122.3326,234.8028 131.6746,234.8028 L152.8466,234.8028 C162.1886,234.8028 169.7606,242.3758 169.7606,251.7168 L169.7606,330.8028 Z" id="Stroke-98" stroke="#626262"></path>
                    <path d="M43.7606,330.8028 L43.7606,333.6158 C43.7606,336.4808 46.0826,338.8028 48.9476,338.8028 L93.5736,338.8028 C96.4386,338.8028 98.7606,336.4808 98.7606,333.6158 L98.7606,330.8028" id="Stroke-100" stroke="#626262"></path>
                    <path d="M114.7606,330.8028 L114.7606,333.6158 C114.7606,336.4808 117.0826,338.8028 119.9476,338.8028 L164.5736,338.8028 C167.4386,338.8028 169.7606,336.4808 169.7606,333.6158 L169.7606,330.8028" id="Stroke-102" stroke="#626262"></path>
                    <path d="M49.7606,276.8028 L45.7606,276.8028 C44.6566,276.8028 43.7606,275.9068 43.7606,274.8028 L43.7606,259.8028 C43.7606,258.6988 44.6566,257.8028 45.7606,257.8028 L49.7606,257.8028 C50.8646,257.8028 51.7606,258.6988 51.7606,259.8028 L51.7606,274.8028 C51.7606,275.9068 50.8646,276.8028 49.7606,276.8028 Z" id="Stroke-104" stroke="#626262"></path>
                    <path d="M96.7606,276.8028 L92.7606,276.8028 C91.6566,276.8028 90.7606,275.9068 90.7606,274.8028 L90.7606,259.8028 C90.7606,258.6988 91.6566,257.8028 92.7606,257.8028 L96.7606,257.8028 C97.8646,257.8028 98.7606,258.6988 98.7606,259.8028 L98.7606,274.8028 C98.7606,275.9068 97.8646,276.8028 96.7606,276.8028 Z" id="Stroke-106" stroke="#626262"></path>
                    <path d="M120.7606,276.8028 L116.7606,276.8028 C115.6566,276.8028 114.7606,275.9068 114.7606,274.8028 L114.7606,259.8028 C114.7606,258.6988 115.6566,257.8028 116.7606,257.8028 L120.7606,257.8028 C121.8646,257.8028 122.7606,258.6988 122.7606,259.8028 L122.7606,274.8028 C122.7606,275.9068 121.8646,276.8028 120.7606,276.8028 Z" id="Stroke-108" stroke="#626262"></path>
                    <path d="M167.7606,276.8028 L163.7606,276.8028 C162.6566,276.8028 161.7606,275.9068 161.7606,274.8028 L161.7606,259.8028 C161.7606,258.6988 162.6566,257.8028 163.7606,257.8028 L167.7606,257.8028 C168.8646,257.8028 169.7606,258.6988 169.7606,259.8028 L169.7606,274.8028 C169.7606,275.9068 168.8646,276.8028 167.7606,276.8028 Z" id="Stroke-110" stroke="#626262"></path>
                    <path d="M49.7606,315.8028 L45.7606,315.8028 C44.6566,315.8028 43.7606,314.9068 43.7606,313.8028 L43.7606,298.8028 C43.7606,297.6988 44.6566,296.8028 45.7606,296.8028 L49.7606,296.8028 C50.8646,296.8028 51.7606,297.6988 51.7606,298.8028 L51.7606,313.8028 C51.7606,314.9068 50.8646,315.8028 49.7606,315.8028 Z" id="Stroke-112" stroke="#626262"></path>
                    <path d="M96.7606,315.8028 L92.7606,315.8028 C91.6566,315.8028 90.7606,314.9068 90.7606,313.8028 L90.7606,298.8028 C90.7606,297.6988 91.6566,296.8028 92.7606,296.8028 L96.7606,296.8028 C97.8646,296.8028 98.7606,297.6988 98.7606,298.8028 L98.7606,313.8028 C98.7606,314.9068 97.8646,315.8028 96.7606,315.8028 Z" id="Stroke-114" stroke="#626262"></path>
                    <path d="M120.7606,315.8028 L116.7606,315.8028 C115.6566,315.8028 114.7606,314.9068 114.7606,313.8028 L114.7606,298.8028 C114.7606,297.6988 115.6566,296.8028 116.7606,296.8028 L120.7606,296.8028 C121.8646,296.8028 122.7606,297.6988 122.7606,298.8028 L122.7606,313.8028 C122.7606,314.9068 121.8646,315.8028 120.7606,315.8028 Z" id="Stroke-116" stroke="#626262"></path>
                    <path d="M167.7606,315.8028 L163.7606,315.8028 C162.6566,315.8028 161.7606,314.9068 161.7606,313.8028 L161.7606,298.8028 C161.7606,297.6988 162.6566,296.8028 163.7606,296.8028 L167.7606,296.8028 C168.8646,296.8028 169.7606,297.6988 169.7606,298.8028 L169.7606,313.8028 C169.7606,314.9068 168.8646,315.8028 167.7606,315.8028 Z" id="Stroke-118" stroke="#626262"></path>
                </g>
            </g>
        </g>
    </g>
</svg>