<?xml version="1.0" encoding="UTF-8" standalone="no"?>
<svg width="541px" height="258px" viewBox="0 0 541 258" version="1.1" xmlns="http://www.w3.org/2000/svg" xmlns:xlink="http://www.w3.org/1999/xlink">
    <!-- Generator: Sketch 41.1 (35376) - http://www.bohemiancoding.com/sketch -->
    <title>Group 19</title>
    <desc>Created with Sketch.</desc>
    <defs>
        <polygon id="path-1" points="0 28 62 28 62 0.5 0 0.5"></polygon>
        <polygon id="path-3" points="0 28 62 28 62 0.5 0 0.5"></polygon>
        <polygon id="path-5" points="0 80.6922 51.157 80.6922 51.157 0.0002 0 0.0002"></polygon>
        <polygon id="path-7" points="0 64.591 42.6 64.591 42.6 0 0 0"></polygon>
        <polygon id="path-9" points="0 64.591 42.6 64.591 42.6 0 0 0"></polygon>
        <polygon id="path-11" points="0 80.6922 51.157 80.6922 51.157 0.0002 0 0.0002"></polygon>
        <polygon id="path-13" points="0 80.6922 51.157 80.6922 51.157 0.0002 0 0.0002"></polygon>
        <polygon id="path-15" points="0 52.7986 33.4488077 52.7986 33.4488077 0.000130864197 0 0.000130864197"></polygon>
        <polygon id="path-17" points="0 62 27.5 62 27.5 0 0 0"></polygon>
        <polygon id="path-19" points="0 62.0001 27.5 62.0001 27.5 0.0001 0 0.0001"></polygon>
        <polygon id="path-21" points="0 42.0001 19 42.0001 19 0.0001 0 0.0001"></polygon>
        <polygon id="path-23" points="0 42.0001 19 42.0001 19 0.0001 0 0.0001"></polygon>
        <polygon id="path-25" points="0 42 19 42 19 0 0 0"></polygon>
        <polygon id="path-27" points="0 54 32.107 54 32.107 0 0 0"></polygon>
    </defs>
    <g id="Page-1" stroke="none" stroke-width="1" fill="none" fill-rule="evenodd">
        <g id="build-your-bag" transform="translate(-138.000000, -1206.000000)">
            <g id="Page-1" transform="translate(139.000000, 1207.000000)">
                <g id="Group-19">
                    <path d="M490.5638,110.982 L432.0368,110.982 L432.0368,90.826 C432.0368,84.124 437.4688,78.691 444.1708,78.691 L478.4288,78.691 C485.1308,78.691 490.5638,84.124 490.5638,90.826 L490.5638,110.982 Z" id="Stroke-1" stroke="#626262" stroke-width="2" stroke-linejoin="round"></path>
                    <path d="M423.9632,110.982 L498.6362,110.982" id="Stroke-3" stroke="#626262" stroke-width="2" stroke-linejoin="round"></path>
                    <polygon id="Stroke-5" stroke="#626262" stroke-width="2" stroke-linejoin="round" points="446.164 78.691 476.436 78.691 476.436 64.564 446.164 64.564"></polygon>
                    <path d="M476.4359,70.6182 L486.5279,70.6182" id="Stroke-7" stroke="#626262" stroke-width="2" stroke-linejoin="round"></path>
                    <path d="M486.5277,65.982 L486.5277,74.982" id="Stroke-8" stroke="#626262" stroke-width="2" stroke-linecap="round" stroke-linejoin="round"></path>
                    <path d="M452.2181,64.564 L452.2181,54.473 C452.2181,48.9 456.7361,44.382 462.3091,44.382 C467.8821,44.382 472.4001,48.9 472.4001,54.473 L472.4001,64.564" id="Stroke-9" stroke="#626262" stroke-width="2" stroke-linejoin="round"></path>
                    <polyline id="Stroke-10" stroke="#626262" stroke-width="2" stroke-linejoin="round" points="438.0912 40.3458 452.2182 54.4728 472.4002 54.4728 486.5282 40.3458"></polyline>
                    <path d="M428.0004,40.3458 L494.6004,40.3458" id="Stroke-11" stroke="#626262" stroke-width="2" stroke-linejoin="round"></path>
                    <path d="M493.2103,35.3555 L429.3893,35.3555 C428.0083,35.3555 426.8053,34.4125 426.4763,33.0705 L424.0003,22.9815 L498.6003,22.9815 L496.1243,33.0705 C495.7953,34.4125 494.5923,35.3555 493.2103,35.3555 Z" id="Stroke-12" stroke="#626262" stroke-width="2" stroke-linejoin="round"></path>
                    <path d="M498.2699,22.982 L538.6329,22.982 C538.6329,22.982 538.6329,30.537 528.5419,30.537 C518.4519,30.537 517.4399,27.018 497.2509,27.018" id="Stroke-13" stroke="#626262" stroke-width="2" stroke-linejoin="round"></path>
                    <path d="M450.4154,0.0001 C451.3134,0.8151 452.3074,1.4841 452.5614,3.3021 C453.0154,6.5261 449.5484,7.0131 450.0014,10.2361 C450.2664,12.1201 451.3224,12.7711 452.2454,13.6281" id="Stroke-14" stroke="#626262" stroke-width="2" stroke-linecap="round"></path>
                    <path d="M461.5902,0.0001 C462.4882,0.8151 463.4822,1.4841 463.7362,3.3021 C464.1902,6.5261 460.7232,7.0131 461.1762,10.2361 C461.4412,12.1201 462.4972,12.7711 463.4202,13.6281" id="Stroke-15" stroke="#626262" stroke-width="2" stroke-linecap="round"></path>
                    <path d="M472.765,0.0001 C473.663,0.8151 474.657,1.4841 474.911,3.3021 C475.365,6.5261 471.898,7.0131 472.351,10.2361 C472.616,12.1201 473.672,12.7711 474.595,13.6281" id="Stroke-16" stroke="#626262" stroke-width="2" stroke-linecap="round"></path>
                    <path d="M73.7789823,253.933754 L9.03672566,253.933754 L9.03672566,231.698167 C9.03672566,224.30469 15.0455752,218.311143 22.459292,218.311143 L60.3553097,218.311143 C67.7690265,218.311143 73.7789823,224.30469 73.7789823,231.698167 L73.7789823,253.933754 Z" id="Stroke-1" stroke="#626262" stroke-width="2" stroke-linejoin="round"></path>
                    <path d="M0.105752212,253.793651 L82.7086283,253.793651" id="Stroke-3" stroke="#626262" stroke-width="2" stroke-linejoin="round"></path>
                    <polygon id="Stroke-5" stroke="#626262" stroke-width="2" stroke-linejoin="round" points="24.6637168 218.311143 58.1504425 218.311143 58.1504425 202.726595 24.6637168 202.726595"></polygon>
                    <path d="M58.1507743,209.405435 L69.3144912,209.405435" id="Stroke-7" stroke="#626262" stroke-width="2" stroke-linejoin="round"></path>
                    <path d="M69.3142699,204.290897 L69.3142699,214.219468" id="Stroke-8" stroke="#626262" stroke-width="2" stroke-linecap="round" stroke-linejoin="round"></path>
                    <path d="M31.3611726,202.726595 L31.3611726,191.59446 C31.3611726,185.446468 36.3589602,180.462325 42.5237832,180.462325 C48.6886062,180.462325 53.6863938,185.446468 53.6863938,191.59446 L53.6863938,202.726595" id="Stroke-9" stroke="#626262" stroke-width="2" stroke-linejoin="round"></path>
                    <polyline id="Stroke-10" stroke="#626262" stroke-width="2" stroke-linejoin="round" points="15.7339602 176.009692 31.3611726 191.59424 53.6863938 191.59424 69.3147124 176.009692"></polyline>
                    <path d="M4.5715708,176.009692 L78.2441372,176.009692" id="Stroke-11" stroke="#626262" stroke-width="2" stroke-linejoin="round"></path>
                    <path d="M72.3033186,171.53665 L10.5123894,171.53665 C9.67057522,171.53665 8.96150442,170.908944 8.8630531,170.074944 L4.57212389,133.687833 L78.2435841,133.687833 L73.9504425,170.074944 C73.8519912,170.908944 73.1451327,171.53665 72.3033186,171.53665 Z" id="Stroke-12" stroke="#626262" stroke-width="2" stroke-linejoin="round"></path>
                    <polygon id="Stroke-13" stroke="#626262" stroke-width="2" stroke-linejoin="round" points="79.6642699 127.008331 3.15099558 127.008331 0.105641593 133.688053 82.7085177 133.688053"></polygon>
                    <path d="M77.3154297,142.893066 L122.893031,142.59332 C122.893031,142.59332 122.893031,150.927804 111.73042,150.927804 C100.568916,150.927804 98.3432522,147.045733 76.0102876,147.045733" id="Stroke-14" stroke="#626262" stroke-width="2" stroke-linejoin="round"></path>
                    <path d="M29.128208,127.008331 L29.128208,123.066688 C29.128208,120.325299 31.3582965,118.102402 34.1060841,118.102402 L48.707854,118.102402 C51.457854,118.102402 53.6857301,120.325299 53.6857301,123.066688 L53.6857301,127.008331" id="Stroke-15" stroke="#626262" stroke-width="2" stroke-linejoin="round"></path>
                    <path d="M9.03639381,231.697836 L31.361615,231.697836" id="Stroke-16" stroke="#626262" stroke-width="2" stroke-linecap="round" stroke-linejoin="round"></path>
                    <g id="Page-1" transform="translate(340.000000, 85.000000)" stroke="#626262" stroke-width="2" stroke-linecap="round">
                        <path d="M12.3809524,39.047619 L14.0628571,74.8857143 C14.1847619,77.4761905 12.1171429,79.6428571 9.52380952,79.6428571 C6.93047619,79.6428571 4.86285714,77.4761905 4.9847619,74.8857143 L6.66666667,39.047619" id="Stroke-1"></path>
                        <path d="M19.047619,27.6190476 C19.047619,35.5085714 14.7828571,39.047619 9.52380952,39.047619 C4.2647619,39.047619 0,35.5085714 0,27.6190476 C0,19.7295238 4.2647619,10.4761905 9.52380952,10.4761905 C14.7828571,10.4761905 19.047619,19.7295238 19.047619,27.6190476 Z" id="Stroke-3"></path>
                        <path d="M38.3333333,80 L35.1390476,80 C32.48,80 30.3704762,77.7609524 30.5257143,75.1066667 L33.0952381,45.7142857 L39.7619048,45.7142857 L39.7619048,78.5714286 C39.7619048,79.3609524 39.1219048,80 38.3333333,80 Z" id="Stroke-5"></path>
                        <path d="M39.7619048,45.7142857 L33.0952381,45.7142857 L30.7095238,42.9733333 C29.7914286,41.9180952 29.2857143,40.5666667 29.2857143,39.167619 L29.2857143,14.2857143 C29.2857143,5.71428571 33.5504762,0 38.8095238,0 C39.3361905,0 39.7619048,0.426666667 39.7619048,0.952380952 L39.7619048,41.1257143 L39.7619048,45.7142857 Z" id="Stroke-7"></path>
                        <path d="M51.1904762,9.52380952 L49.2857143,30.4761905 C49.2857143,38.3657143 54.5019048,39.047619 59.7619048,39.047619 C65.0219048,39.047619 70.2380952,38.3657143 70.2380952,30.4761905 L68.3333333,9.52380952" id="Stroke-9" stroke-linejoin="round"></path>
                        <path d="M62.6190476,39.047619 L64.3009524,74.8857143 C64.4228571,77.4761905 62.3552381,79.6428571 59.7619048,79.6428571 C57.1685714,79.6428571 55.1009524,77.4761905 55.2228571,74.8857143 L56.9047619,39.047619" id="Stroke-11"></path>
                        <path d="M49.6317143,26.6666667 L69.8917143,26.6666667" id="Stroke-13" stroke-linejoin="round"></path>
                        <path d="M56.4285714,26.6666667 L56.4285714,9.52380952" id="Stroke-15" stroke-linejoin="round"></path>
                        <path d="M62.6190476,26.6666667 L62.6190476,9.52380952" id="Stroke-17" stroke-linejoin="round"></path>
                    </g>
                    <g id="Page-1" transform="translate(69.000000, 43.000000)">
                        <g id="Group-7" transform="translate(0.000000, 0.500000)">
                            <polygon id="Stroke-1" stroke="#626262" stroke-width="2" stroke-linejoin="round" points="8.5002 26.9992 8.5002 1.5002 1.0002 1.5002 1.0002 14.9962 1.0002 27.0002"></polygon>
                            <polygon id="Stroke-3" stroke="#626262" stroke-width="2" stroke-linejoin="round" points="61.0002 27.0001 61.0002 15.0001 61.0002 1.5001 53.5002 1.5001 53.5002 26.9991"></polygon>
                            <mask id="mask-2" fill="white">
                                <use xlink:href="#path-1"></use>
                            </mask>
                            <g id="Clip-6"></g>
                            <polygon id="Stroke-5" stroke="#626262" stroke-width="2" stroke-linecap="round" stroke-linejoin="round" mask="url(#mask-2)" points="8.5 27 53.5 27 53.5 1.5 8.5 1.5"></polygon>
                        </g>
                        <polygon id="Stroke-8" stroke="#626262" stroke-width="2" stroke-linejoin="round" points="16 20 46 20 46 9.5 16 9.5"></polygon>
                    </g>
                    <g id="Page-1-Copy-26" transform="translate(69.000000, 3.000000)">
                        <g id="Group-7" transform="translate(0.000000, 0.500000)">
                            <polygon id="Stroke-1" stroke="#626262" stroke-width="2" stroke-linejoin="round" points="8.5002 26.9992 8.5002 1.5002 1.0002 1.5002 1.0002 14.9962 1.0002 27.0002"></polygon>
                            <polygon id="Stroke-3" stroke="#626262" stroke-width="2" stroke-linejoin="round" points="61.0002 27.0001 61.0002 15.0001 61.0002 1.5001 53.5002 1.5001 53.5002 26.9991"></polygon>
                            <mask id="mask-4" fill="white">
                                <use xlink:href="#path-3"></use>
                            </mask>
                            <g id="Clip-6"></g>
                            <polygon id="Stroke-5" stroke="#626262" stroke-width="2" stroke-linecap="round" stroke-linejoin="round" mask="url(#mask-4)" points="8.5 27 53.5 27 53.5 1.5 8.5 1.5"></polygon>
                        </g>
                        <polygon id="Stroke-8" stroke="#626262" stroke-width="2" stroke-linejoin="round" points="16 20 46 20 46 9.5 16 9.5"></polygon>
                    </g>
                    <g id="Page-1" transform="translate(241.000000, 23.000000)" stroke="#626262" stroke-width="2" stroke-linejoin="round">
                        <g id="Group-7" transform="translate(0.000000, 0.610300)">
                            <polyline id="Stroke-1" stroke-linecap="round" points="27.8625 31.8859 27.8625 43.9999 9.6915 43.9999 9.6915 34.3089"></polyline>
                            <polyline id="Stroke-3" stroke-linecap="round" points="9.6916 20.9836 9.6916 0.3896 27.8626 0.3896 27.8626 20.9836"></polyline>
                            <polygon id="Stroke-5" points="8.4797 21.7336 29.0737 21.7336 33.9187 33.7326 26.4197 30.2126 20.4207 36.7316 15.7487 29.2326 7.2687 36.2706 7.2687 29.2326 0.000700000001 31.4246"></polygon>
                        </g>
                        <path id="Stroke-8" stroke-linecap="round"></path>
                        <path id="Stroke-9" stroke-linecap="round"></path>
                        <path id="Stroke-10" stroke-linecap="round"></path>
                        <path id="Stroke-11" stroke-linecap="round"></path>
                        <path id="Stroke-12" stroke-linecap="round"></path>
                        <path d="M24.9552,8.5109 L23.0172,7.0569" id="Stroke-13" stroke-linecap="round"></path>
                        <path d="M15.7482,13.1139 L13.4282,13.8109" id="Stroke-14" stroke-linecap="round"></path>
                        <path d="M22.7951,17.9596 L20.5941,16.9466" id="Stroke-15" stroke-linecap="round"></path>
                        <path d="M15.7482,7.8385 L13.9662,9.4795" id="Stroke-16" stroke-linecap="round"></path>
                    </g>
                    <g id="Page-1-Copy-20" transform="translate(199.000000, 23.000000)" stroke="#626262" stroke-width="2" stroke-linejoin="round">
                        <g id="Group-7" transform="translate(0.000000, 0.610300)">
                            <polyline id="Stroke-1" stroke-linecap="round" points="27.8625 31.8859 27.8625 43.9999 9.6915 43.9999 9.6915 34.3089"></polyline>
                            <polyline id="Stroke-3" stroke-linecap="round" points="9.6916 20.9836 9.6916 0.3896 27.8626 0.3896 27.8626 20.9836"></polyline>
                            <polygon id="Stroke-5" points="8.4797 21.7336 29.0737 21.7336 33.9187 33.7326 26.4197 30.2126 20.4207 36.7316 15.7487 29.2326 7.2687 36.2706 7.2687 29.2326 0.000700000001 31.4246"></polygon>
                        </g>
                        <path id="Stroke-8" stroke-linecap="round"></path>
                        <path id="Stroke-9" stroke-linecap="round"></path>
                        <path id="Stroke-10" stroke-linecap="round"></path>
                        <path id="Stroke-11" stroke-linecap="round"></path>
                        <path id="Stroke-12" stroke-linecap="round"></path>
                        <path d="M24.9552,8.5109 L23.0172,7.0569" id="Stroke-13" stroke-linecap="round"></path>
                        <path d="M15.7482,13.1139 L13.4282,13.8109" id="Stroke-14" stroke-linecap="round"></path>
                        <path d="M22.7951,17.9596 L20.5941,16.9466" id="Stroke-15" stroke-linecap="round"></path>
                        <path d="M15.7482,7.8385 L13.9662,9.4795" id="Stroke-16" stroke-linecap="round"></path>
                    </g>
                    <g id="Page-1" transform="translate(282.000000, 24.000000)">
                        <polyline id="Stroke-1" stroke="#626262" stroke-width="2" stroke-linecap="round" stroke-linejoin="round" points="27.8625 31.4962 27.8625 43.6102 9.6915 43.6102 9.6915 33.9192"></polyline>
                        <polyline id="Stroke-3" stroke="#626262" stroke-width="2" stroke-linecap="round" stroke-linejoin="round" points="9.6916 20.5939 9.6916 -0.0001 27.8626 -0.0001 27.8626 20.5939"></polyline>
                        <polygon id="Stroke-5" stroke="#626262" stroke-width="2" stroke-linejoin="round" points="8.4797 21.3439 29.0737 21.3439 33.9187 33.3429 26.4197 29.8229 20.4207 36.3419 15.7487 28.8429 7.2687 35.8809 7.2687 28.8429 0.000700000001 31.0349"></polygon>
                        <path d="M14.5392,4.632 C14.4692,4.632 14.4082,4.632 14.3392,4.612 C14.2782,4.602 14.2192,4.582 14.1582,4.562 C14.0892,4.532 14.0392,4.502 13.9782,4.462 C13.9292,4.432 13.8792,4.392 13.8292,4.342 C13.7382,4.252 13.6692,4.142 13.6082,4.012 C13.5592,3.892 13.5392,3.762 13.5392,3.632 C13.5392,3.372 13.6392,3.112 13.8292,2.922 C13.8792,2.882 13.9292,2.842 13.9782,2.802 C14.0392,2.762 14.0892,2.732 14.1582,2.712 C14.2192,2.682 14.2782,2.662 14.3392,2.652 C14.6692,2.592 15.0092,2.692 15.2382,2.922 C15.3392,3.022 15.4082,3.132 15.4592,3.252 C15.5092,3.372 15.5392,3.502 15.5392,3.632 C15.5392,3.762 15.5092,3.892 15.4592,4.012 C15.4082,4.142 15.3392,4.252 15.2382,4.342 C15.0592,4.532 14.7992,4.632 14.5392,4.632" id="Fill-7"></path>
                        <path d="M20.589,4.632 C20.459,4.632 20.339,4.612 20.209,4.562 C20.089,4.502 19.979,4.432 19.889,4.342 C19.789,4.252 19.719,4.142 19.669,4.022 C19.619,3.892 19.589,3.762 19.589,3.632 C19.589,3.372 19.698,3.112 19.889,2.932 C19.979,2.832 20.089,2.762 20.209,2.712 C20.459,2.612 20.729,2.612 20.979,2.712 C21.099,2.762 21.209,2.832 21.299,2.932 C21.488,3.112 21.599,3.372 21.599,3.632 C21.599,3.902 21.488,4.152 21.299,4.342 C21.209,4.432 21.099,4.502 20.979,4.562 C20.849,4.612 20.729,4.632 20.589,4.632" id="Fill-9"></path>
                        <path d="M19.3791,10.692 C19.3181,10.692 19.2491,10.682 19.1891,10.672 C19.1191,10.662 19.0591,10.642 18.9991,10.612 C18.9391,10.592 18.8791,10.562 18.8291,10.522 C18.7691,10.482 18.7191,10.442 18.6791,10.402 C18.4881,10.212 18.3791,9.952 18.3791,9.692 C18.3791,9.432 18.4881,9.172 18.6791,8.982 C18.7191,8.942 18.7691,8.892 18.8291,8.862 C18.8791,8.822 18.9391,8.792 18.9991,8.762 C19.0591,8.742 19.1191,8.722 19.1891,8.712 C19.3791,8.672 19.5791,8.692 19.7691,8.762 C19.8891,8.822 19.9991,8.892 20.0891,8.982 C20.1791,9.072 20.2591,9.182 20.3091,9.312 C20.3581,9.432 20.3791,9.562 20.3791,9.692 C20.3791,9.952 20.2781,10.212 20.0891,10.402 C19.8991,10.582 19.6491,10.692 19.3791,10.692" id="Fill-11"></path>
                        <path d="M23.0187,14.3224 C22.9487,14.3224 22.8887,14.3224 22.8187,14.3024 C22.7587,14.2924 22.6987,14.2724 22.6287,14.2524 C22.5687,14.2224 22.5187,14.1924 22.4587,14.1524 C22.4087,14.1224 22.3587,14.0824 22.3087,14.0324 C22.2587,13.9924 22.2187,13.9324 22.1887,13.8824 C22.1487,13.8224 22.1197,13.7724 22.0887,13.7124 C22.0687,13.6524 22.0487,13.5824 22.0397,13.5224 C22.0187,13.4524 22.0187,13.3924 22.0187,13.3224 C22.0187,13.0624 22.1197,12.8024 22.3087,12.6224 C22.6687,12.2524 23.3587,12.2424 23.7187,12.6224 C23.8187,12.7124 23.8887,12.8224 23.9387,12.9424 C23.9887,13.0624 24.0187,13.1924 24.0187,13.3224 C24.0187,13.5924 23.9087,13.8524 23.7187,14.0324 C23.5397,14.2224 23.2787,14.3224 23.0187,14.3224" id="Fill-13"></path>
                        <path d="M14.5392,17.9621 C14.4692,17.9621 14.4082,17.9521 14.3392,17.9421 C14.2782,17.9321 14.2192,17.9121 14.1582,17.8821 C14.0892,17.8621 14.0392,17.8321 13.9782,17.7921 L13.8292,17.6721 C13.6392,17.4821 13.5392,17.2221 13.5392,16.9621 C13.5392,16.8921 13.5392,16.8321 13.5592,16.7621 C13.5682,16.7021 13.5892,16.6421 13.6082,16.5721 C13.6392,16.5121 13.6692,16.4621 13.7092,16.4021 C13.7382,16.3521 13.7782,16.3021 13.8292,16.2521 C13.8792,16.2021 13.9292,16.1621 13.9782,16.1321 C14.0392,16.0921 14.0892,16.0621 14.1582,16.0321 C14.2192,16.0121 14.2782,15.9921 14.3392,15.9821 C14.6692,15.9121 15.0092,16.0221 15.2382,16.2521 C15.2892,16.3021 15.3292,16.3521 15.3692,16.4021 C15.3982,16.4621 15.4382,16.5121 15.4592,16.5721 C15.4882,16.6321 15.5092,16.7021 15.5182,16.7621 C15.5282,16.8321 15.5392,16.8921 15.5392,16.9621 C15.5392,17.0921 15.5092,17.2221 15.4592,17.3421 C15.4082,17.4621 15.3392,17.5721 15.2382,17.6721 C15.0592,17.8521 14.7992,17.9621 14.5392,17.9621" id="Fill-15"></path>
                        <path d="M24.9552,7.5109 L23.0172,6.0569" id="Stroke-17" stroke="#626262" stroke-width="2" stroke-linecap="round" stroke-linejoin="round"></path>
                        <path d="M15.7482,12.1139 L13.4282,12.8109" id="Stroke-19" stroke="#626262" stroke-width="2" stroke-linecap="round" stroke-linejoin="round"></path>
                        <path d="M22.7951,16.9596 L20.5941,15.9466" id="Stroke-21" stroke="#626262" stroke-width="2" stroke-linecap="round" stroke-linejoin="round"></path>
                        <path d="M15.7482,6.8385 L13.9662,8.4795" id="Stroke-23" stroke="#626262" stroke-width="2" stroke-linecap="round" stroke-linejoin="round"></path>
                    </g>
                    <g id="Page-1" transform="translate(150.000000, 73.000000)">
                        <path d="M45.2276,11.1493 C45.2276,11.1493 50.1576,39.8933 50.1576,53.1593 C50.1576,66.4253 45.2276,79.6923 45.2276,79.6923 L25.5786,79.6923 L5.9296,79.6923 C5.9296,79.6923 0.9996,66.4253 0.9996,53.1593 C0.9996,39.8933 5.9296,11.1493 5.9296,11.1493 L45.2276,11.1493 Z" id="Stroke-1" stroke="#626262" stroke-width="2" stroke-linejoin="round"></path>
                        <mask id="mask-6" fill="white">
                            <use xlink:href="#path-5"></use>
                        </mask>
                        <g id="Clip-4"></g>
                        <polygon id="Stroke-3" stroke="#626262" stroke-width="2" stroke-linejoin="round" mask="url(#mask-6)" points="6 11.1502 45.333 11.1502 45.333 1.0002 6 1.0002"></polygon>
                        <polygon id="Stroke-5" stroke="#626262" stroke-width="2" stroke-linejoin="round" mask="url(#mask-6)" points="42.6671 47.5282 8.6671 47.5282 10.7921 32.3032 40.5421 32.3032"></polygon>
                    </g>
                    <g id="Page-1" transform="translate(218.000000, 90.000000)">
                        <path d="M38.216,11.15 C38.216,11.15 41.6,33.141 41.6,43.291 C41.6,53.441 38.216,63.591 38.216,63.591 L21.3,63.591 L4.383,63.591 C4.383,63.591 1,53.441 1,43.291 C1,33.141 4.383,11.15 4.383,11.15 L38.216,11.15 Z" id="Stroke-1" stroke="#626262" stroke-width="2" stroke-linejoin="round"></path>
                        <mask id="mask-8" fill="white">
                            <use xlink:href="#path-7"></use>
                        </mask>
                        <g id="Clip-4"></g>
                        <polygon id="Stroke-3" stroke="#626262" stroke-width="2" stroke-linejoin="round" mask="url(#mask-8)" points="4.383 11.15 38.216 11.15 38.216 1 4.383 1"></polygon>
                        <polygon id="Stroke-5" stroke="#626262" stroke-width="2" stroke-linejoin="round" mask="url(#mask-8)" points="34.8331 41.5997 7.7671 41.5997 9.4581 26.3747 33.1421 26.3747"></polygon>
                    </g>
                    <g id="Page-1-Copy-36" transform="translate(275.000000, 90.000000)">
                        <path d="M38.216,11.15 C38.216,11.15 41.6,33.141 41.6,43.291 C41.6,53.441 38.216,63.591 38.216,63.591 L21.3,63.591 L4.383,63.591 C4.383,63.591 1,53.441 1,43.291 C1,33.141 4.383,11.15 4.383,11.15 L38.216,11.15 Z" id="Stroke-1" stroke="#626262" stroke-width="2" stroke-linejoin="round"></path>
                        <mask id="mask-10" fill="white">
                            <use xlink:href="#path-9"></use>
                        </mask>
                        <g id="Clip-4"></g>
                        <polygon id="Stroke-3" stroke="#626262" stroke-width="2" stroke-linejoin="round" mask="url(#mask-10)" points="4.383 11.15 38.216 11.15 38.216 1 4.383 1"></polygon>
                        <polygon id="Stroke-5" stroke="#626262" stroke-width="2" stroke-linejoin="round" mask="url(#mask-10)" points="34.8331 41.5997 7.7671 41.5997 9.4581 26.3747 33.1421 26.3747"></polygon>
                    </g>
                    <g id="Page-1" transform="translate(223.000000, 175.000000)">
                        <path d="M45.2276,11.1493 C45.2276,11.1493 50.1576,39.8933 50.1576,53.1593 L50.1576,79.6923 L25.5786,79.6923 L0.9996,79.6923 L0.9996,53.1593 C0.9996,39.8933 5.9296,11.1493 5.9296,11.1493 L45.2276,11.1493 Z" id="Stroke-1" stroke="#626262" stroke-width="2" stroke-linejoin="round"></path>
                        <mask id="mask-12" fill="white">
                            <use xlink:href="#path-11"></use>
                        </mask>
                        <g id="Clip-4"></g>
                        <polygon id="Stroke-3" stroke="#626262" stroke-width="2" stroke-linejoin="round" mask="url(#mask-12)" points="6 11.1502 45.333 11.1502 45.333 1.0002 6 1.0002"></polygon>
                        <polygon id="Stroke-5" stroke="#626262" stroke-width="2" stroke-linejoin="round" mask="url(#mask-12)" points="42.6671 47.5282 8.6671 47.5282 10.7921 32.3032 40.5421 32.3032"></polygon>
                    </g>
                    <g id="Page-1-Copy-21" transform="translate(154.000000, 175.000000)">
                        <path d="M45.2276,11.1493 C45.2276,11.1493 50.1576,39.8933 50.1576,53.1593 L50.1576,79.6923 L25.5786,79.6923 L0.9996,79.6923 L0.9996,53.1593 C0.9996,39.8933 5.9296,11.1493 5.9296,11.1493 L45.2276,11.1493 Z" id="Stroke-1" stroke="#626262" stroke-width="2" stroke-linejoin="round"></path>
                        <mask id="mask-14" fill="white">
                            <use xlink:href="#path-13"></use>
                        </mask>
                        <g id="Clip-4"></g>
                        <polygon id="Stroke-3" stroke="#626262" stroke-width="2" stroke-linejoin="round" mask="url(#mask-14)" points="6 11.1502 45.333 11.1502 45.333 1.0002 6 1.0002"></polygon>
                        <polygon id="Stroke-5" stroke="#626262" stroke-width="2" stroke-linejoin="round" mask="url(#mask-14)" points="42.6671 47.5282 8.6671 47.5282 10.7921 32.3032 40.5421 32.3032"></polygon>
                    </g>
                    <g id="Page-1-Copy-22" transform="translate(101.000000, 202.000000)">
                        <path d="M29.5718923,7.29522099 C29.5718923,7.29522099 32.7953538,26.1030235 32.7953538,34.7832457 L32.7953538,52.1443444 L16.7244692,52.1443444 L0.653584615,52.1443444 L0.653584615,34.7832457 C0.653584615,26.1030235 3.87704615,7.29522099 3.87704615,7.29522099 L29.5718923,7.29522099 Z" id="Stroke-1" stroke="#626262" stroke-width="2" stroke-linejoin="round"></path>
                        <mask id="mask-16" fill="white">
                            <use xlink:href="#path-15"></use>
                        </mask>
                        <g id="Clip-4"></g>
                        <polygon id="Stroke-3" stroke="#626262" stroke-width="2" stroke-linejoin="round" mask="url(#mask-16)" points="3.92307692 7.29580988 29.6408077 7.29580988 29.6408077 0.654451852 3.92307692 0.654451852"></polygon>
                        <polygon id="Stroke-5" stroke="#626262" stroke-width="2" stroke-linejoin="round" mask="url(#mask-16)" points="27.8977192 31.0986988 5.66695 31.0986988 7.05637308 21.1366617 26.5082962 21.1366617"></polygon>
                    </g>
                    <g id="Page-1" transform="translate(328.000000, 208.000000)" stroke="#626262" stroke-width="2" stroke-linecap="round">
                        <path d="M23.8791,46.2362 L7.1211,46.2362 C4.8451,46.2362 3.0001,44.3912 3.0001,42.1152 L3.0001,19.2362 L28.0001,19.2362 L28.0001,42.1152 C28.0001,44.3912 26.1541,46.2362 23.8791,46.2362 Z" id="Stroke-1" stroke-linejoin="round"></path>
                        <path d="M0.0002,19.2362 L31.0002,19.2362" id="Stroke-3" stroke-linejoin="round"></path>
                        <path d="M28.0002,25.2362 L32.3122,25.2362 C33.7972,25.2362 35.0002,26.4392 35.0002,27.9232 L35.0002,36.5492 C35.0002,38.0332 33.7972,39.2362 32.3122,39.2362 L28.0002,39.2362" id="Stroke-5" stroke-linejoin="round"></path>
                        <path d="M9.0646,-0.0001 C9.9626,0.8149 10.9566,1.4839 11.2106,3.3019 C11.6646,6.5259 8.1976,7.0129 8.6506,10.2359 C8.9156,12.1199 9.9716,12.7709 10.8946,13.6279" id="Stroke-7"></path>
                        <path d="M20.4142,-0.0001 C21.3122,0.8149 22.3062,1.4839 22.5602,3.3019 C23.0142,6.5259 19.5472,7.0129 20.0002,10.2359 C20.2652,12.1199 21.3212,12.7709 22.2442,13.6279" id="Stroke-9"></path>
                    </g>
                    <g id="Page-1-Copy-35" transform="translate(151.000000, 12.000000)" stroke="#626262" stroke-width="2" stroke-linecap="round">
                        <path d="M23.8791,46.2362 L7.1211,46.2362 C4.8451,46.2362 3.0001,44.3912 3.0001,42.1152 L3.0001,19.2362 L28.0001,19.2362 L28.0001,42.1152 C28.0001,44.3912 26.1541,46.2362 23.8791,46.2362 Z" id="Stroke-1" stroke-linejoin="round"></path>
                        <path d="M0.0002,19.2362 L31.0002,19.2362" id="Stroke-3" stroke-linejoin="round"></path>
                        <path d="M28.0002,25.2362 L32.3122,25.2362 C33.7972,25.2362 35.0002,26.4392 35.0002,27.9232 L35.0002,36.5492 C35.0002,38.0332 33.7972,39.2362 32.3122,39.2362 L28.0002,39.2362" id="Stroke-5" stroke-linejoin="round"></path>
                        <path d="M9.0646,-0.0001 C9.9626,0.8149 10.9566,1.4839 11.2106,3.3019 C11.6646,6.5259 8.1976,7.0129 8.6506,10.2359 C8.9156,12.1199 9.9716,12.7709 10.8946,13.6279" id="Stroke-7"></path>
                        <path d="M20.4142,-0.0001 C21.3122,0.8149 22.3062,1.4839 22.5602,3.3019 C23.0142,6.5259 19.5472,7.0129 20.0002,10.2359 C20.2652,12.1199 21.3212,12.7709 22.2442,13.6279" id="Stroke-9"></path>
                    </g>
                    <g id="Page-1" transform="translate(289.000000, 173.000000)" stroke="#626262" stroke-width="2" stroke-linecap="round" stroke-linejoin="round">
                        <path d="M20.8791,82.2362 L4.1211,82.2362 C1.8451,82.2362 0.0001,80.3912 0.0001,78.1152 L0.0001,23.0002 L25.0001,23.0002 L25.0001,78.1152 C25.0001,80.3912 23.1541,82.2362 20.8791,82.2362 Z" id="Stroke-1"></path>
                        <path d="M0.0002,69.973 L25.0002,69.973" id="Stroke-3"></path>
                        <path d="M19.964,12.972 C23.021,15.251 25,18.894 25,23" id="Stroke-5"></path>
                        <path d="M0.0002,22.9998 C0.0002,18.9108 1.9642,15.2798 5.0002,12.9998" id="Stroke-7"></path>
                        <path d="M7.4445,-0.0002 L17.5215,-0.0002 C18.8905,-0.0002 20.0005,1.1098 20.0005,2.4788 L20.0005,13.2358 L4.9655,13.2358 L4.9655,2.4788 C4.9655,1.1098 6.0755,-0.0002 7.4445,-0.0002 Z" id="Stroke-9"></path>
                    </g>
                    <g id="Page-1" transform="translate(431.000000, 131.000000)" stroke="#626262" stroke-width="2" stroke-linejoin="round">
                        <path d="M50.6702,28.9355 L9.8172,28.9355 C9.1522,28.9355 8.5932,28.6185 8.5152,28.1975 L4.1212,12.9175 L56.3672,12.9175 L51.9742,28.1975 C51.8962,28.6185 51.3362,28.9355 50.6702,28.9355 Z" id="Stroke-1"></path>
                        <path d="M9.8177,2.8168 L50.6707,2.8168 C51.3367,2.8168 51.8957,3.1338 51.9737,3.5548 L56.3677,12.9178 L4.1217,12.9178 L8.5147,3.5548 C8.5927,3.1338 9.1527,2.8168 9.8177,2.8168 Z" id="Stroke-3"></path>
                        <path d="M60.4886,12.9174 L54.0326,0.9434 C53.9336,0.4054 53.2176,0.0004 52.3666,0.0004 L8.1216,0.0004 C7.2706,0.0004 6.5546,0.4054 6.4556,0.9434 L0.0006,12.9174 L1.0226,12.9174 L61.4816,12.9174 C62.3326,12.9174 63.0226,13.6074 63.0226,14.4584 C63.0226,15.3104 62.3326,16.0004 61.4816,16.0004 L54.9676,16.0004" id="Stroke-5"></path>
                    </g>
                    <g id="Page-1" transform="translate(378.000000, 221.000000)" stroke="#626262" stroke-width="2" stroke-linejoin="round">
                        <path d="M41.382,32.9356 L8.618,32.9356 C8.084,32.9356 7.635,32.6186 7.573,32.1976 L4.049,16.9726 L45.95,16.9726 L42.427,32.1976 C42.364,32.6186 41.915,32.9356 41.382,32.9356 Z" id="Stroke-1"></path>
                        <path d="M0.0002,16.9727 L50.0002,16.9727" id="Stroke-3" stroke-linecap="round"></path>
                        <path d="M8.0002,16.9727 C8.0002,7.5837 15.6112,-0.0003 25.0002,-0.0003 C34.3892,-0.0003 42.0002,7.5837 42.0002,16.9727" id="Stroke-5" stroke-linecap="round"></path>
                    </g>
                    <g id="Page-1" transform="translate(332.000000, 10.000000)">
                        <g id="Group-7" transform="translate(0.000000, 0.000100)">
                            <polygon id="Stroke-1" stroke="#626262" stroke-width="2" stroke-linejoin="round" points="26.4995 53.4998 1.0005 53.4998 1.0005 60.9998 14.4965 60.9998 26.5005 60.9998"></polygon>
                            <polygon id="Stroke-3" stroke="#626262" stroke-width="2" stroke-linejoin="round" points="26.5004 0.9998 14.5004 0.9998 1.0004 0.9998 1.0004 8.4998 26.4994 8.4998"></polygon>
                            <mask id="mask-18" fill="white">
                                <use xlink:href="#path-17"></use>
                            </mask>
                            <g id="Clip-6"></g>
                            <polygon id="Stroke-5" stroke="#626262" stroke-width="2" stroke-linecap="round" stroke-linejoin="round" mask="url(#mask-18)" points="1 53.5 26.5 53.5 26.5 8.5 1 8.5"></polygon>
                        </g>
                        <polygon id="Stroke-8" stroke="#626262" stroke-width="2" stroke-linejoin="round" points="8.5 46.0001 19 46.0001 19 16.0001 8.5 16.0001"></polygon>
                    </g>
                    <g id="Page-1" transform="translate(21.000000, 7.000000)">
                        <polygon id="Stroke-1" stroke="#626262" stroke-width="2" stroke-linejoin="round" points="26.4995 53.4999 1.0005 53.4999 1.0005 60.9999 14.4965 60.9999 26.5005 60.9999"></polygon>
                        <polygon id="Stroke-3" stroke="#626262" stroke-width="2" stroke-linejoin="round" points="26.5004 0.9999 14.5004 0.9999 1.0004 0.9999 1.0004 8.4999 26.4994 8.4999"></polygon>
                        <mask id="mask-20" fill="white">
                            <use xlink:href="#path-19"></use>
                        </mask>
                        <g id="Clip-6"></g>
                        <polygon id="Stroke-5" stroke="#626262" stroke-width="2" stroke-linecap="round" stroke-linejoin="round" mask="url(#mask-20)" points="1 53.5001 26.5 53.5001 26.5 8.5001 1 8.5001"></polygon>
                        <path d="M13.7504,45.9999 L13.7504,45.9999 C10.8504,45.9999 8.5004,43.6489 8.5004,40.7499 L8.5004,21.2499 C8.5004,18.3509 10.8504,15.9999 13.7504,15.9999 C16.6494,15.9999 19.0004,18.3509 19.0004,21.2499 L19.0004,40.7499 C19.0004,43.6489 16.6494,45.9999 13.7504,45.9999 Z" id="Stroke-7" stroke="#626262" stroke-width="2" stroke-linejoin="round" mask="url(#mask-20)"></path>
                    </g>
                    <g id="Page-1" transform="translate(474.000000, 213.000000)">
                        <polygon id="Stroke-1" stroke="#626262" stroke-width="2" stroke-linejoin="round" points="18 36 1 36 1 41 9.998 41 18 41"></polygon>
                        <polygon id="Stroke-3" stroke="#626262" stroke-width="2" stroke-linejoin="round" points="18 1 10 1 1 1 1 6 18 6"></polygon>
                        <mask id="mask-22" fill="white">
                            <use xlink:href="#path-21"></use>
                        </mask>
                        <g id="Clip-6"></g>
                        <polygon id="Stroke-5" stroke="#626262" stroke-width="2" stroke-linecap="round" stroke-linejoin="round" mask="url(#mask-22)" points="1 36.0001 18 36.0001 18 6.0001 1 6.0001"></polygon>
                        <path d="M9.5,31 L9.5,31 C7.567,31 6,29.433 6,27.5 L6,14.5 C6,12.567 7.567,11 9.5,11 C11.433,11 13,12.567 13,14.5 L13,27.5 C13,29.433 11.433,31 9.5,31 Z" id="Stroke-7" stroke="#626262" stroke-width="2" stroke-linejoin="round" mask="url(#mask-22)"></path>
                    </g>
                    <g id="Page-1-Copy-27" transform="translate(117.000000, 176.500000) rotate(-90.000000) translate(-117.000000, -176.500000) translate(107.500000, 155.500000)">
                        <polygon id="Stroke-1" stroke="#626262" stroke-width="2" stroke-linejoin="round" points="18 36 1 36 1 41 9.998 41 18 41"></polygon>
                        <polygon id="Stroke-3" stroke="#626262" stroke-width="2" stroke-linejoin="round" points="18 1 10 1 1 1 1 6 18 6"></polygon>
                        <mask id="mask-24" fill="white">
                            <use xlink:href="#path-23"></use>
                        </mask>
                        <g id="Clip-6"></g>
                        <polygon id="Stroke-5" stroke="#626262" stroke-width="2" stroke-linecap="round" stroke-linejoin="round" mask="url(#mask-24)" points="1 36.0001 18 36.0001 18 6.0001 1 6.0001"></polygon>
                        <path d="M9.5,31 L9.5,31 C7.567,31 6,29.433 6,27.5 L6,14.5 C6,12.567 7.567,11 9.5,11 C11.433,11 13,12.567 13,14.5 L13,27.5 C13,29.433 11.433,31 9.5,31 Z" id="Stroke-7" stroke="#626262" stroke-width="2" stroke-linejoin="round" mask="url(#mask-24)"></path>
                    </g>
                    <g id="Page-1" transform="translate(442.000000, 213.000000)">
                        <g id="Group-7" transform="translate(0.000000, 0.000100)">
                            <polygon id="Stroke-1" stroke="#626262" stroke-width="2" stroke-linejoin="round" points="18 35.9999 1 35.9999 1 40.9999 9.998 40.9999 18 40.9999"></polygon>
                            <polygon id="Stroke-3" stroke="#626262" stroke-width="2" stroke-linejoin="round" points="18 0.9999 10 0.9999 1 0.9999 1 5.9999 18 5.9999"></polygon>
                            <mask id="mask-26" fill="white">
                                <use xlink:href="#path-25"></use>
                            </mask>
                            <g id="Clip-6"></g>
                            <polygon id="Stroke-5" stroke="#626262" stroke-width="2" stroke-linecap="round" stroke-linejoin="round" mask="url(#mask-26)" points="1 36 18 36 18 6 1 6"></polygon>
                        </g>
                        <polygon id="Stroke-8" stroke="#626262" stroke-width="2" stroke-linejoin="round" points="6 31.0001 13 31.0001 13 11.0001 6 11.0001"></polygon>
                    </g>
                    <g id="Page-1-Copy-19" transform="translate(468.500000, 188.500000) rotate(-270.000000) translate(-468.500000, -188.500000) translate(462.000000, 164.000000)" stroke-width="2" stroke="#626262" stroke-linejoin="round">
                        <polygon id="Stroke-1" points="1 49 11.5 49 11.5 44 1 44"></polygon>
                        <polygon id="Stroke-3" points="1 5 11.5 5 11.5 0 1 0"></polygon>
                        <polygon id="Stroke-4" stroke-linecap="round" points="0.9998 44 -0.0002 42.25 -0.0002 7.75 0.9998 5 11.4998 5 12.4998 7.75 12.4998 41.75 11.4998 44"></polygon>
                        <polyline id="Stroke-7" stroke-linecap="round" points="0.161972073 16.0310333 6 16 6 34 0.161972073 34"></polyline>
                    </g>
                    <g id="Page-1" transform="translate(376.000000, 14.000000)">
                        <path d="M28.3842,52.4511 L30.8922,47.4881 C31.0332,47.2081 31.1072,46.8991 31.1072,46.5861 L31.1072,9.0001 L1.0002,9.0001 L1.0002,46.5861 C1.0002,46.8991 1.0732,47.2081 1.2152,47.4881 L3.7232,52.4511 C3.8932,52.7871 4.2382,53.0001 4.6152,53.0001 L27.4912,53.0001 C27.8682,53.0001 28.2142,52.7871 28.3842,52.4511 Z" id="Stroke-1" stroke="#626262" stroke-width="2" stroke-linejoin="round"></path>
                        <path d="M28.1068,0.9999 L4.0008,0.9999 C2.3428,0.9999 1.0008,2.3429 1.0008,3.9999 L1.0008,8.9999 L31.1068,8.9999 L31.1068,3.9999 C31.1068,2.3429 29.7638,0.9999 28.1068,0.9999 Z" id="Stroke-3" stroke="#626262" stroke-width="2" stroke-linejoin="round"></path>
                        <mask id="mask-28" fill="white">
                            <use xlink:href="#path-27"></use>
                        </mask>
                        <g id="Clip-6"></g>
                        <polygon id="Stroke-5" stroke="#626262" stroke-width="2" stroke-linejoin="round" mask="url(#mask-28)" points="5.107 37.937 27.107 37.937 27.107 15.937 5.107 15.937"></polygon>
                        <path d="M1.1068,46.9374 L19.1068,46.9374" id="Stroke-7" stroke="#626262" stroke-width="2" stroke-linecap="round" stroke-linejoin="round" mask="url(#mask-28)"></path>
                    </g>
                    <g id="Page-1" transform="translate(366.000000, 186.000000)" stroke="#626262" stroke-width="2" stroke-linejoin="round">
                        <path d="M50.6702,16.0181 L9.8172,16.0181 C9.1522,16.0181 8.5932,15.7011 8.5152,15.2801 L4.1212,0.0001 L56.3672,0.0001 L51.9742,15.2801 C51.8962,15.7011 51.3362,16.0181 50.6702,16.0181 Z" id="Stroke-1"></path>
                        <path d="M56.3675,0 L4.1215,0" id="Stroke-3"></path>
                        <path d="M0.0003,0 L1.0223,0 L61.4813,0 C62.3323,0 63.0223,0.69 63.0223,1.541 C63.0223,2.393 62.3323,3.083 61.4813,3.083 L54.9673,3.083" id="Stroke-5"></path>
                    </g>
                    <g id="Page-1" transform="translate(78.500000, 98.000000) scale(-1, 1) translate(-78.500000, -98.000000) translate(21.000000, 91.000000)" stroke="#626262" stroke-width="2" stroke-linejoin="round">
                        <path d="M69.2103,13.3735 L5.3893,13.3735 C4.0083,13.3735 2.8053,12.4305 2.4763,11.0885 L0.0003,0.9995 L74.6003,0.9995 L72.1243,11.0885 C71.7953,12.4305 70.5923,13.3735 69.2103,13.3735 Z" id="Stroke-1"></path>
                        <path d="M74.2699,1 L114.6329,1 C114.6329,1 114.6329,8.555 104.5419,8.555 C94.4519,8.555 93.4399,5.036 73.2509,5.036" id="Stroke-3"></path>
                    </g>
                </g>
            </g>
        </g>
    </g>
</svg>