<?xml version="1.0" encoding="UTF-8" standalone="no"?>
<svg width="192px" height="266px" viewBox="0 0 192 266" version="1.1" xmlns="http://www.w3.org/2000/svg" xmlns:xlink="http://www.w3.org/1999/xlink">
    <!-- Generator: Sketch 41.1 (35376) - http://www.bohemiancoding.com/sketch -->
    <title>2 copy 2</title>
    <desc>Created with Sketch.</desc>
    <defs></defs>
    <g id="Page-1" stroke="none" stroke-width="1" fill="none" fill-rule="evenodd">
        <path d="M56.4,106.4 C55.2,102 54.4,96.8 54.4,92 C54.4,67.6 68,48.8 95.6,48.8 C121.6,48.8 134.8,65.6 134.8,84.4 C134.8,102.4 126,116 104,129.2 L61.2,154.8 C14.8,182.8 0.4,220 0,265.6 L192,265.6 L192,218 L67.6,218 C71.6,208 80,200.8 90,194.4 L140,164 C172,144.4 190.4,117.2 190.4,83.6 C190.4,38.4 154.8,0 96.8,0 C36.4,0 2,41.2 2,86.8 C2,93.2 3.2,101.2 4,104.8 L56.4,106.4 Z" id="2-copy-2" fill="#F6F7F9"></path>
    </g>
</svg>