<?xml version="1.0" encoding="UTF-8" standalone="no"?>
<svg width="200px" height="266px" viewBox="0 0 200 266" version="1.1" xmlns="http://www.w3.org/2000/svg" xmlns:xlink="http://www.w3.org/1999/xlink">
    <!-- Generator: Sketch 41.1 (35376) - http://www.bohemiancoding.com/sketch -->
    <title>3 copy 2</title>
    <desc>Created with Sketch.</desc>
    <defs></defs>
    <g id="Page-1" stroke="none" stroke-width="1" fill="none" fill-rule="evenodd">
        <path d="M78.4,144.4 C84,142.4 90.8,140.4 102,140.4 C126.8,140.4 144.4,154.4 144.4,178.8 C144.4,200.4 128,218 100.4,218 C73.2,218 54.4,198.8 53.2,172.4 L0,182.8 C3.2,226.4 40,265.6 100.4,265.6 C163.2,265.6 200,224.4 200,179.6 C200,132 164,102 124.8,100.4 L192,44.4 L192,0 L8.4,0 L8.4,47.6 L122,47.6 L54,106 L78.4,144.4 Z" id="3-copy-2" fill="#EEEFF1"></path>
    </g>
</svg>