<?xml version="1.0" encoding="UTF-8" standalone="no"?>
<svg width="207px" height="272px" viewBox="0 0 207 272" version="1.1" xmlns="http://www.w3.org/2000/svg" xmlns:xlink="http://www.w3.org/1999/xlink">
    <!-- Generator: Sketch 41.1 (35376) - http://www.bohemiancoding.com/sketch -->
    <title>6 copy</title>
    <desc>Created with Sketch.</desc>
    <defs></defs>
    <g id="Page-1" stroke="none" stroke-width="1" fill="none" fill-rule="evenodd">
        <path d="M199.2,12.4 C188.4,6 168.8,0.4 144.8,0.4 C59.2,0.4 0.8,59.6 0.8,152.8 C0.8,231.2 49.2,272 106,272 C163.2,272 206.4,234 206.4,180.8 C206.4,127.2 170,93.6 116.8,93.6 C86.4,93.6 64.8,108 55.2,122.4 C61.2,73.6 97.2,48 141.2,48 C157.6,48 172.8,52.4 184,57.2 L199.2,12.4 Z M60,182 C60,155.2 80.8,138.8 105.6,138.8 C130.8,138.8 151.6,155.2 151.6,182 C151.6,208.8 130.8,225.6 105.6,225.6 C81.6,225.6 60,208.4 60,182 Z" id="6-copy" fill="#F6F7F9"></path>
    </g>
</svg>